<svg width="20" height="21" viewBox="0 0 20 21" fill="none" xmlns="http://www.w3.org/2000/svg">
<g id="Icon" clip-path="url(#clip0_1_60)">
<path id="Vector" d="M10 19.5039C8.76302 19.5039 7.59766 19.2695 6.50391 18.8008C5.41016 18.319 4.45638 17.6712 3.64258 16.8574C2.82878 16.0436 2.18099 15.0898 1.69922 13.9961C1.23047 12.9023 0.996094 11.737 0.996094 10.5C0.996094 9.26302 1.23047 8.09766 1.69922 7.00391C2.18099 5.91016 2.82878 4.95638 3.64258 4.14258C4.45638 3.32878 5.41016 2.68099 6.50391 2.19922C7.59766 1.73047 8.76302 1.49609 10 1.49609C11.237 1.49609 12.4023 1.73047 13.4961 2.19922C14.5898 2.68099 15.5436 3.32878 16.3574 4.14258C17.1712 4.95638 17.819 5.91016 18.3008 7.00391C18.7695 8.09766 19.0039 9.26302 19.0039 10.5C19.0039 11.737 18.7695 12.9023 18.3008 13.9961C17.819 15.0898 17.1712 16.0436 16.3574 16.8574C15.5436 17.6712 14.5898 18.319 13.4961 18.8008C12.4023 19.2695 11.237 19.5039 10 19.5039ZM10 20.5C11.3802 20.5 12.6758 20.2396 13.8867 19.7188C15.1107 19.1979 16.1751 18.485 17.0801 17.5801C17.985 16.6751 18.6979 15.6107 19.2188 14.3867C19.7396 13.1758 20 11.8802 20 10.5C20 9.11979 19.7396 7.82422 19.2188 6.61328C18.6979 5.38932 17.985 4.32487 17.0801 3.41992C16.1751 2.51497 15.1107 1.80208 13.8867 1.28125C12.6758 0.760416 11.3802 0.5 10 0.5C8.61979 0.5 7.32422 0.760416 6.11328 1.28125C4.88932 1.80208 3.82487 2.51497 2.91992 3.41992C2.01497 4.32487 1.30208 5.38932 0.78125 6.61328C0.260417 7.82422 0 9.11979 0 10.5C0 11.8802 0.260417 13.1758 0.78125 14.3867C1.30208 15.6107 2.01497 16.6751 2.91992 17.5801C3.82487 18.485 4.88932 19.1979 6.11328 19.7188C7.32422 20.2396 8.61979 20.5 10 20.5ZM9.47266 14.8945C9.47266 15.0638 9.53125 15.207 9.64844 15.3242C9.76562 15.4414 9.90234 15.5 10.0586 15.5C10.2279 15.5 10.3711 15.4414 10.4883 15.3242C10.6055 15.207 10.6641 15.0638 10.6641 14.8945V10.9883H14.3945C14.5638 10.9883 14.707 10.9297 14.8242 10.8125C14.9414 10.6953 15 10.5521 15 10.3828C15 10.2135 14.9414 10.0703 14.8242 9.95312C14.707 9.83594 14.5638 9.77734 14.3945 9.77734H10.6641V6.10547C10.6641 5.9362 10.6055 5.79297 10.4883 5.67578C10.3711 5.55859 10.2279 5.5 10.0586 5.5C9.90234 5.5 9.76562 5.55859 9.64844 5.67578C9.53125 5.79297 9.47266 5.9362 9.47266 6.10547V9.77734H5.60547C5.4362 9.77734 5.29297 9.83594 5.17578 9.95312C5.05859 10.0703 5 10.2135 5 10.3828C5 10.5521 5.05859 10.6953 5.17578 10.8125C5.29297 10.9297 5.4362 10.9883 5.60547 10.9883H9.47266V14.8945Z" fill="#303033"/>
</g>
<defs>
<clipPath id="clip0_1_60">
<rect width="20" height="20" fill="white" transform="matrix(1 0 0 -1 0 20.5)"/>
</clipPath>
</defs>
</svg>
