<svg width="24" height="24" viewBox="0 0 24 24" fill="none" xmlns="http://www.w3.org/2000/svg">
<g id="4ae95e40-67df-11ee-be55-55b3361635a0.svg">
<path id="Vector" d="M22.5 11.25C22.4987 10.0569 22.0243 8.913 21.1806 8.0694C20.337 7.22574 19.1931 6.75124 18 6.75H14.2687C13.9959 6.73406 9.24188 6.39937 4.71469 2.6025C4.49607 2.41889 4.2296 2.30149 3.94656 2.26408C3.66353 2.22666 3.37571 2.2708 3.11689 2.3913C2.85807 2.51179 2.63902 2.70365 2.48546 2.94433C2.3319 3.185 2.25022 3.4645 2.25 3.75V18.75C2.25004 19.0356 2.33159 19.3152 2.48509 19.556C2.63858 19.7968 2.85761 19.9888 3.11647 20.1094C3.37532 20.23 3.66322 20.2743 3.94633 20.2369C4.22944 20.1995 4.49601 20.0821 4.71469 19.8984C8.25563 16.9284 11.9335 16.0771 13.5 15.839V18.8128C13.4997 19.06 13.5605 19.3034 13.6769 19.5214C13.7934 19.7395 13.9619 19.9253 14.1675 20.0625L15.1987 20.7496C15.3981 20.8827 15.6264 20.9661 15.8645 20.9927C16.1027 21.0194 16.3438 20.9886 16.5676 20.9029C16.7914 20.8173 16.9915 20.6793 17.1509 20.5004C17.3105 20.3215 17.4248 20.1071 17.4844 19.875L18.5879 15.7162C19.6704 15.5722 20.6638 15.04 21.3834 14.2184C22.1029 13.3969 22.4998 12.3421 22.5 11.25ZM3.75 18.7434V3.75C7.76347 7.11656 11.8715 7.96875 13.5 8.17875V14.3175C11.8735 14.5312 7.76625 15.3815 3.75 18.7434ZM16.0312 19.4934V19.5037L15 18.8165V15.75H17.025L16.0312 19.4934ZM18 14.25H15V8.25H18C18.7957 8.25 19.5587 8.56605 20.1213 9.1287C20.684 9.69127 21 10.4543 21 11.25C21 12.0457 20.684 12.8087 20.1213 13.3713C19.5587 13.9339 18.7957 14.25 18 14.25Z" fill="#343330"/>
</g>
</svg>
