<svg xmlns="http://www.w3.org/2000/svg" width="24" height="25" viewBox="0 0 24 25" fill="none">
<path d="M7.5 16.8829C7.67188 17.0861 7.74219 17.3282 7.71094 17.6095C7.67969 17.8907 7.55469 18.1173 7.33594 18.2892C7.11719 18.4611 6.87109 18.5314 6.59766 18.5001C6.32422 18.4689 6.10156 18.3439 5.92969 18.1251L2.4375 13.7423C2.14062 13.3829 1.99219 12.9689 1.99219 12.5001C1.99219 12.0314 2.14062 11.6173 2.4375 11.2579L5.92969 6.87511C6.10156 6.65636 6.32422 6.53136 6.59766 6.50011C6.87109 6.46886 7.11719 6.53918 7.33594 6.71105C7.55469 6.88293 7.67969 7.10949 7.71094 7.39074C7.74219 7.67199 7.67188 7.91418 7.5 8.1173L4.80469 11.4923H21C21.2812 11.4923 21.5195 11.59 21.7148 11.7853C21.9102 11.9806 22.0078 12.2189 22.0078 12.5001C22.0078 12.7814 21.9102 13.0196 21.7148 13.215C21.5195 13.4103 21.2812 13.5079 21 13.5079H4.80469L7.5 16.8829Z" fill="#7C7B7B"/>
</svg>