<?xml version="1.0" encoding="utf-8"?>
<!-- Generator: Adobe Illustrator 25.2.0, SVG Export Plug-In . SVG Version: 6.00 Build 0)  -->
<svg version="1.1" id="Layer_1" xmlns="http://www.w3.org/2000/svg" xmlns:xlink="http://www.w3.org/1999/xlink" x="0px" y="0px"
	 width="362.93px" height="915.08px" viewBox="0 0 362.93 915.08" style="enable-background:new 0 0 362.93 915.08;"
	 xml:space="preserve">
<style type="text/css">
	.st0{fill:#CBC8DD;}
	.st1{fill:#9B9AB9;}
	.st2{fill:none;stroke:#2E1D10;stroke-width:1.5;stroke-linecap:round;stroke-linejoin:round;stroke-miterlimit:10;}
	.st3{fill:#FFFFFF;stroke:#2E1D10;stroke-width:1.5;stroke-linecap:round;stroke-linejoin:round;stroke-miterlimit:10;}
	.st4{fill:url(#SVGID_1_);}
	.st5{opacity:0.5;fill:#A57F51;}
	.st6{fill:none;stroke:#2E1D10;stroke-width:1.3203;stroke-linecap:round;stroke-linejoin:round;stroke-miterlimit:10;}
	.st7{fill:url(#SVGID_2_);}
	.st8{fill:url(#SVGID_3_);}
	.st9{fill:#F3D9BB;stroke:#2E1D10;stroke-width:1.5;stroke-linecap:round;stroke-linejoin:round;stroke-miterlimit:10;}
	.st10{fill:#CBC8DD;stroke:#2E1D10;stroke-width:1.5;stroke-linecap:round;stroke-linejoin:round;stroke-miterlimit:10;}
	.st11{fill:#BD8974;}
	.st12{fill:url(#SVGID_4_);stroke:#2E1D10;stroke-width:1.3203;stroke-linecap:round;stroke-linejoin:round;stroke-miterlimit:10;}
	.st13{fill:url(#SVGID_5_);stroke:#2E1D10;stroke-width:1.3203;stroke-linecap:round;stroke-linejoin:round;stroke-miterlimit:10;}
	.st14{fill:#FFFFFF;stroke:#2E1D10;stroke-width:1.3203;stroke-linecap:round;stroke-linejoin:round;stroke-miterlimit:10;}
	.st15{fill:url(#SVGID_6_);stroke:#2E1D10;stroke-width:1.3203;stroke-linecap:round;stroke-linejoin:round;stroke-miterlimit:10;}
	.st16{fill:url(#SVGID_7_);stroke:#2E1D10;stroke-width:1.3203;stroke-linecap:round;stroke-linejoin:round;stroke-miterlimit:10;}
	.st17{fill:url(#SVGID_8_);stroke:#2E1D10;stroke-width:1.3203;stroke-linecap:round;stroke-linejoin:round;stroke-miterlimit:10;}
	.st18{fill:url(#SVGID_9_);stroke:#2E1D10;stroke-width:1.3203;stroke-linecap:round;stroke-linejoin:round;stroke-miterlimit:10;}
	.st19{fill:url(#SVGID_10_);stroke:#2E1D10;stroke-width:1.3203;stroke-linecap:round;stroke-linejoin:round;stroke-miterlimit:10;}
	.st20{fill:url(#SVGID_11_);stroke:#2E1D10;stroke-width:1.3203;stroke-linecap:round;stroke-linejoin:round;stroke-miterlimit:10;}
	.st21{fill:url(#SVGID_12_);stroke:#2E1D10;stroke-width:1.3203;stroke-linecap:round;stroke-linejoin:round;stroke-miterlimit:10;}
	.st22{fill:url(#SVGID_13_);stroke:#2E1D10;stroke-width:1.3203;stroke-linecap:round;stroke-linejoin:round;stroke-miterlimit:10;}
	.st23{fill:url(#SVGID_14_);stroke:#2E1D10;stroke-width:1.3203;stroke-linecap:round;stroke-linejoin:round;stroke-miterlimit:10;}
	.st24{fill:url(#SVGID_15_);stroke:#2E1D10;stroke-width:1.3203;stroke-linecap:round;stroke-linejoin:round;stroke-miterlimit:10;}
	.st25{fill:url(#SVGID_16_);stroke:#2E1D10;stroke-width:1.3203;stroke-linecap:round;stroke-linejoin:round;stroke-miterlimit:10;}
	.st26{fill:url(#SVGID_17_);stroke:#2E1D10;stroke-width:1.3203;stroke-linecap:round;stroke-linejoin:round;stroke-miterlimit:10;}
	.st27{fill:url(#SVGID_18_);stroke:#2E1D10;stroke-width:1.3203;stroke-linecap:round;stroke-linejoin:round;stroke-miterlimit:10;}
	.st28{fill:url(#SVGID_19_);stroke:#2E1D10;stroke-width:1.3203;stroke-linecap:round;stroke-linejoin:round;stroke-miterlimit:10;}
	.st29{fill:url(#SVGID_20_);stroke:#2E1D10;stroke-width:1.3203;stroke-linecap:round;stroke-linejoin:round;stroke-miterlimit:10;}
	.st30{fill:url(#SVGID_21_);stroke:#2E1D10;stroke-width:1.3203;stroke-linecap:round;stroke-linejoin:round;stroke-miterlimit:10;}
	.st31{fill:url(#SVGID_22_);stroke:#2E1D10;stroke-width:1.3203;stroke-linecap:round;stroke-linejoin:round;stroke-miterlimit:10;}
	.st32{fill:url(#SVGID_23_);stroke:#2E1D10;stroke-width:1.3203;stroke-linecap:round;stroke-linejoin:round;stroke-miterlimit:10;}
	.st33{fill:url(#SVGID_24_);stroke:#2E1D10;stroke-width:1.3203;stroke-linecap:round;stroke-linejoin:round;stroke-miterlimit:10;}
	.st34{fill:url(#SVGID_25_);stroke:#2E1D10;stroke-width:1.3203;stroke-linecap:round;stroke-linejoin:round;stroke-miterlimit:10;}
	.st35{fill:url(#SVGID_26_);stroke:#2E1D10;stroke-width:1.3203;stroke-linecap:round;stroke-linejoin:round;stroke-miterlimit:10;}
	.st36{fill:url(#SVGID_27_);stroke:#2E1D10;stroke-width:1.3203;stroke-linecap:round;stroke-linejoin:round;stroke-miterlimit:10;}
	.st37{fill:#F3D9BB;}
</style>
<g>
	<g>
		<path class="st0" d="M130.5,481.38l105.47,0.54c0,0,31.09,34.02,35.32,55.72c3.48,17.85,5.78,39.08,5.78,39.08l-87.98,6.13
			l-5.6-2.29l-6.64,3.14l-84.22-1.28c0.88-9.55,1.07-27.34,5.83-44.02C104.86,516,121.74,497.64,130.5,481.38z"/>
		<path class="st1" d="M172.97,481.6c0,0-10.71,4.55-32.91,6.62c-2.64,0.25-5.01,1.75-6.33,4.05c0,0-19.27,30.81-21.17,35.93
			l-6.45,17.34c-1.25,3.35-2.24,6.79-2.98,10.3l-5.61,26.58l-4.89,0c0.89-9.56,2.01-24.28,5.84-44.02
			c4.44-22.87,23.27-40.76,32.03-57.02L172.97,481.6z"/>
		<path class="st1" d="M277.07,576.72l-6.68,0.61l-2.68-17.46c-0.83-4.18-1.32-8.58-2.77-12.59c0,0-6.49-20.49-11.03-28.41
			c-4.54-7.93-20.07-25.71-20.07-25.71c-1.36-2.36-3.82-3.88-6.54-4.06c-25.29-1.72-36.44-7.38-36.44-7.38l45.13,0.21
			c0,0,31.09,34.02,35.32,55.72C274.78,555.5,277.07,576.72,277.07,576.72z"/>
		<path class="st2" d="M92.63,582.42c0.9-9.75,0.83-26.97,5.83-44.02c6.16-21.01,23.41-41.02,32.04-57.02l105.47,0.54
			c0,0,29.32,31.18,35.32,55.72c6,24.55,5.72,38.69,5.72,38.69"/>
		<g>
			<path class="st1" d="M184.82,569.15c-0.79,0-0.79-9.57-0.92-12.88c-0.13-3.3,0.3-19.49,0.92-19.49c0.63,0,0.95,17.31,0.95,19.41
				S185.61,569.15,184.82,569.15z"/>
			<path class="st1" d="M173.81,520.26c0,0,4.41-0.63,6.93,0.71s4.11,4.21,4.11,4.21s2.04-4.04,5.73-4.63
				c3.69-0.6,4.49-0.07,4.49-0.07s-0.31-0.7-4.3,1.47c-3.98,2.17-5.92,5.36-5.92,5.36s-2.99-3.93-5.62-5.65
				C176.6,519.94,173.81,520.26,173.81,520.26z"/>
		</g>
	</g>
	<path class="st3" d="M273.61,862.82c-0.43-2.48-3-9.12,5.15-11.88c0,0,17.1-0.82,19.99,0.84c2.05,1.17,3.52,7.24,3.52,7.24"/>
	<path class="st3" d="M93.78,862.82c0.43-2.48,3-9.12-5.15-11.88c0,0-17.1-0.82-19.99,0.84c-2.05,1.17-3.52,7.24-3.52,7.24"/>
	<g>
		
			<linearGradient id="SVGID_1_" gradientUnits="userSpaceOnUse" x1="219.5352" y1="-2.8253" x2="224.0825" y2="402.5272" gradientTransform="matrix(0.9999 -0.0172 0.0168 0.9775 -143.5078 20.1022)">
			<stop  offset="0" style="stop-color:#2E1D10"/>
			<stop  offset="1" style="stop-color:#714F28"/>
		</linearGradient>
		<path class="st4" d="M93.25,131.22c0,0-13.39,71.47-6.96,204.97c0.46,9.63,3.03,18.22,5.93,25.14c0,0-12.59-5.25-18.79-15.15
			c0,0-1.93,15.51,0.44,22.52c-13.41-5.87-29.69-18.21-32.78-43.81c-4.97-41.21-0.1-125.12,15.5-180.53c0,0,9.01-43.48,26.17-63.47
			s39.58-10.03,39.58-10.03C109.82,89.95,101.77,97.75,93.25,131.22z"/>
		<path class="st5" d="M99.02,93.59c-13.71,7.39-22.18,7.12-27.24,4.96c-7.43,15.48-11.72,31.31-13.68,39.42
			c12.8,4.85,15.07,17.11,15.07,17.11c7.52-8.54,13.59-9.71,17.43-9.13c1.49-9.76,2.65-14.72,2.65-14.72
			c2.69-8.69,4.88-17.75,8.64-26.04C97.45,99.14,99.02,93.59,99.02,93.59z"/>
		<g>
			<path class="st6" d="M79.15,85.62C42.5,141.64,36.13,283.68,41.1,324.89c3.08,25.6,19.36,37.93,32.78,43.81
				c-2.37-7-0.44-22.52-0.44-22.52c6.21,9.9,18.79,15.15,18.79,15.15c-2.9-6.92-5.47-15.51-5.93-25.14
				c-6.44-133.51,5.34-197.96,6.96-204.97c4.9-21.28,14.91-38.87,14.91-38.87"/>
		</g>
	</g>
	<g>
		
			<linearGradient id="SVGID_2_" gradientUnits="userSpaceOnUse" x1="3508.9946" y1="-24.0336" x2="3513.5417" y2="381.3188" gradientTransform="matrix(-0.9999 0.0172 1.641001e-03 1.0001 3788.1284 -25.2365)">
			<stop  offset="0" style="stop-color:#2E1D10"/>
			<stop  offset="1" style="stop-color:#714F28"/>
		</linearGradient>
		<path class="st7" d="M264.56,129.71c0,0,14.74,72.61,10.82,209.36c-0.28,9.87-2.68,18.74-5.45,25.91c0,0,12.48-5.8,18.5-16.15
			c0,0,2.22,15.8-0.02,23.04c13.3-6.47,29.34-19.65,31.94-45.94c4.19-42.32-2.26-127.95-18.9-184.07c0,0-9.82-44.15-27.35-63.99
			C256.56,58.05,234.33,69,234.33,69C247.21,88.09,257.58,108.2,264.56,129.71z"/>
		<path class="st5" d="M258.08,91.43c13.84,7.08,24.67,10.64,29.69,8.26c7.01,15.11,9.95,27.47,12.05,35.7
			c-12.7,5.4-14.74,18.02-14.74,18.02c-7.68-8.47-13.77-9.46-17.59-8.73c-2.76-17.72-9.57-31.82-13.49-40.16
			C258.32,98.18,258.08,91.43,258.08,91.43z"/>
		<g>
			<path class="st6" d="M275.92,76.06c32.87,49.75,51.05,189.11,44.43,249.89c-2.86,26.26-18.64,39.46-31.94,45.94
				c2.24-7.24,0.02-23.04,0.02-23.04c-6.02,10.34-18.5,16.15-18.5,16.15c2.77-7.17,5.17-16.05,5.45-25.91
				c3.04-106.08-5.77-173.48-8.97-198.5c-2.31-18.03-14.03-38.81-14.03-38.81"/>
		</g>
	</g>
	<g>
		
			<linearGradient id="SVGID_3_" gradientUnits="userSpaceOnUse" x1="318.9144" y1="-27.2921" x2="323.5088" y2="382.2645" gradientTransform="matrix(0.9999 -0.0172 0.0172 0.9999 -143.1257 42.3331)">
			<stop  offset="0" style="stop-color:#2E1D10"/>
			<stop  offset="1" style="stop-color:#714F28"/>
		</linearGradient>
		<path class="st8" d="M266.84,280.69c61.75-45.57,61.99-79.3,62.34-96.52s-9.07-62.68-36.3-113.52
			c-27.6-51.54-58.76-68.55-80.87-69.79s-34.77,8.68-34.77,8.68s-12.99-9.48-35.05-7.48S89.58,22.13,63.77,74.59
			c-25.47,51.75-33.33,97.5-32.38,114.7c0.95,17.2,7.37,50.54,70.65,93.96l30.51-21.52"/>
		<path class="st5" d="M327.12,164.28c-2.81-15.6-8.68-36.8-18.62-60.68c-16.51-5.26-31.82-18.49-31.82-18.49
			c-32.68,73.37-71.26,6.36-71.26,6.36c-61.42,79.72-89.84-6.36-89.84-6.36c-29.25,25.61-49.8,24.87-63.64,16.07
			c-8.69,21.75-17.34,57.38-17.34,57.38c26.95-16.56,39.28,3.95,39.28,3.95c40.43-41.92,81.8,18.49,81.8,18.49
			c31.77-52.38,94.96-10.05,94.96-10.05C271.09,148.07,302.75,154.16,327.12,164.28z"/>
		<path class="st2" d="M266.84,280.69c61.75-45.57,61.99-79.3,62.34-96.52s-9.07-62.68-36.3-113.52
			c-27.6-51.54-58.76-68.55-80.87-69.79s-34.77,8.68-34.77,8.68s-12.99-9.48-35.05-7.48S89.58,22.13,63.77,74.59
			c-25.47,51.75-33.33,97.5-32.38,114.7c0.95,17.2,5.28,49.37,68.56,92.79"/>
	</g>
	<g>
		<path class="st9" d="M132.86,709.94c0,0,0.29,21.6-5.13,52.94c-3.49,20.14-30.65,68.85-34.12,108.95
			c-2.88,25.8-34.77,21.92-25.42-11.59c2.77-41.78,10.75-144.26,16.46-153.21C90.36,698.08,126.01,678.99,132.86,709.94z"/>
		<path class="st10" d="M98.71,846.92c10.09-33.6,26.24-67.94,29.02-84.04c5.43-31.34,5.13-52.94,5.13-52.94
			c-6.85-30.96-42.51-11.87-48.22-2.91c-2.43,3.81-10.04,24.51-12.71,50.25c-3.04,29.3-1.09,65.14-2.86,90.09
			C74.23,850.06,84.19,852.89,98.71,846.92z"/>
	</g>
	<g>
		<path class="st0" d="M180.22,582.42c0,0-39.66,106.71-43.88,117.6c-4.22,10.89-14.14,26.83-33.63,26.45
			c-19.55-0.38-21.68-18.3-18.87-54.53c2.49-32.07,8.01-87.24,9.66-95.61"/>
		<path class="st1" d="M98.72,576.68L83.26,699.07c-0.34-7.48,0.06-16.52,0.88-27.12c2.49-32.07,8.01-87.24,9.66-95.61L98.72,576.68
			z"/>
		<path class="st1" d="M106.39,575.78c1.03,0.56,8.97,21.68,32.12,21.97s32.33-8.14,32.33-8.14c0.67,7.42-27.4,91.74-27.4,91.74
			l36.78-98.93l2.63-1.5l8.27,0.95l-2.64-2.26l-7.15,0.12l-2-0.12c0,0-21.45,14.01-41.01,12.72
			C118.75,591.04,106.39,575.78,106.39,575.78z"/>
		<path class="st2" d="M83.43,709.46c-0.57-7.81,0.31-23.2,1.19-37.21c2.03-32.01,7.68-87.57,8.46-96.21"/>
		<path class="st2" d="M180.22,582.42c0,0-42.04,114.06-49.06,128.01"/>
	</g>
	<g>
		<path class="st9" d="M234.53,709.94c0,0-0.29,21.6,5.13,52.94c3.49,20.14,30.65,68.85,34.12,108.95
			c2.59,23.2,34.08,19.45,25.42-11.59c-2.77-41.78-10.75-144.26-16.46-153.21C277.04,698.08,241.38,678.99,234.53,709.94z"/>
		<path class="st10" d="M268.69,846.92c-10.09-33.6-26.24-67.94-29.02-84.04c-5.43-31.34-5.13-52.94-5.13-52.94
			c6.85-30.96,42.51-11.87,48.22-2.91c2.43,3.81,10.04,24.51,12.71,50.25c3.04,29.3,1.09,65.14,2.86,90.09
			C293.16,850.06,283.2,852.89,268.69,846.92z"/>
	</g>
	<g>
		<path class="st0" d="M187.59,582.42c0,0,39.66,106.71,43.88,117.6c4.22,10.89,14.14,26.83,33.63,26.45
			c19.55-0.38,21.68-18.3,18.87-54.53c-2.49-32.07-8.01-87.24-9.66-95.61"/>
		<path class="st1" d="M270.19,576.05l14.36,123.02c0.34-7.48-0.06-16.52-0.88-27.12c-2.49-32.07-5.02-87.66-6.67-96.03
			L270.19,576.05z"/>
		<path class="st1" d="M262.2,579.14c0,0-7.27,18.29-30.42,18.76s-35.1-9.21-35.1-9.21c-0.67,7.42,27.67,92.66,27.67,92.66
			l-36.78-98.93l-0.52-1.16l-10.38,0.61l2.64-2.26c0,0,2.8-1.79,4.58-1.79s4.58,1.79,4.58,1.79l4.32,2.07
			c8.92,4.15,21.63,11.51,35.05,11.51C247.26,593.18,262.2,579.14,262.2,579.14z"/>
		<path class="st2" d="M284.38,709.46c0.57-7.81-0.31-23.2-1.19-37.21c-2.03-32.01-5.54-87.69-6.18-96.34"/>
		<path class="st2" d="M187.59,582.42c0,0,42.04,114.06,49.06,128.01"/>
	</g>
	<path class="st2" d="M180.04,582.91c0,0,0.1-2.04,3.66-2.04c3.55,0,4.08,2.04,4.08,2.04"/>
	<g>
		<path class="st11" d="M205.43,305.09c-0.25-0.2-0.5-0.43-0.73-0.68c-1.02-1.1-1.54-2.55-1.54-4.04v-42.29h-42.41v42.07
			c0,1.79-0.74,3.54-2.17,4.65c-0.13,0.1-0.27,0.2-0.41,0.28c0,0,10.27,9.65,25.09,9.65S205.43,305.09,205.43,305.09z"/>
		<path class="st2" d="M158.17,305.1c0.14-0.08,0.27-0.18,0.41-0.28c1.43-1.11,2.17-2.87,2.17-4.65v-42.07h42.41v42.29
			c0,1.48,0.52,2.94,1.54,4.04c0.23,0.25,0.48,0.48,0.73,0.68"/>
	</g>
	<linearGradient id="SVGID_4_" gradientUnits="userSpaceOnUse" x1="142.3343" y1="120.5539" x2="212.6423" y2="357.614">
		<stop  offset="0" style="stop-color:#2E1D10"/>
		<stop  offset="1" style="stop-color:#714F28"/>
	</linearGradient>
	<path class="st12" d="M138.14,256.59c0,0,34.52,25.01,44.33,25.01c9.82,0,44.33-26.39,44.33-26.39"/>
	<g>
		<g>
			
				<linearGradient id="SVGID_5_" gradientUnits="userSpaceOnUse" x1="896.3268" y1="-357.5581" x2="901.0448" y2="63.0203" gradientTransform="matrix(0.9645 -0.1859 0.2801 0.9828 -764.483 543.1371)">
				<stop  offset="0" style="stop-color:#2E1D10"/>
				<stop  offset="1" style="stop-color:#714F28"/>
			</linearGradient>
			<path class="st13" d="M118.44,368.35c0,0,1.32,4.36,1.99,9.5c0.68,5.14,1.36,10.11,4.38,15.36c0,0-4.04-1.55-6.57-7.4
				c0,0,3.13,15.87-9.74,28.6c0,0,1-5.51,0.94-11.74c-0.03-2.71-7.18,10.72-7.75,18.3c0,0-9.06-16.92-6.98-32.98
				c1.71-13.24,12.69-16.65,14.86-24.6C109.58,363.39,111.8,368.56,118.44,368.35z"/>
			<path class="st14" d="M109.48,361.41c0,0,3.01,7.44,10.49,5.33c0,0,0.62,1.44-1.23,2.67c-1.85,1.22-8.14-0.85-10-4.93
				C108.74,364.49,108.1,363.05,109.48,361.41z"/>
			
				<linearGradient id="SVGID_6_" gradientUnits="userSpaceOnUse" x1="910.3374" y1="-356.7191" x2="915.0414" y2="62.6155" gradientTransform="matrix(0.9645 -0.1859 0.2801 0.9828 -764.483 543.1371)">
				<stop  offset="0" style="stop-color:#2E1D10"/>
				<stop  offset="1" style="stop-color:#714F28"/>
			</linearGradient>
			<path class="st15" d="M110.72,351.54c0,0-3.62,5.5-1.06,10.21c2.27,4.18,5.13,4.88,5.13,4.88l3.04-7.08L110.72,351.54z"/>
			
				<linearGradient id="SVGID_7_" gradientUnits="userSpaceOnUse" x1="916.1302" y1="-359.2267" x2="920.8666" y2="62.9894" gradientTransform="matrix(0.9645 -0.1859 0.2801 0.9828 -764.483 543.1371)">
				<stop  offset="0" style="stop-color:#2E1D10"/>
				<stop  offset="1" style="stop-color:#714F28"/>
			</linearGradient>
			<path class="st16" d="M126.19,354.93c0,0,0.93,8.35-6.22,11.82c0,0-4.14,1.44-7.19-1.16c0,0,0.01-4.38,4.52-5.86
				C122.45,358.04,126.19,354.93,126.19,354.93z"/>
			
				<linearGradient id="SVGID_8_" gradientUnits="userSpaceOnUse" x1="915.8492" y1="-356.8785" x2="920.5543" y2="62.5458" gradientTransform="matrix(0.9645 -0.1859 0.2801 0.9828 -764.483 543.1371)">
				<stop  offset="0" style="stop-color:#2E1D10"/>
				<stop  offset="1" style="stop-color:#714F28"/>
			</linearGradient>
			<path class="st17" d="M111.28,337.95c0,0-3.41,6.44-1.44,11.7s5.46,8.33,6.68,10.28l5.44-11.2L111.28,337.95z"/>
			
				<linearGradient id="SVGID_9_" gradientUnits="userSpaceOnUse" x1="922.3934" y1="-360.0929" x2="927.1415" y2="63.1614" gradientTransform="matrix(0.9645 -0.1859 0.2801 0.9828 -764.483 543.1371)">
				<stop  offset="0" style="stop-color:#2E1D10"/>
				<stop  offset="1" style="stop-color:#714F28"/>
			</linearGradient>
			<path class="st18" d="M130.13,343.34c0,0-3.51,3.13-6.93,4.19s-7.63,4.52-6.67,12.39c0,0,9.61-2.37,12.27-7.81
				C130.99,347.61,130.13,343.34,130.13,343.34z"/>
			
				<linearGradient id="SVGID_10_" gradientUnits="userSpaceOnUse" x1="936.3135" y1="-361.0688" x2="941.0771" y2="63.5734" gradientTransform="matrix(0.9645 -0.1859 0.2801 0.9828 -764.483 543.1371)">
				<stop  offset="0" style="stop-color:#2E1D10"/>
				<stop  offset="1" style="stop-color:#714F28"/>
			</linearGradient>
			<path class="st19" d="M92.41,276.37c0,0-3.67,13.65,11.28,28.15c12.36,11.99,19.91,18.09,19.91,18.09s19.79-11.07,14.48-53
				S82.84,245.6,92.41,276.37z"/>
			
				<linearGradient id="SVGID_11_" gradientUnits="userSpaceOnUse" x1="942.4427" y1="-450.328" x2="948.7009" y2="107.5498" gradientTransform="matrix(0.9645 -0.1859 0.2801 0.9828 -764.483 543.1371)">
				<stop  offset="0" style="stop-color:#2E1D10"/>
				<stop  offset="1" style="stop-color:#714F28"/>
			</linearGradient>
			<path class="st20" d="M182.47,257.09c0,0-33.07,22.56-65.35,37.98c-21.35-11.05-68.19-51.92-75.91-71.1"/>
			<path class="st6" d="M117.13,295.07c0,0,10.14,7.12,8.23,20.38"/>
			
				<linearGradient id="SVGID_12_" gradientUnits="userSpaceOnUse" x1="922.1696" y1="-356.4926" x2="926.8677" y2="62.3036" gradientTransform="matrix(0.9645 -0.1859 0.2801 0.9828 -764.483 543.1371)">
				<stop  offset="0" style="stop-color:#2E1D10"/>
				<stop  offset="1" style="stop-color:#714F28"/>
			</linearGradient>
			<path class="st21" d="M108.46,323.73c0,0-1.22,6,0.99,11.6c3.79,9.59,8.51,9.73,10.87,13.66l6.55-14.31L108.46,323.73z"/>
			
				<linearGradient id="SVGID_13_" gradientUnits="userSpaceOnUse" x1="933.8369" y1="-358.8668" x2="938.567" y2="62.7828" gradientTransform="matrix(0.9645 -0.1859 0.2801 0.9828 -764.483 543.1371)">
				<stop  offset="0" style="stop-color:#2E1D10"/>
				<stop  offset="1" style="stop-color:#714F28"/>
			</linearGradient>
			<path class="st22" d="M132.97,311.21c0,0-14.15,3.88-13.68,20.01c0.26,8.81,8.23,0.82,8.23,0.82s10.46-6.2,6.08-15.89
				C131.98,312.58,132.97,311.21,132.97,311.21z"/>
			
				<linearGradient id="SVGID_14_" gradientUnits="userSpaceOnUse" x1="922.605" y1="-356.3654" x2="927.3005" y2="62.1982" gradientTransform="matrix(0.9645 -0.1859 0.2801 0.9828 -764.483 543.1371)">
				<stop  offset="0" style="stop-color:#2E1D10"/>
				<stop  offset="1" style="stop-color:#714F28"/>
			</linearGradient>
			<path class="st23" d="M103.68,304.52c0,0,0.4,9.24,3.06,16.34c2.66,7.1,13.3,14.01,15.54,17.75c2.24,3.74,1.83-4.9,1.83-4.9
				s2.09-11.3-8.27-18.8C107.57,308.93,103.68,304.52,103.68,304.52z"/>
			
				<linearGradient id="SVGID_15_" gradientUnits="userSpaceOnUse" x1="929.2431" y1="-359.2058" x2="933.9782" y2="62.8954" gradientTransform="matrix(0.9645 -0.1859 0.2801 0.9828 -764.483 543.1371)">
				<stop  offset="0" style="stop-color:#2E1D10"/>
				<stop  offset="1" style="stop-color:#714F28"/>
			</linearGradient>
			<path class="st24" d="M132.07,327.72c0,0-1.51,2.69-6.11,5.33c-7.08,4.06-6.59,11.01-5.65,15.95c0,0,9.8-2.58,12.44-9.02
				C135.5,333.25,132.07,327.72,132.07,327.72z"/>
		</g>
	</g>
	<g>
		<g>
			
				<linearGradient id="SVGID_16_" gradientUnits="userSpaceOnUse" x1="4409.6777" y1="247.5957" x2="4414.2251" y2="652.9482" gradientTransform="matrix(-0.9916 -0.1642 -0.1334 0.9864 4726.9204 497.841)">
				<stop  offset="0" style="stop-color:#2E1D10"/>
				<stop  offset="1" style="stop-color:#714F28"/>
			</linearGradient>
			<path class="st25" d="M252.85,373.24c0,0-0.69,4.22-0.63,9.19c0.06,4.96,0.09,9.75-2.17,14.88c0,0,3.82-1.58,5.51-7.26
				c0,0-0.85,15.34,13.83,27.3c0,0-1.78-5.28-2.62-11.28c-0.36-2.61,8.71,10.15,10.36,17.43c0,0,6.63-16.48,2.25-31.89
				c-3.61-12.7-15.07-15.74-18.38-23.34C261.01,368.27,259.52,373.29,252.85,373.24z"/>
			<path class="st14" d="M260.82,366.37c0,0-1.94,7.22-9.72,5.36c0,0-0.41,1.4,1.61,2.54c2.02,1.14,8.01-1,9.29-4.96
				C262,369.31,262.44,367.92,260.82,366.37z"/>
			
				<linearGradient id="SVGID_17_" gradientUnits="userSpaceOnUse" x1="4423.3711" y1="247.442" x2="4427.9185" y2="652.7946" gradientTransform="matrix(-0.9916 -0.1642 -0.1334 0.9864 4726.9204 497.841)">
				<stop  offset="0" style="stop-color:#2E1D10"/>
				<stop  offset="1" style="stop-color:#714F28"/>
			</linearGradient>
			<path class="st26" d="M258.16,356.89c0,0,4.41,5.21,2.52,9.8c-1.67,4.07-4.43,4.81-4.43,4.81l-4.05-6.75L258.16,356.89z"/>
			
				<linearGradient id="SVGID_18_" gradientUnits="userSpaceOnUse" x1="4429.1948" y1="247.3767" x2="4433.7422" y2="652.7292" gradientTransform="matrix(-0.9916 -0.1642 -0.1334 0.9864 4726.9204 497.841)">
				<stop  offset="0" style="stop-color:#2E1D10"/>
				<stop  offset="1" style="stop-color:#714F28"/>
			</linearGradient>
			<path class="st27" d="M243.19,360.5c0,0,0.27,8.06,7.91,11.23c0,0,4.35,1.29,7.02-1.27c0,0-0.64-4.21-5.36-5.54
				C247.38,363.41,243.19,360.5,243.19,360.5z"/>
			
				<linearGradient id="SVGID_19_" gradientUnits="userSpaceOnUse" x1="4428.7661" y1="247.3815" x2="4433.313" y2="652.734" gradientTransform="matrix(-0.9916 -0.1642 -0.1334 0.9864 4726.9204 497.841)">
				<stop  offset="0" style="stop-color:#2E1D10"/>
				<stop  offset="1" style="stop-color:#714F28"/>
			</linearGradient>
			<path class="st28" d="M255.65,343.83c0,0,4.33,6.12,3.12,11.22c-1.21,5.1-4.26,8.14-5.2,10.04l-7.04-10.66L255.65,343.83z"/>
			
				<linearGradient id="SVGID_20_" gradientUnits="userSpaceOnUse" x1="4435.375" y1="247.3074" x2="4439.9219" y2="652.6599" gradientTransform="matrix(-0.9916 -0.1642 -0.1334 0.9864 4726.9204 497.841)">
				<stop  offset="0" style="stop-color:#2E1D10"/>
				<stop  offset="1" style="stop-color:#714F28"/>
			</linearGradient>
			<path class="st29" d="M237.6,349.43c0,0,3.96,2.94,7.53,3.88c3.57,0.94,8.27,4.18,8.45,11.78c0,0-9.95-2.06-13.38-7.24
				C237.34,353.56,237.6,349.43,237.6,349.43z"/>
			
				<linearGradient id="SVGID_21_" gradientUnits="userSpaceOnUse" x1="4448.8955" y1="247.1557" x2="4453.4429" y2="652.5082" gradientTransform="matrix(-0.9916 -0.1642 -0.1334 0.9864 4726.9204 497.841)">
				<stop  offset="0" style="stop-color:#2E1D10"/>
				<stop  offset="1" style="stop-color:#714F28"/>
			</linearGradient>
			<path class="st30" d="M266.15,286.13c0,0,2.08,12.82-7.69,25.37c-9.77,12.55-17.3,17.85-17.3,17.85s-21.36-10.21-22.07-50.68
				C218.38,238.2,271.29,256.31,266.15,286.13z"/>
			
				<linearGradient id="SVGID_22_" gradientUnits="userSpaceOnUse" x1="4448.5396" y1="98.1385" x2="4455.3809" y2="708.0098" gradientTransform="matrix(-0.9916 -0.1642 -0.1334 0.9864 4726.9204 497.841)">
				<stop  offset="0" style="stop-color:#2E1D10"/>
				<stop  offset="1" style="stop-color:#714F28"/>
			</linearGradient>
			<path class="st31" d="M181.84,257.09c0,0,28.99,31.98,61.83,45.61c5.34-7.33,53.26-42.42,67.75-64.84"/>
			
				<linearGradient id="SVGID_23_" gradientUnits="userSpaceOnUse" x1="4445.9097" y1="247.1892" x2="4450.4565" y2="652.5417" gradientTransform="matrix(-0.9916 -0.1642 -0.1334 0.9864 4726.9204 497.841)">
				<stop  offset="0" style="stop-color:#2E1D10"/>
				<stop  offset="1" style="stop-color:#714F28"/>
			</linearGradient>
			<path class="st32" d="M246.63,299.63c0,0-12.07,10.15-8.26,22.87"/>
			
				<linearGradient id="SVGID_24_" gradientUnits="userSpaceOnUse" x1="4434.9248" y1="247.3124" x2="4439.4722" y2="652.6649" gradientTransform="matrix(-0.9916 -0.1642 -0.1334 0.9864 4726.9204 497.841)">
				<stop  offset="0" style="stop-color:#2E1D10"/>
				<stop  offset="1" style="stop-color:#714F28"/>
			</linearGradient>
			<path class="st33" d="M256.44,330.09c0,0,2.08,5.75,0.67,11.18c-2.42,9.31-7.11,9.55-8.9,13.38l-8.6-13.62L256.44,330.09z"/>
			
				<linearGradient id="SVGID_25_" gradientUnits="userSpaceOnUse" x1="4446.4897" y1="247.1827" x2="4451.0366" y2="652.5352" gradientTransform="matrix(-0.9916 -0.1642 -0.1334 0.9864 4726.9204 497.841)">
				<stop  offset="0" style="stop-color:#2E1D10"/>
				<stop  offset="1" style="stop-color:#714F28"/>
			</linearGradient>
			<path class="st34" d="M230.15,318.58c0,0,14.7,3.42,16.54,18.95c1.01,8.48-8.1,0.97-8.1,0.97s-11.34-5.74-8.35-15.15
				C231.33,319.88,230.15,318.58,230.15,318.58z"/>
			
				<linearGradient id="SVGID_26_" gradientUnits="userSpaceOnUse" x1="4435.2271" y1="247.3091" x2="4439.7744" y2="652.6616" gradientTransform="matrix(-0.9916 -0.1642 -0.1334 0.9864 4726.9204 497.841)">
				<stop  offset="0" style="stop-color:#2E1D10"/>
				<stop  offset="1" style="stop-color:#714F28"/>
			</linearGradient>
			<path class="st35" d="M258.46,311.5c0,0,0.92,8.9-0.72,15.79c-1.64,6.89-11.29,13.78-12.99,17.42c-1.7,3.64-2.53-4.68-2.53-4.68
				s-3.71-10.83,5.57-18.27C255.21,315.82,258.46,311.5,258.46,311.5z"/>
			
				<linearGradient id="SVGID_27_" gradientUnits="userSpaceOnUse" x1="4442.0869" y1="247.2321" x2="4446.6338" y2="652.5846" gradientTransform="matrix(-0.9916 -0.1642 -0.1334 0.9864 4726.9204 497.841)">
				<stop  offset="0" style="stop-color:#2E1D10"/>
				<stop  offset="1" style="stop-color:#714F28"/>
			</linearGradient>
			<path class="st36" d="M233.41,334.44c0,0,1.89,2.55,6.87,4.99c7.66,3.75,8.17,10.45,7.93,15.22c0,0-10.17-2.27-13.72-8.41
				C230.78,339.84,233.41,334.44,233.41,334.44z"/>
		</g>
	</g>
	<g>
		<path class="st37" d="M67.66,424.63c0,0,13.4-29.09,19.97-47.73c6.57-18.64,14.46-48.53,25.93-56.18
			c4.88-3.26,24.36-13.33,33.35-7.18c12.13,8.3,8.07,36.69-3.62,59.83c-20.33,40.25-39.92,91.55-59.48,89.7
			C71.32,461.88,55.24,455.01,67.66,424.63z"/>
		<path class="st11" d="M123.34,327.72c23.14-12.19,35.7-5.88,23.57-14.18c-8.99-6.15-28.47,3.92-33.35,7.18
			c-3.36,2.24-6.42,6.4-9.22,11.63c-2.22,4.14-8.13,19.19-8.13,19.19S115.38,331.91,123.34,327.72z"/>
		<path class="st2" d="M67.36,424.63c0,0,13.4-29.09,19.97-47.73c6.57-18.64,14.46-48.53,25.93-56.18
			c3.58-2.39,24.55-11.25,31.4-8.49c15.06,6.06,12.33,33.44-1.67,61.14c-20.33,40.25-39.92,91.55-59.48,89.7
			C71.02,461.88,54.94,455.01,67.36,424.63z"/>
	</g>
	<path class="st9" d="M63.91,436.78c-12.84,18.64-16.28,40.18-21.57,54.23c-5.38,14.32-16.32,48.15-16.32,48.15
		s-14.24,22.66-7.41,29.15c6.87,6.52,9.14,4.96,20.61-12.88c11.2-17.42,49.24-66.03,56.02-81.98c6.57-15.47,8.9-24.95,8.9-24.95"/>
	<g>
		<path class="st37" d="M295.21,427.65c0,0-13.4-29.09-19.97-47.73c-6.57-18.64-14.46-48.53-25.93-56.18
			c-4.88-3.26-23.72-14.43-32.7-8.28c-12.13,8.3-8.72,37.78,2.97,60.92c20.33,40.25,39.92,91.55,59.48,89.7
			C291.55,464.9,307.63,458.02,295.21,427.65z"/>
		<path class="st11" d="M231.12,331.56c-25.31,5.6-26.65-7.8-14.52-16.11c8.99-6.15,27.82,5.02,32.7,8.28
			c3.36,2.24,6.42,6.4,9.22,11.63c2.22,4.14,10,24.56,10,24.56S241.16,329.35,231.12,331.56z"/>
		<path class="st2" d="M295.5,427.65c0,0-13.4-29.09-19.97-47.73c-6.57-18.64-14.46-48.53-25.93-56.18
			c-3.58-2.39-22.84-12.83-29.68-10.07c-15.06,6.06-14.04,35.02-0.05,62.72c20.33,40.25,39.92,91.55,59.48,89.7
			C291.85,464.9,307.93,458.02,295.5,427.65z"/>
	</g>
	<g>
		<path class="st37" d="M235.65,321.55l-0.3-1.07l-1.26-4.6c0,0-28.17-9.73-30.28-12.13l-43.97-0.01c-5.19,3.53-27.44,8.9-27.44,8.9
			l-1.17,5.06l-0.27,1.15l-4.45,62.38h99.44L235.65,321.55z"/>
		<path class="st11" d="M233.42,330.08l-18.25-11.03c-5.86-3.54-12.57-5.44-19.42-5.51l-32.3-0.29c-3.49-0.03-6.95,0.62-10.18,1.92
			l-21.28,8.56l0.36-11.36c0,0,22.25-5.37,27.44-8.9l43.97,0.01c2.11,2.4,30.28,12.13,30.28,12.13L233.42,330.08z"/>
		<path class="st6" d="M203.76,303.48c2.11,2.4,30.27,12.13,30.27,12.13l-8.13,65.35h-99.43l5.82-67.85c0,0,22.32-6.12,27.51-9.64"
			/>
		<g>
			<path class="st0" d="M182.7,433.52h50.95c2.81-9.19,8.51-21.15,11.15-35.9c2.64-14.76-3.03-78.06-3.03-78.06l-10.45-4.81
				c0,0-0.59,3.12-2.12,10.21c-1.54,7.09-17,12.28-23.29,12.28l-22.37,0.71h-1.08h-24.83c-6.29,0-21.75-5.19-23.29-12.28
				c-1.54-7.09-1.94-13.03-1.94-13.03l-11.04,3.67c0,0-5.13,68.21-1.82,83.08c3.31,14.87,10,24.95,12.81,34.13h50.95H182.7z"/>
		</g>
		<path class="st1" d="M139.02,331.5l-3.78-3.78l-1.42-4.72l-13.35,6.35l-0.14,2.15c0.56-9.07,1.03-15.26,1.03-15.26l11.04-3.66
			c0,0,0.4,5.93,1.94,13.02C134.81,327.78,136.59,329.77,139.02,331.5z"/>
		<path class="st1" d="M242.76,336.36l-7.11-4.87l-7.34-4.47l-4.84,4.47c2.96-1.87,5.2-4.12,5.74-6.6
			c1.54-7.09,2.12-10.22,2.12-10.22l10.45,4.81C241.77,319.49,242.2,329.12,242.76,336.36z"/>
		<g>
			<path class="st2" d="M182.7,433.52h50.95c2.81-9.19,8.51-21.15,11.15-35.9c2.64-14.76-3.03-78.06-3.03-78.06l-10.45-4.81
				c0,0-0.59,3.12-2.12,10.21c-1.54,7.09-17,12.28-23.29,12.28l-22.37,0.71h-1.08h-24.83c-6.29,0-21.75-5.19-23.29-12.28
				c-1.54-7.09-1.94-13.03-1.94-13.03l-11.04,3.67c0,0-5.13,68.21-1.82,83.08c3.31,14.87,10,24.95,12.81,34.13h50.95H182.7z"/>
		</g>
		<path class="st9" d="M132.35,433.52c0,0,0.65,35.68-1.51,47.86h104.93c0,0-1.84-29.05-1.84-47.86H132.35z"/>
	</g>
	<g>
		<path class="st9" d="M46.93,540.77c0,0,4.23,11.6-1.8,24.16c-2.88,6.01-9.45,13.46-12.94,16.87c0,0-2.35,5.43-4.31,6.63
			c-5.23,3.19-14.11,6.31-21.73-0.34c-3.02-2.63-6.2-7.08-5.26-10.19c0.94-3.1,19.22-27.13,21.78-32.76"/>
		<path class="st9" d="M5.99,585.49c0,0,6.45,7.83,12.62,12.61c5.69,4.4,9.65,0.84,12.32-2.12s-5.14-8.55-5.14-8.55"/>
		<g>
			<path class="st9" d="M14.87,585.23c0,0,7.09,10.06,10.28,13.37s9.18,1.28,11.05-2.44c1.7-3.37,4.56-9.84,4.34-11.63
				s-2.81-8.74-2.81-8.74l-6.61,6.72"/>
			<line class="st9" x1="33.53" y1="592.38" x2="30.65" y2="580.82"/>
		</g>
	</g>
	<path class="st9" d="M298.95,439.79c12.84,18.64,16.28,40.18,21.57,54.23c5.38,14.32,16.32,48.15,16.32,48.15
		s14.24,22.66,7.41,29.15c-6.87,6.52-9.14,4.96-20.61-12.88c-11.2-17.42-49.24-66.03-56.02-81.98c-6.57-15.47-8.9-24.95-8.9-24.95"
		/>
	<g>
		<path class="st9" d="M315.94,543.78c0,0-4.23,11.6,1.8,24.16c2.88,6.01,9.45,13.46,12.94,16.87c0,0,2.35,5.43,4.31,6.63
			c5.23,3.19,14.11,6.31,21.73-0.34c3.02-2.63,6.2-7.08,5.26-10.19c-0.94-3.1-19.22-27.13-21.78-32.76"/>
		<path class="st9" d="M356.88,588.51c0,0-6.45,7.83-12.62,12.61c-5.69,4.4-9.65,0.84-12.32-2.12c-2.67-2.96,5.14-8.55,5.14-8.55"/>
		<g>
			<path class="st9" d="M348,588.25c0,0-7.09,10.06-10.28,13.37c-3.2,3.31-9.18,1.28-11.05-2.44c-1.7-3.37-4.56-9.84-4.34-11.63
				c0.22-1.79,2.81-8.74,2.81-8.74l6.61,6.72"/>
			<line class="st9" x1="329.34" y1="595.39" x2="332.22" y2="583.83"/>
		</g>
	</g>
	<g>
		<path class="st3" d="M102.76,897.61L102.76,897.61L102.76,897.61c-0.32-11.48-1.79-28.11-1.46-29.77c0.52-2.61-0.8-8.97-4.59-8.43
			c0,0-7.24,4.38-14.41,4.23c-7.05-0.14-18.02-5.21-19.37-4.4c-1.94,1.15-3.08,3.12-3.08,3.12L45,880.9
			c-5.51,4.27-9.9,2.42-9.67,23.41c0.01,1.3,0.52,2.51,1.39,3.31c2.37,2.17,10.77,4.64,21.53,5.92c15,1.79,26.88-0.04,26.88-0.04
			s16.55-0.7,17.34-2.79C102.75,909.96,102.95,904.21,102.76,897.61z"/>
		<path class="st3" d="M102.44,910.72"/>
		<path class="st3" d="M35.39,898.82c0,0,11.15,6.64,31.5,7.62c20.35,0.99,35.71-3.92,35.71-3.92"/>
	</g>
	<g>
		<path class="st3" d="M264.63,897.61L264.63,897.61L264.63,897.61c0.32-11.48,1.79-28.11,1.46-29.77c-0.52-2.61,0.8-8.97,4.59-8.43
			c0,0,7.24,4.38,14.41,4.23c7.05-0.14,18.02-5.21,19.37-4.4c1.94,1.15,3.08,3.12,3.08,3.12l14.86,18.55
			c5.51,4.27,9.9,2.42,9.67,23.41c-0.01,1.3-0.52,2.51-1.39,3.31c-2.37,2.17-10.77,4.64-21.53,5.92c-15,1.79-26.88-0.04-26.88-0.04
			s-16.55-0.7-17.34-2.79C264.65,909.96,264.44,904.21,264.63,897.61z"/>
		<path class="st3" d="M264.96,910.72"/>
		<path class="st3" d="M332.01,898.82c0,0-11.15,6.64-31.5,7.62c-20.35,0.99-35.71-3.92-35.71-3.92"/>
	</g>
</g>
</svg>
