<svg width="24" height="24" viewBox="0 0 24 24" fill="none" xmlns="http://www.w3.org/2000/svg">
<g id="74c62f50-67de-11ee-8010-efb062bae305.svg">
<path id="Vector" d="M22.4409 6.57194C22.3663 6.33923 22.2243 6.13391 22.0328 5.98202C21.8414 5.83014 21.6091 5.73853 21.3656 5.71881L17.8762 5.4235L16.515 2.25006C16.4189 2.02758 16.2597 1.8381 16.0572 1.70498C15.8548 1.57185 15.6177 1.50092 15.3754 1.50092C15.1331 1.50092 14.896 1.57185 14.6935 1.70498C14.4911 1.8381 14.3319 2.02758 14.2359 2.25006L12.8746 5.42444L9.38433 5.71881C9.14193 5.73827 8.91078 5.82908 8.71998 5.97977C8.52918 6.13046 8.3872 6.33429 8.31213 6.56554C8.23705 6.79679 8.2321 7.0451 8.29795 7.27915C8.3638 7.5132 8.49745 7.72253 8.6821 7.8807L11.3221 10.1307L10.5318 13.4804C10.4763 13.7152 10.491 13.9611 10.5744 14.1875C10.6578 14.4139 10.806 14.6108 11.0006 14.7535C11.1974 14.8981 11.4325 14.9814 11.6765 14.993C11.9204 15.0047 12.1624 14.9442 12.3721 14.8191L15.3721 13.0379L18.3721 14.8191C18.5819 14.9442 18.8238 15.0047 19.0678 14.993C19.3117 14.9814 19.5468 14.8981 19.7437 14.7535C19.9383 14.6109 20.0866 14.414 20.17 14.1876C20.2533 13.9612 20.2681 13.7152 20.2125 13.4804L19.4221 10.1307L22.0612 7.8807C22.2469 7.72463 22.3821 7.51695 22.4497 7.28396C22.5174 7.05098 22.5143 6.80316 22.4409 6.57194ZM18.329 9.1032C18.1563 9.24953 18.0275 9.44093 17.957 9.6561C17.8865 9.8712 17.877 10.1018 17.9296 10.322L18.615 13.2282L16.0106 11.6804C15.8184 11.5658 15.5987 11.5053 15.375 11.5053C15.1512 11.5053 14.9316 11.5658 14.7393 11.6804L12.135 13.2188L12.8202 10.3126C12.8736 10.0925 12.8646 9.86182 12.7943 9.64658C12.7239 9.43125 12.5949 9.23985 12.4218 9.09383L10.1475 7.16069L13.1559 6.90569C13.3791 6.88695 13.5931 6.80777 13.7748 6.67662C13.9565 6.54548 14.0991 6.36734 14.1871 6.16131L15.375 3.39756L16.56 6.16131C16.6482 6.36722 16.7908 6.54525 16.9725 6.67637C17.1541 6.80749 17.3679 6.88675 17.5912 6.90569L20.5996 7.16069L18.329 9.1032ZM8.03058 11.7807L2.78056 17.0307C2.63983 17.1714 2.44895 17.2505 2.24993 17.2505C2.0509 17.2505 1.86004 17.1714 1.71931 17.0307C1.57858 16.8899 1.49951 16.699 1.49951 16.5001C1.49951 16.301 1.57858 16.1102 1.71931 15.9694L6.96931 10.7194C7.11004 10.5787 7.3009 10.4996 7.49995 10.4996C7.69893 10.4996 7.8898 10.5787 8.03058 10.7194C8.17128 10.8602 8.25033 11.051 8.25033 11.2501C8.25033 11.4491 8.17128 11.6399 8.03058 11.7807ZM9.53058 17.0307L4.28056 22.2807C4.21087 22.3504 4.12815 22.4056 4.0371 22.4434C3.94606 22.4811 3.84847 22.5005 3.74993 22.5005C3.65138 22.5005 3.5538 22.4811 3.46276 22.4434C3.37171 22.4056 3.28899 22.3504 3.21931 22.2807C3.14962 22.211 3.09435 22.1283 3.05663 22.0373C3.01892 21.9462 2.99951 21.8486 2.99951 21.7501C2.99951 21.6515 3.01892 21.554 3.05663 21.4629C3.09435 21.3719 3.14962 21.2891 3.21931 21.2194L8.46933 15.9694C8.61003 15.8287 8.8009 15.7496 8.99995 15.7496C9.19893 15.7496 9.3898 15.8287 9.53058 15.9694C9.67128 16.1102 9.75033 16.301 9.75033 16.5001C9.75033 16.699 9.67128 16.8899 9.53058 17.0307ZM16.2806 15.9694C16.3503 16.0391 16.4056 16.1218 16.4433 16.2128C16.4811 16.3039 16.5006 16.4015 16.5006 16.5001C16.5006 16.5986 16.4811 16.6962 16.4433 16.7872C16.4056 16.8783 16.3503 16.961 16.2806 17.0307L11.0306 22.2807C10.9609 22.3504 10.8782 22.4056 10.7871 22.4434C10.6961 22.4811 10.5985 22.5005 10.5 22.5005C10.4014 22.5005 10.3038 22.4811 10.2128 22.4434C10.1217 22.4056 10.039 22.3504 9.96933 22.2807C9.89965 22.211 9.84438 22.1283 9.80665 22.0373C9.76893 21.9462 9.7495 21.8486 9.7495 21.7501C9.7495 21.6515 9.76893 21.554 9.80665 21.4629C9.84438 21.3719 9.89965 21.2891 9.96933 21.2194L15.2193 15.9694C15.2889 15.8997 15.3717 15.8444 15.4627 15.8066C15.5538 15.7689 15.6514 15.7495 15.75 15.7495C15.8485 15.7495 15.9461 15.7689 16.0371 15.8066C16.1282 15.8444 16.2109 15.8997 16.2806 15.9694Z" fill="#343330"/>
</g>
</svg>
