<svg xmlns="http://www.w3.org/2000/svg" width="16" height="17" viewBox="0 0 16 17" fill="none">
    <g clip-path="url(#clip0_1_49)">
        <path d="M5.0625 2.72998C5.01042 2.70915 4.95833 2.69092 4.90625 2.67529C4.85417 2.65967 4.79688 2.65186 4.73438 2.65186C4.60938 2.65186 4.49479 2.6805 4.39062 2.73779C4.28646 2.79508 4.20833 2.87581 4.15625 2.97998C4.125 3.03206 4.10156 3.08415 4.08594 3.13623C4.07031 3.18831 4.0625 3.24561 4.0625 3.30811C4.0625 3.43311 4.09375 3.54769 4.15625 3.65186C4.21875 3.75602 4.29688 3.83415 4.39062 3.88623L10.9375 7.66748C10.9896 7.68831 11.0443 7.70654 11.1016 7.72217C11.1589 7.73779 11.2188 7.74561 11.2812 7.74561C11.3958 7.74561 11.5052 7.71696 11.6094 7.65967C11.7135 7.60238 11.7917 7.52165 11.8438 7.41748H11.8594C11.8802 7.37581 11.8984 7.32633 11.9141 7.26904C11.9297 7.21175 11.9375 7.15186 11.9375 7.08936C11.9375 6.96436 11.9089 6.85238 11.8516 6.75342C11.7943 6.65446 11.7135 6.57373 11.6094 6.51123L5.0625 2.72998ZM8 1.04248C7.8125 1.04248 7.6276 1.06592 7.44531 1.11279C7.26302 1.15967 7.09375 1.22998 6.9375 1.32373L1.84375 4.22998C1.6875 4.32373 1.54167 4.43831 1.40625 4.57373C1.27083 4.70915 1.16146 4.85498 1.07812 5.01123C0.984375 5.16748 0.911458 5.33675 0.859375 5.51904C0.807292 5.70133 0.78125 5.88623 0.78125 6.07373V11.8862C0.78125 12.0737 0.807292 12.2586 0.859375 12.4409C0.911458 12.6232 0.984375 12.7925 1.07812 12.9487C1.16146 13.105 1.27083 13.2508 1.40625 13.3862C1.54167 13.5216 1.6875 13.6362 1.84375 13.73L6.9375 16.6362C7.09375 16.73 7.26302 16.8003 7.44531 16.8472C7.6276 16.894 7.8125 16.9175 8 16.9175C8.1875 16.9175 8.36979 16.894 8.54688 16.8472C8.72396 16.8003 8.89583 16.73 9.0625 16.6362L14.1562 13.73C14.3125 13.6362 14.4557 13.5216 14.5859 13.3862C14.7161 13.2508 14.8281 13.105 14.9219 12.9487C15.0156 12.7925 15.0859 12.6232 15.1328 12.4409C15.1797 12.2586 15.2083 12.0737 15.2188 11.8862V6.07373C15.2083 5.88623 15.1797 5.70133 15.1328 5.51904C15.0859 5.33675 15.0156 5.16748 14.9219 5.01123C14.8281 4.85498 14.7161 4.70915 14.5859 4.57373C14.4557 4.43831 14.3125 4.32373 14.1562 4.22998C14.1562 4.22998 14.151 4.22998 14.1406 4.22998L9.0625 1.32373C8.89583 1.22998 8.72396 1.15967 8.54688 1.11279C8.36979 1.06592 8.1875 1.04248 8 1.04248ZM8 2.37061C8.0625 2.37061 8.1276 2.38102 8.19531 2.40186C8.26302 2.42269 8.32812 2.44873 8.39062 2.47998L13.4844 5.38623C13.5469 5.4279 13.6016 5.47217 13.6484 5.51904C13.6953 5.56592 13.7344 5.62061 13.7656 5.68311C13.8073 5.73519 13.8359 5.79508 13.8516 5.86279C13.8672 5.9305 13.875 6.00081 13.875 6.07373V11.8862C13.875 11.9591 13.8672 12.0295 13.8516 12.0972C13.8359 12.1649 13.8073 12.2248 13.7656 12.2769C13.7344 12.3394 13.6953 12.394 13.6484 12.4409C13.6016 12.4878 13.5469 12.5321 13.4844 12.5737L8.39062 15.48C8.32812 15.5112 8.26302 15.5373 8.19531 15.5581C8.1276 15.5789 8.0625 15.5894 8 15.5894C7.92708 15.5894 7.85677 15.5789 7.78906 15.5581C7.72135 15.5373 7.66146 15.5112 7.60938 15.48C7.60938 15.48 7.60417 15.48 7.59375 15.48L2.51562 12.5737C2.45312 12.5321 2.39844 12.4878 2.35156 12.4409C2.30469 12.394 2.26042 12.3394 2.21875 12.2769C2.1875 12.2248 2.16406 12.1649 2.14844 12.0972C2.13281 12.0295 2.125 11.9591 2.125 11.8862V6.07373C2.125 6.00081 2.13281 5.9305 2.14844 5.86279C2.16406 5.79508 2.1875 5.73519 2.21875 5.68311C2.26042 5.62061 2.30469 5.56592 2.35156 5.51904C2.39844 5.47217 2.45312 5.4279 2.51562 5.38623L7.59375 2.47998C7.60417 2.47998 7.60938 2.47998 7.60938 2.47998C7.66146 2.44873 7.72135 2.42269 7.78906 2.40186C7.85677 2.38102 7.92708 2.37061 8 2.37061ZM1.48438 4.66748C1.39062 4.68831 1.3099 4.72738 1.24219 4.78467C1.17448 4.84196 1.11979 4.90706 1.07812 4.97998C1.04688 5.03206 1.02344 5.08415 1.00781 5.13623C0.992188 5.18831 0.984375 5.24561 0.984375 5.30811C0.984375 5.43311 1.01562 5.54769 1.07812 5.65186C1.14062 5.75602 1.21875 5.83415 1.3125 5.88623L7.67188 9.55811C7.71354 9.58936 7.76302 9.61279 7.82031 9.62842C7.8776 9.64404 7.9375 9.65186 8 9.65186C8.0625 9.65186 8.1224 9.64404 8.17969 9.62842C8.23698 9.61279 8.29167 9.58936 8.34375 9.55811H8.32812L14.6875 5.88623C14.7812 5.83415 14.8594 5.75602 14.9219 5.65186C14.9844 5.54769 15.0156 5.43311 15.0156 5.30811C15.0156 5.24561 15.0078 5.18831 14.9922 5.13623C14.9766 5.08415 14.9531 5.03206 14.9219 4.97998C14.8698 4.87581 14.7917 4.79508 14.6875 4.73779C14.5833 4.6805 14.4688 4.65186 14.3438 4.65186C14.2812 4.65186 14.224 4.65967 14.1719 4.67529C14.1198 4.69092 14.0677 4.70915 14.0156 4.72998L8 8.21436L1.98438 4.72998C1.93229 4.70915 1.88021 4.69092 1.82812 4.67529C1.77604 4.65967 1.71875 4.65186 1.65625 4.65186C1.625 4.65186 1.59375 4.65186 1.5625 4.65186C1.53125 4.65186 1.5 4.65706 1.46875 4.66748H1.48438ZM8 8.30811C7.8125 8.30811 7.65365 8.37321 7.52344 8.50342C7.39323 8.63363 7.32812 8.79248 7.32812 8.97998V16.3081C7.32812 16.4956 7.39323 16.6545 7.52344 16.7847C7.65365 16.9149 7.8125 16.98 8 16.98C8.1875 16.98 8.34635 16.9149 8.47656 16.7847C8.60677 16.6545 8.67188 16.4956 8.67188 16.3081V8.97998C8.67188 8.79248 8.60677 8.63363 8.47656 8.50342C8.34635 8.37321 8.1875 8.30811 8 8.30811Z" fill="#303033" />
    </g>
    <defs>
        <clipPath id="clip0_1_49">
            <rect width="18" height="18" fill="white" transform="matrix(1 0 0 -1 0 16.98)" />
        </clipPath>
    </defs>
</svg>