<svg xmlns="http://www.w3.org/2000/svg" width="18" height="18" viewBox="0 0 18 18" fill="none">
<path d="M13.8867 9.07031L10.2656 7.73438L8.92969 4.11328C8.89453 3.99609 8.8418 3.89355 8.77148 3.80566C8.70117 3.71777 8.61914 3.63867 8.52539 3.56836C8.43164 3.50977 8.3291 3.46289 8.21777 3.42773C8.10645 3.39258 7.99219 3.375 7.875 3.375C7.75781 3.375 7.64648 3.39258 7.54102 3.42773C7.43555 3.46289 7.33594 3.50977 7.24219 3.56836C7.14844 3.63867 7.06641 3.71777 6.99609 3.80566C6.92578 3.89355 6.86719 3.99609 6.82031 4.11328L5.48438 7.73438L1.86328 9.07031C1.75781 9.10547 1.6582 9.1582 1.56445 9.22852C1.4707 9.29883 1.38867 9.38086 1.31836 9.47461C1.25977 9.56836 1.21289 9.6709 1.17773 9.78223C1.14258 9.89355 1.125 10.0078 1.125 10.125C1.125 10.2422 1.14258 10.3535 1.17773 10.459C1.21289 10.5645 1.25977 10.6641 1.31836 10.7578C1.38867 10.8516 1.4707 10.9336 1.56445 11.0039C1.6582 11.0742 1.75781 11.1328 1.86328 11.1797L5.48438 12.5156L6.82031 16.1367C6.85547 16.2539 6.9082 16.3564 6.97852 16.4443C7.04883 16.5322 7.13086 16.6113 7.22461 16.6816C7.31836 16.7402 7.4209 16.7871 7.53223 16.8223C7.64355 16.8574 7.75781 16.875 7.875 16.875C7.99219 16.875 8.10352 16.8574 8.20898 16.8223C8.31445 16.7871 8.41406 16.7402 8.50781 16.6816C8.60156 16.6113 8.68359 16.5322 8.75391 16.4443C8.82422 16.3564 8.88281 16.2539 8.92969 16.1367L10.2656 12.5156L13.8867 11.1797C13.9922 11.1445 14.0918 11.0918 14.1855 11.0215C14.2793 10.9512 14.3555 10.8691 14.4141 10.7754C14.4844 10.6816 14.5371 10.5791 14.5723 10.4678C14.6074 10.3564 14.625 10.2422 14.625 10.125C14.625 10.0195 14.6074 9.91113 14.5723 9.7998C14.5371 9.68848 14.4844 9.58594 14.4141 9.49219C14.3555 9.39844 14.2793 9.31641 14.1855 9.24609C14.0918 9.17578 13.9922 9.12305 13.8867 9.08789V9.07031ZM9.87891 11.4609C9.79688 11.4844 9.7207 11.5195 9.65039 11.5664C9.58008 11.6133 9.52148 11.666 9.47461 11.7246C9.41602 11.7832 9.36328 11.8447 9.31641 11.9092C9.26953 11.9736 9.23438 12.0469 9.21094 12.1289L7.875 15.75L6.53906 12.1289C6.51562 12.0469 6.48047 11.9736 6.43359 11.9092C6.38672 11.8447 6.33398 11.7832 6.27539 11.7246C6.2168 11.666 6.15527 11.6133 6.09082 11.5664C6.02637 11.5195 5.95312 11.4844 5.87109 11.4609L2.26758 10.125L5.87109 8.78906C5.95312 8.76562 6.02637 8.73047 6.09082 8.68359C6.15527 8.63672 6.2168 8.58398 6.27539 8.52539C6.33398 8.4668 6.38672 8.40527 6.43359 8.34082C6.48047 8.27637 6.51562 8.20312 6.53906 8.12109L7.875 4.51758L9.21094 8.12109C9.23438 8.20312 9.26953 8.2793 9.31641 8.34961C9.36328 8.41992 9.41602 8.47852 9.47461 8.52539C9.5332 8.58398 9.59473 8.63672 9.65918 8.68359C9.72363 8.73047 9.79688 8.76562 9.87891 8.78906L13.5 10.125L9.87891 11.4609ZM10.125 2.8125C10.125 2.74219 10.1396 2.67188 10.1689 2.60156C10.1982 2.53125 10.2363 2.4668 10.2832 2.4082C10.3418 2.36133 10.4062 2.32324 10.4766 2.29395C10.5469 2.26465 10.6172 2.25 10.6875 2.25H11.8125V1.125C11.8125 1.05469 11.8271 0.984375 11.8564 0.914062C11.8857 0.84375 11.9238 0.779297 11.9707 0.720703C12.0293 0.673828 12.0938 0.635742 12.1641 0.606445C12.2344 0.577148 12.3047 0.5625 12.375 0.5625C12.4453 0.5625 12.5156 0.577148 12.5859 0.606445C12.6562 0.635742 12.7207 0.673828 12.7793 0.720703C12.8262 0.779297 12.8643 0.84375 12.8936 0.914062C12.9229 0.984375 12.9375 1.05469 12.9375 1.125V2.25H14.0625C14.1328 2.25 14.2031 2.26465 14.2734 2.29395C14.3438 2.32324 14.4082 2.36133 14.4668 2.4082C14.5137 2.4668 14.5518 2.53125 14.5811 2.60156C14.6104 2.67188 14.625 2.74219 14.625 2.8125C14.625 2.88281 14.6104 2.95312 14.5811 3.02344C14.5518 3.09375 14.5137 3.1582 14.4668 3.2168C14.4082 3.26367 14.3438 3.30176 14.2734 3.33105C14.2031 3.36035 14.1328 3.375 14.0625 3.375H12.9375V4.5C12.9375 4.57031 12.9229 4.64062 12.8936 4.71094C12.8643 4.78125 12.8262 4.8457 12.7793 4.9043C12.7207 4.95117 12.6562 4.98926 12.5859 5.01855C12.5156 5.04785 12.4453 5.0625 12.375 5.0625C12.3047 5.0625 12.2344 5.04785 12.1641 5.01855C12.0938 4.98926 12.0293 4.95117 11.9707 4.9043C11.9238 4.8457 11.8857 4.78125 11.8564 4.71094C11.8271 4.64062 11.8125 4.57031 11.8125 4.5V3.375H10.6875C10.6172 3.375 10.5469 3.36035 10.4766 3.33105C10.4062 3.30176 10.3418 3.26367 10.2832 3.2168C10.2363 3.1582 10.1982 3.09375 10.1689 3.02344C10.1396 2.95312 10.125 2.88281 10.125 2.8125ZM17.4375 6.1875C17.4375 6.25781 17.4229 6.32812 17.3936 6.39844C17.3643 6.46875 17.3262 6.5332 17.2793 6.5918C17.2207 6.63867 17.1562 6.67676 17.0859 6.70605C17.0156 6.73535 16.9453 6.75 16.875 6.75H16.3125V7.3125C16.3125 7.38281 16.2979 7.45312 16.2686 7.52344C16.2393 7.59375 16.2012 7.6582 16.1543 7.7168C16.0957 7.76367 16.0312 7.80176 15.9609 7.83105C15.8906 7.86035 15.8203 7.875 15.75 7.875C15.6797 7.875 15.6094 7.86035 15.5391 7.83105C15.4688 7.80176 15.4043 7.76367 15.3457 7.7168C15.2988 7.6582 15.2607 7.59375 15.2314 7.52344C15.2021 7.45312 15.1875 7.38281 15.1875 7.3125V6.75H14.625C14.5547 6.75 14.4844 6.73535 14.4141 6.70605C14.3438 6.67676 14.2793 6.63867 14.2207 6.5918C14.1738 6.5332 14.1357 6.46875 14.1064 6.39844C14.0771 6.32812 14.0625 6.25781 14.0625 6.1875C14.0625 6.11719 14.0771 6.04688 14.1064 5.97656C14.1357 5.90625 14.1738 5.8418 14.2207 5.7832C14.2793 5.73633 14.3438 5.69824 14.4141 5.66895C14.4844 5.63965 14.5547 5.625 14.625 5.625H15.1875V5.0625C15.1875 4.99219 15.2021 4.92188 15.2314 4.85156C15.2607 4.78125 15.2988 4.7168 15.3457 4.6582C15.4043 4.61133 15.4688 4.57324 15.5391 4.54395C15.6094 4.51465 15.6797 4.5 15.75 4.5C15.8203 4.5 15.8906 4.51465 15.9609 4.54395C16.0312 4.57324 16.0957 4.61133 16.1543 4.6582C16.2012 4.7168 16.2393 4.78125 16.2686 4.85156C16.2979 4.92188 16.3125 4.99219 16.3125 5.0625V5.625H16.875C16.9453 5.625 17.0156 5.63965 17.0859 5.66895C17.1562 5.69824 17.2207 5.73633 17.2793 5.7832C17.3262 5.8418 17.3643 5.90625 17.3936 5.97656C17.4229 6.04688 17.4375 6.11719 17.4375 6.1875Z" fill="#303033"/>
</svg>