<svg width="16" height="17" viewBox="0 0 16 17" fill="none" xmlns="http://www.w3.org/2000/svg">
<g id="Link" clip-path="url(#clip0_10_1113)">
<path id="Vector" d="M13.5469 3.18604C13.026 2.95687 12.4922 2.75635 11.9453 2.58447C11.3984 2.4126 10.8438 2.27979 10.2813 2.18604C10.2813 2.18604 10.2787 2.18604 10.2734 2.18604C10.2682 2.18604 10.2604 2.18604 10.25 2.18604C10.25 2.18604 10.2474 2.18864 10.2422 2.19385C10.237 2.19906 10.2344 2.20166 10.2344 2.20166C10.1615 2.32666 10.0885 2.46468 10.0156 2.61572C9.94271 2.76676 9.88021 2.90999 9.82813 3.04541C9.22396 2.95166 8.61459 2.90479 8.00001 2.90479C7.38542 2.90479 6.77605 2.95166 6.17188 3.04541C6.10938 2.89958 6.04428 2.75635 5.97657 2.61572C5.90886 2.4751 5.83855 2.33708 5.76563 2.20166C5.75521 2.20166 5.75001 2.19906 5.75001 2.19385C5.75001 2.18864 5.7448 2.18604 5.73438 2.18604C5.73438 2.18604 5.73178 2.18604 5.72657 2.18604C5.72136 2.18604 5.71355 2.18604 5.70313 2.18604C5.14063 2.27979 4.58855 2.4126 4.04688 2.58447C3.50521 2.75635 2.97396 2.95687 2.45313 3.18604C2.44271 3.19645 2.43751 3.20166 2.43751 3.20166C2.43751 3.20166 2.43751 3.20687 2.43751 3.21729C1.91667 3.98812 1.48438 4.75374 1.14063 5.51416C0.807298 6.28499 0.549485 7.05062 0.367194 7.81104C0.184902 8.57145 0.0729228 9.32666 0.0312561 10.0767C-0.0104106 10.8267 6.10575e-06 11.5715 0.0625061 12.311C0.0625061 12.3215 0.0625061 12.3267 0.0625061 12.3267C0.0625061 12.3267 0.0677144 12.3319 0.0781311 12.3423C0.0781311 12.3423 0.0781311 12.3449 0.0781311 12.3501C0.0781311 12.3553 0.0833394 12.3579 0.0937561 12.3579C0.697923 12.8058 1.33334 13.1991 2.00001 13.5376C2.66667 13.8761 3.35938 14.1548 4.07813 14.3735C4.08855 14.3735 4.09636 14.3735 4.10157 14.3735C4.10678 14.3735 4.10938 14.3735 4.10938 14.3735C4.1198 14.3735 4.12761 14.3709 4.13282 14.3657C4.13803 14.3605 4.14063 14.3579 4.14063 14.3579C4.29688 14.1496 4.44271 13.9334 4.57813 13.7095C4.71355 13.4855 4.83855 13.259 4.95313 13.0298C4.95313 13.0298 4.95313 13.0272 4.95313 13.022C4.95313 13.0168 4.95834 13.0142 4.96876 13.0142C4.96876 13.0037 4.96615 12.9985 4.96094 12.9985C4.95574 12.9985 4.95313 12.9933 4.95313 12.9829C4.95313 12.9829 4.95313 12.9803 4.95313 12.9751C4.95313 12.9699 4.95313 12.9673 4.95313 12.9673C4.94271 12.9673 4.93751 12.9647 4.93751 12.9595C4.93751 12.9543 4.9323 12.9517 4.92188 12.9517C4.71355 12.8683 4.50521 12.7772 4.29688 12.6782C4.08855 12.5793 3.88542 12.4725 3.68751 12.3579C3.67709 12.3579 3.67188 12.3579 3.67188 12.3579C3.67188 12.3579 3.66667 12.3527 3.65626 12.3423C3.65626 12.3423 3.65626 12.3397 3.65626 12.3345C3.65626 12.3293 3.65626 12.3267 3.65626 12.3267C3.65626 12.3162 3.65626 12.3084 3.65626 12.3032C3.65626 12.298 3.65626 12.2954 3.65626 12.2954C3.65626 12.2954 3.65886 12.2928 3.66407 12.2876C3.66928 12.2824 3.67188 12.2798 3.67188 12.2798C3.71355 12.2485 3.75521 12.2173 3.79688 12.186C3.83855 12.1548 3.88021 12.1183 3.92188 12.0767C3.92188 12.0767 3.92449 12.0767 3.92969 12.0767C3.9349 12.0767 3.94271 12.0767 3.95313 12.0767C3.95313 12.0767 3.95574 12.0767 3.96094 12.0767C3.96615 12.0767 3.96876 12.0767 3.96876 12.0767C4.62501 12.3787 5.29167 12.6027 5.96876 12.7485C6.64584 12.8944 7.32553 12.9673 8.00782 12.9673C8.69011 12.9673 9.36459 12.8944 10.0313 12.7485C10.7083 12.6027 11.3698 12.3787 12.0156 12.0767C12.0156 12.0767 12.0182 12.0767 12.0234 12.0767C12.0287 12.0767 12.0365 12.0767 12.0469 12.0767C12.0469 12.0767 12.0495 12.0767 12.0547 12.0767C12.0599 12.0767 12.0625 12.0767 12.0625 12.0767C12.1042 12.1079 12.1458 12.1418 12.1875 12.1782C12.2292 12.2147 12.2708 12.2485 12.3125 12.2798C12.3229 12.2798 12.3281 12.2824 12.3281 12.2876C12.3281 12.2928 12.3281 12.2954 12.3281 12.2954C12.3281 12.2954 12.3307 12.298 12.3359 12.3032C12.3412 12.3084 12.3438 12.3162 12.3438 12.3267C12.3438 12.3267 12.3412 12.3293 12.3359 12.3345C12.3307 12.3397 12.3281 12.3423 12.3281 12.3423C12.3281 12.3423 12.3255 12.3449 12.3203 12.3501C12.3151 12.3553 12.3125 12.3579 12.3125 12.3579C12.1146 12.4725 11.9115 12.5793 11.7031 12.6782C11.4948 12.7772 11.2813 12.8683 11.0625 12.9517C11.0625 12.9517 11.0599 12.9543 11.0547 12.9595C11.0495 12.9647 11.0469 12.9673 11.0469 12.9673C11.0469 12.9673 11.0443 12.9699 11.0391 12.9751C11.0339 12.9803 11.0313 12.9829 11.0313 12.9829C11.0313 12.9933 11.0313 12.9985 11.0313 12.9985C11.0313 12.9985 11.0313 13.0037 11.0313 13.0142C11.0313 13.0142 11.0313 13.0168 11.0313 13.022C11.0313 13.0272 11.0313 13.0298 11.0313 13.0298C11.1563 13.259 11.2865 13.4855 11.4219 13.7095C11.5573 13.9334 11.7031 14.1496 11.8594 14.3579C11.8594 14.3579 11.862 14.3605 11.8672 14.3657C11.8724 14.3709 11.875 14.3735 11.875 14.3735C11.8854 14.3735 11.8932 14.3735 11.8984 14.3735C11.9037 14.3735 11.9063 14.3735 11.9063 14.3735C12.625 14.1548 13.3203 13.8761 13.9922 13.5376C14.6641 13.1991 15.3021 12.8058 15.9063 12.3579C15.9167 12.3579 15.9219 12.3553 15.9219 12.3501C15.9219 12.3449 15.9219 12.3423 15.9219 12.3423C15.9219 12.3319 15.9245 12.3267 15.9297 12.3267C15.9349 12.3267 15.9375 12.3215 15.9375 12.311C16.0208 11.4569 16.026 10.6235 15.9531 9.81104C15.8906 9.00895 15.7578 8.2277 15.5547 7.46729C15.3516 6.70687 15.0833 5.97249 14.75 5.26416C14.4167 4.55583 14.0208 3.87354 13.5625 3.21729C13.5625 3.20687 13.5599 3.20166 13.5547 3.20166C13.5495 3.20166 13.5469 3.19645 13.5469 3.18604ZM5.34376 10.4985C4.94792 10.4985 4.60938 10.3423 4.32813 10.0298C4.04688 9.71729 3.90626 9.33708 3.90626 8.88916C3.90626 8.44124 4.04688 8.06104 4.32813 7.74854C4.60938 7.43604 4.94792 7.27979 5.34376 7.27979C5.75001 7.27979 6.09376 7.43864 6.37501 7.75635C6.65626 8.07406 6.79167 8.45166 6.78126 8.88916C6.78126 9.33708 6.64324 9.71729 6.36719 10.0298C6.09115 10.3423 5.75001 10.4985 5.34376 10.4985ZM10.6563 10.4985C10.2708 10.4985 9.9349 10.3423 9.64844 10.0298C9.36199 9.71729 9.21876 9.33708 9.21876 8.88916C9.21876 8.44124 9.35938 8.06104 9.64063 7.74854C9.92188 7.43604 10.2604 7.27979 10.6563 7.27979C11.0625 7.27979 11.4063 7.43864 11.6875 7.75635C11.9688 8.07406 12.1042 8.45166 12.0938 8.88916C12.0938 9.33708 11.9557 9.71729 11.6797 10.0298C11.4037 10.3423 11.0625 10.4985 10.6563 10.4985Z" fill="#303033"/>
</g>
<defs>
<clipPath id="clip0_10_1113">
<rect width="16" height="16" fill="white" transform="matrix(1 0 0 -1 0 16.2798)"/>
</clipPath>
</defs>
</svg>
