<svg width="16" height="17" viewBox="0 0 16 17" fill="none" xmlns="http://www.w3.org/2000/svg">
<g id="Link" clip-path="url(#clip0_10_1104)">
<path id="Vector" d="M6.04688 16.2798V8.77979H4V6.07666H6.04688V3.76416C6.04688 3.30583 6.125 2.86833 6.28125 2.45166C6.42708 2.03499 6.66406 1.6652 6.99219 1.34229C7.32031 1.01937 7.73438 0.758952 8.23438 0.561035C8.73438 0.373535 9.33333 0.279785 10.0312 0.279785C10.5938 0.279785 11.0599 0.298015 11.4297 0.334473C11.7995 0.370931 11.9844 0.38916 11.9844 0.38916L11.9219 2.90479C11.9219 2.90479 11.7422 2.90479 11.3828 2.90479C11.0234 2.90479 10.6094 2.90479 10.1406 2.90479C9.64062 2.90479 9.32292 3.00895 9.1875 3.21729C9.05208 3.42562 8.98438 3.71729 8.98438 4.09229V6.07666H12L11.875 8.77979H8.98438V16.2798H6.04688Z" fill="#303033"/>
</g>
<defs>
<clipPath id="clip0_10_1104">
<rect width="16" height="16" fill="white" transform="matrix(1 0 0 -1 0 16.2798)"/>
</clipPath>
</defs>
</svg>
