<svg width="24" height="24" viewBox="0 0 24 24" fill="none" xmlns="http://www.w3.org/2000/svg">
<g id="65b03a00-67df-11ee-b348-edb7fb75523f.svg">
<path id="Vector" d="M16.5001 21.75C16.5001 21.9489 16.4211 22.1397 16.2804 22.2803C16.1398 22.421 15.949 22.5 15.7501 22.5H8.25011C8.05121 22.5 7.86041 22.421 7.71978 22.2803C7.57916 22.1397 7.50012 21.9489 7.50012 21.75C7.50012 21.5511 7.57916 21.3603 7.71978 21.2197C7.86041 21.0791 8.05121 21 8.25011 21H15.7501C15.949 21 16.1398 21.0791 16.2804 21.2197C16.4211 21.3603 16.5001 21.5511 16.5001 21.75ZM20.2501 9.75C20.2533 11.0003 19.9709 12.2348 19.4244 13.3593C18.8778 14.4838 18.0816 15.4686 17.0964 16.2385C16.9122 16.3796 16.7627 16.5611 16.6593 16.7689C16.556 16.9767 16.5015 17.2055 16.5001 17.4375V18C16.5001 18.3979 16.3421 18.7794 16.0608 19.0606C15.7795 19.342 15.398 19.5 15.0001 19.5H9.00011C8.60231 19.5 8.22078 19.342 7.93946 19.0606C7.65813 18.7794 7.50012 18.3979 7.50012 18V17.4375C7.49997 17.2082 7.44724 16.9819 7.34599 16.7762C7.24474 16.5705 7.09766 16.3906 6.91606 16.2506C5.93337 15.4853 5.13767 14.5064 4.58916 13.3882C4.04067 12.2699 3.75375 11.0415 3.75012 9.79597C3.72575 5.32783 7.337 1.60689 11.8014 1.50001C12.9014 1.4735 13.9956 1.66732 15.0196 2.07003C16.0436 2.47275 16.9767 3.07624 17.7639 3.84497C18.5512 4.61371 19.1767 5.53217 19.6037 6.54629C20.0307 7.56038 20.2504 8.64967 20.2501 9.75ZM18.7501 9.75C18.7504 8.8497 18.5706 7.9584 18.2211 7.12866C17.8718 6.2989 17.36 5.5474 16.7158 4.91843C16.0716 4.28945 15.3081 3.79571 14.4702 3.46624C13.6323 3.13678 12.7371 2.97826 11.837 3.00001C8.18073 3.08626 5.23044 6.13033 5.25012 9.7866C5.25355 10.8053 5.48862 11.8098 5.93755 12.7242C6.38648 13.6387 7.0375 14.439 7.84136 15.0647C8.20271 15.3456 8.49498 15.7055 8.69583 16.1168C8.89668 16.5281 9.00078 16.9798 9.00011 17.4375V18H15.0001V17.4375C15.0012 16.9785 15.1071 16.5258 15.3096 16.114C15.5122 15.7021 15.8062 15.3419 16.1692 15.061C16.9755 14.4308 17.6272 13.6247 18.0745 12.7043C18.5218 11.7838 18.7529 10.7734 18.7501 9.75ZM17.2398 8.87438C17.0454 7.78808 16.5227 6.78748 15.7423 6.00723C14.9619 5.22698 13.9611 4.70457 12.8748 4.51033C12.7777 4.49396 12.6783 4.49687 12.5823 4.51891C12.4863 4.54096 12.3955 4.5817 12.3153 4.63881C12.235 4.69591 12.1668 4.76827 12.1145 4.85175C12.0621 4.93523 12.0268 5.02819 12.0105 5.12533C11.994 5.22246 11.997 5.32187 12.019 5.41789C12.0411 5.5139 12.0818 5.60462 12.1389 5.68489C12.196 5.76515 12.2684 5.83338 12.3519 5.88568C12.4353 5.93798 12.5283 5.97333 12.6255 5.9897C14.1789 6.25127 15.497 7.56937 15.7605 9.12562C15.7901 9.3003 15.8807 9.45885 16.0161 9.57315C16.1514 9.68745 16.323 9.75008 16.5001 9.75C16.5425 9.74977 16.5848 9.74633 16.6267 9.73973C16.8228 9.7062 16.9974 9.59625 17.1124 9.43402C17.2274 9.27173 17.2732 9.07043 17.2398 8.87438Z" fill="#343330"/>
</g>
</svg>
