<svg width="22" height="23" viewBox="0 0 22 23" fill="none" xmlns="http://www.w3.org/2000/svg">
<g id="Icon">
<path id="Vector" d="M6.68164 4.81836C6.82487 4.81836 6.95736 4.84342 7.0791 4.89355C7.20085 4.94368 7.31185 5.01888 7.41211 5.11914C7.51237 5.2194 7.58756 5.3304 7.6377 5.45215C7.68783 5.57389 7.71289 5.70638 7.71289 5.84961V7.89062C7.71289 8.03385 7.68783 8.16992 7.6377 8.29883C7.58756 8.42773 7.51237 8.53516 7.41211 8.62109C7.31185 8.72135 7.20085 8.79655 7.0791 8.84668C6.95736 8.89681 6.82487 8.92188 6.68164 8.92188C6.55273 8.92188 6.42383 8.89681 6.29492 8.84668C6.16602 8.79655 6.05143 8.72135 5.95117 8.62109C5.86523 8.53516 5.79362 8.42773 5.73633 8.29883C5.67904 8.16992 5.65039 8.03385 5.65039 7.89062V5.84961C5.65039 5.70638 5.67904 5.57389 5.73633 5.45215C5.79362 5.3304 5.86523 5.2194 5.95117 5.11914C6.05143 5.01888 6.16602 4.94368 6.29492 4.89355C6.42383 4.84342 6.55273 4.81836 6.68164 4.81836ZM14.9102 9.95312C15.0534 9.95312 15.1859 9.98177 15.3076 10.0391C15.4294 10.0964 15.5404 10.168 15.6406 10.2539C15.7409 10.3542 15.8161 10.4688 15.8662 10.5977C15.9163 10.7266 15.9414 10.8555 15.9414 10.9844V13.0469C15.9414 13.1758 15.9163 13.3047 15.8662 13.4336C15.8161 13.5625 15.7409 13.6771 15.6406 13.7773C15.5404 13.8633 15.4294 13.9349 15.3076 13.9922C15.1859 14.0495 15.0534 14.0781 14.9102 14.0781C14.7812 14.0781 14.6523 14.0495 14.5234 13.9922C14.3945 13.9349 14.2799 13.8633 14.1797 13.7773C14.0938 13.6771 14.0221 13.5625 13.9648 13.4336C13.9076 13.3047 13.8789 13.1758 13.8789 13.0469V10.9844C13.8789 10.8555 13.9076 10.7266 13.9648 10.5977C14.0221 10.4688 14.0938 10.3542 14.1797 10.2539C14.2799 10.168 14.3945 10.0964 14.5234 10.0391C14.6523 9.98177 14.7812 9.95312 14.9102 9.95312ZM6.68164 15.1094C6.82487 15.1094 6.95736 15.1344 7.0791 15.1846C7.20085 15.2347 7.31185 15.3099 7.41211 15.4102C7.51237 15.4961 7.58756 15.6035 7.6377 15.7324C7.68783 15.8613 7.71289 15.9902 7.71289 16.1191V18.1816C7.71289 18.3249 7.68783 18.4574 7.6377 18.5791C7.58756 18.7008 7.51237 18.8118 7.41211 18.9121C7.31185 19.0124 7.20085 19.0876 7.0791 19.1377C6.95736 19.1878 6.82487 19.2129 6.68164 19.2129C6.55273 19.2129 6.42383 19.1878 6.29492 19.1377C6.16602 19.0876 6.05143 19.0124 5.95117 18.9121C5.86523 18.8118 5.79362 18.7008 5.73633 18.5791C5.67904 18.4574 5.65039 18.3249 5.65039 18.1816V16.1191C5.65039 15.9902 5.67904 15.8613 5.73633 15.7324C5.79362 15.6035 5.86523 15.4961 5.95117 15.4102C6.05143 15.3099 6.16602 15.2347 6.29492 15.1846C6.42383 15.1344 6.55273 15.1094 6.68164 15.1094ZM6.68164 4.2168C6.4668 4.2168 6.25911 4.25618 6.05859 4.33496C5.85807 4.41374 5.6862 4.5319 5.54297 4.68945C5.44271 4.78971 5.37467 4.9043 5.33887 5.0332C5.30306 5.16211 5.27083 5.29102 5.24219 5.41992C5.1849 5.47721 5.13835 5.54167 5.10254 5.61328C5.06673 5.6849 5.04883 5.76367 5.04883 5.84961V6.2793H2.57812C2.40625 6.2793 2.26302 6.33659 2.14844 6.45117C2.03385 6.56575 1.97656 6.70898 1.97656 6.88086C1.97656 7.03841 2.03385 7.17806 2.14844 7.2998C2.26302 7.42155 2.40625 7.48242 2.57812 7.48242H5.04883V7.89062C5.04883 7.97656 5.06673 8.05534 5.10254 8.12695C5.13835 8.19857 5.1849 8.26302 5.24219 8.32031C5.27083 8.44922 5.30306 8.57812 5.33887 8.70703C5.37467 8.83594 5.44271 8.95052 5.54297 9.05078C5.6862 9.20833 5.85807 9.3265 6.05859 9.40527C6.25911 9.48405 6.4668 9.52344 6.68164 9.52344C6.89648 9.52344 7.10417 9.48405 7.30469 9.40527C7.50521 9.3265 7.68424 9.20833 7.8418 9.05078C7.94206 8.95052 8.00651 8.83594 8.03516 8.70703C8.0638 8.57812 8.09961 8.44922 8.14258 8.32031C8.1569 8.2487 8.18913 8.18066 8.23926 8.11621C8.28939 8.05176 8.31445 7.97656 8.31445 7.89062V7.48242H19.0352C19.1927 7.48242 19.3324 7.42155 19.4541 7.2998C19.5758 7.17806 19.6367 7.03841 19.6367 6.88086C19.6367 6.70898 19.5758 6.56575 19.4541 6.45117C19.3324 6.33659 19.1927 6.2793 19.0352 6.2793H8.31445V5.84961C8.31445 5.76367 8.30013 5.6849 8.27148 5.61328C8.24284 5.54167 8.19987 5.47721 8.14258 5.41992C8.09961 5.29102 8.0638 5.16211 8.03516 5.0332C8.00651 4.9043 7.94206 4.78971 7.8418 4.68945C7.68424 4.5319 7.50521 4.41374 7.30469 4.33496C7.10417 4.25618 6.89648 4.2168 6.68164 4.2168ZM6.68164 5.41992C6.73893 5.41992 6.79264 5.43066 6.84277 5.45215C6.8929 5.47363 6.93945 5.50586 6.98242 5.54883C7.02539 5.57747 7.05762 5.62044 7.0791 5.67773C7.10059 5.73503 7.11133 5.79232 7.11133 5.84961V7.89062C7.11133 7.94792 7.10059 8.00521 7.0791 8.0625C7.05762 8.11979 7.02539 8.16992 6.98242 8.21289C6.95378 8.24154 6.91081 8.2666 6.85352 8.28809C6.79622 8.30957 6.73893 8.32031 6.68164 8.32031C6.62435 8.32031 6.57064 8.30957 6.52051 8.28809C6.47038 8.2666 6.42383 8.24154 6.38086 8.21289C6.33789 8.16992 6.30566 8.11979 6.28418 8.0625C6.2627 8.00521 6.25195 7.94792 6.25195 7.89062V5.84961C6.25195 5.79232 6.2627 5.73503 6.28418 5.67773C6.30566 5.62044 6.33789 5.57747 6.38086 5.54883C6.42383 5.50586 6.47038 5.47363 6.52051 5.45215C6.57064 5.43066 6.62435 5.41992 6.68164 5.41992ZM14.9102 9.35156C14.6953 9.35156 14.4876 9.39453 14.2871 9.48047C14.0866 9.56641 13.9147 9.68099 13.7715 9.82422C13.6712 9.92448 13.6032 10.0391 13.5674 10.168C13.5316 10.2969 13.4993 10.4258 13.4707 10.5547C13.4134 10.612 13.3669 10.6764 13.3311 10.748C13.2952 10.8197 13.2773 10.8984 13.2773 10.9844V11.4141H2.57812C2.40625 11.4141 2.26302 11.4714 2.14844 11.5859C2.03385 11.7005 1.97656 11.8438 1.97656 12.0156C1.97656 12.1875 2.03385 12.3307 2.14844 12.4453C2.26302 12.5599 2.40625 12.6172 2.57812 12.6172H13.2773V13.0469C13.2773 13.1328 13.2952 13.2116 13.3311 13.2832C13.3669 13.3548 13.4134 13.4193 13.4707 13.4766C13.4993 13.6055 13.5316 13.7344 13.5674 13.8633C13.6032 13.9922 13.6712 14.0996 13.7715 14.1855C13.9147 14.3431 14.0866 14.4648 14.2871 14.5508C14.4876 14.6367 14.6953 14.6797 14.9102 14.6797C15.125 14.6797 15.3327 14.6367 15.5332 14.5508C15.7337 14.4648 15.9128 14.3431 16.0703 14.1855C16.1706 14.0996 16.235 13.9922 16.2637 13.8633C16.2923 13.7344 16.3281 13.6055 16.3711 13.4766C16.4284 13.4193 16.4714 13.3548 16.5 13.2832C16.5286 13.2116 16.543 13.1328 16.543 13.0469V12.6172H19.0352C19.1927 12.6172 19.3324 12.5599 19.4541 12.4453C19.5758 12.3307 19.6367 12.1875 19.6367 12.0156C19.6367 11.8438 19.5758 11.7005 19.4541 11.5859C19.3324 11.4714 19.1927 11.4141 19.0352 11.4141H16.543V10.9844C16.543 10.9414 16.5394 10.902 16.5322 10.8662C16.5251 10.8304 16.5143 10.791 16.5 10.748C16.4857 10.7194 16.4678 10.6872 16.4463 10.6514C16.4248 10.6156 16.3997 10.5833 16.3711 10.5547C16.3281 10.4258 16.2923 10.2969 16.2637 10.168C16.235 10.0391 16.1706 9.92448 16.0703 9.82422C15.9128 9.68099 15.7337 9.56641 15.5332 9.48047C15.3327 9.39453 15.125 9.35156 14.9102 9.35156ZM14.9102 10.5547C14.9674 10.5547 15.0212 10.5654 15.0713 10.5869C15.1214 10.6084 15.168 10.6406 15.2109 10.6836C15.2539 10.7266 15.2861 10.7731 15.3076 10.8232C15.3291 10.8734 15.3398 10.9271 15.3398 10.9844V13.0469C15.3398 13.1042 15.3291 13.1579 15.3076 13.208C15.2861 13.2581 15.2539 13.3047 15.2109 13.3477C15.168 13.3906 15.1214 13.4229 15.0713 13.4443C15.0212 13.4658 14.9674 13.4766 14.9102 13.4766C14.8529 13.4766 14.7992 13.4658 14.749 13.4443C14.6989 13.4229 14.6523 13.3906 14.6094 13.3477C14.5664 13.3047 14.5342 13.2581 14.5127 13.208C14.4912 13.1579 14.4805 13.1042 14.4805 13.0469V10.9844C14.4805 10.9271 14.4912 10.8734 14.5127 10.8232C14.5342 10.7731 14.5664 10.7266 14.6094 10.6836C14.6523 10.6406 14.6989 10.6084 14.749 10.5869C14.7992 10.5654 14.8529 10.5547 14.9102 10.5547ZM6.68164 14.5078C6.4668 14.5078 6.25911 14.5472 6.05859 14.626C5.85807 14.7048 5.6862 14.8229 5.54297 14.9805C5.44271 15.0807 5.37467 15.1953 5.33887 15.3242C5.30306 15.4531 5.27083 15.582 5.24219 15.7109C5.1849 15.7682 5.13835 15.8327 5.10254 15.9043C5.06673 15.9759 5.04883 16.0475 5.04883 16.1191V16.5488H2.57812C2.40625 16.5488 2.26302 16.6097 2.14844 16.7314C2.03385 16.8532 1.97656 16.9928 1.97656 17.1504C1.97656 17.3223 2.03385 17.4655 2.14844 17.5801C2.26302 17.6947 2.40625 17.752 2.57812 17.752H5.04883V18.1816C5.04883 18.2676 5.06673 18.3464 5.10254 18.418C5.13835 18.4896 5.1849 18.554 5.24219 18.6113C5.27083 18.7402 5.30306 18.8691 5.33887 18.998C5.37467 19.127 5.44271 19.2415 5.54297 19.3418C5.6862 19.4993 5.85807 19.6175 6.05859 19.6963C6.25911 19.7751 6.4668 19.8145 6.68164 19.8145C6.89648 19.8145 7.10417 19.7751 7.30469 19.6963C7.50521 19.6175 7.68424 19.4993 7.8418 19.3418C7.94206 19.2415 8.00651 19.127 8.03516 18.998C8.0638 18.8691 8.09961 18.7402 8.14258 18.6113C8.1569 18.5397 8.18913 18.4717 8.23926 18.4072C8.28939 18.3428 8.31445 18.2676 8.31445 18.1816V17.752H19.0352C19.1927 17.752 19.3324 17.6947 19.4541 17.5801C19.5758 17.4655 19.6367 17.3223 19.6367 17.1504C19.6367 16.9928 19.5758 16.8532 19.4541 16.7314C19.3324 16.6097 19.1927 16.5488 19.0352 16.5488H8.31445V16.1191C8.31445 16.0905 8.31087 16.0547 8.30371 16.0117C8.29655 15.9688 8.28581 15.9329 8.27148 15.9043C8.25716 15.8613 8.23926 15.8255 8.21777 15.7969C8.19629 15.7682 8.17122 15.7396 8.14258 15.7109C8.09961 15.582 8.0638 15.4531 8.03516 15.3242C8.00651 15.1953 7.94206 15.0807 7.8418 14.9805C7.68424 14.8229 7.50521 14.7048 7.30469 14.626C7.10417 14.5472 6.89648 14.5078 6.68164 14.5078ZM6.68164 15.7109C6.73893 15.7109 6.79622 15.7217 6.85352 15.7432C6.91081 15.7646 6.95378 15.7897 6.98242 15.8184C7.02539 15.8613 7.05762 15.9079 7.0791 15.958C7.10059 16.0081 7.11133 16.0618 7.11133 16.1191V18.1816C7.11133 18.2389 7.10059 18.2962 7.0791 18.3535C7.05762 18.4108 7.02539 18.4538 6.98242 18.4824C6.95378 18.5254 6.91081 18.5576 6.85352 18.5791C6.79622 18.6006 6.73893 18.6113 6.68164 18.6113C6.62435 18.6113 6.57064 18.6006 6.52051 18.5791C6.47038 18.5576 6.42383 18.5254 6.38086 18.4824C6.33789 18.4538 6.30566 18.4108 6.28418 18.3535C6.2627 18.2962 6.25195 18.2389 6.25195 18.1816V16.1191C6.25195 16.0618 6.2627 16.0081 6.28418 15.958C6.30566 15.9079 6.33789 15.8613 6.38086 15.8184C6.42383 15.7897 6.47038 15.7646 6.52051 15.7432C6.57064 15.7217 6.62435 15.7109 6.68164 15.7109Z" fill="#303033"/>
</g>
</svg>
