<svg width="24" height="24" viewBox="0 0 24 24" fill="none" xmlns="http://www.w3.org/2000/svg">
<g id="6905ea20-67de-11ee-928f-3dc9e9c1de03.svg">
<path id="Vector" d="M23.25 11.25H22.5V8.25C22.5 7.8522 22.342 7.47064 22.0606 7.18934C21.7793 6.90803 21.3978 6.75 21 6.75H19.5V6C19.5 5.60218 19.342 5.22065 19.0606 4.93934C18.7793 4.65803 18.3978 4.5 18 4.5H15.75C15.3522 4.5 14.9707 4.65803 14.6894 4.93934C14.408 5.22065 14.25 5.60218 14.25 6V11.25H9.75V6C9.75 5.60218 9.59198 5.22065 9.31065 4.93934C9.02932 4.65803 8.6478 4.5 8.25 4.5H6C5.60218 4.5 5.22064 4.65803 4.93934 4.93934C4.65803 5.22065 4.5 5.60218 4.5 6V6.75H3C2.60218 6.75 2.22064 6.90803 1.93934 7.18934C1.65803 7.47064 1.5 7.8522 1.5 8.25V11.25H0.75C0.551088 11.25 0.360323 11.3291 0.21967 11.4697C0.0790177 11.6103 0 11.8011 0 12C0 12.1989 0.0790177 12.3897 0.21967 12.5303C0.360323 12.6709 0.551088 12.75 0.75 12.75H1.5V15.75C1.5 16.1478 1.65803 16.5293 1.93934 16.8106C2.22064 17.092 2.60218 17.25 3 17.25H4.5V18C4.5 18.3978 4.65803 18.7793 4.93934 19.0606C5.22064 19.342 5.60218 19.5 6 19.5H8.25C8.6478 19.5 9.02932 19.342 9.31065 19.0606C9.59198 18.7793 9.75 18.3978 9.75 18V12.75H14.25V18C14.25 18.3978 14.408 18.7793 14.6894 19.0606C14.9707 19.342 15.3522 19.5 15.75 19.5H18C18.3978 19.5 18.7793 19.342 19.0606 19.0606C19.342 18.7793 19.5 18.3978 19.5 18V17.25H21C21.3978 17.25 21.7793 17.092 22.0606 16.8106C22.342 16.5293 22.5 16.1478 22.5 15.75V12.75H23.25C23.4489 12.75 23.6397 12.6709 23.7803 12.5303C23.9209 12.3897 24 12.1989 24 12C24 11.8011 23.9209 11.6103 23.7803 11.4697C23.6397 11.3291 23.4489 11.25 23.25 11.25ZM3 15.75V8.25H4.5V15.75H3ZM8.25 18H6V6H8.25V18ZM18 18H15.75V6H18V16.4831C18 16.4888 18 16.4944 18 16.5C18 16.5056 18 16.5112 18 16.5169V18ZM21 15.75H19.5V8.25H21V15.75Z" fill="#343330"/>
</g>
</svg>
