<?xml version="1.0" encoding="utf-8"?>
<!-- Generator: Adobe Illustrator 25.2.0, SVG Export Plug-In . SVG Version: 6.00 Build 0)  -->
<svg version="1.1" id="Layer_1" xmlns="http://www.w3.org/2000/svg" xmlns:xlink="http://www.w3.org/1999/xlink" x="0px" y="0px"
	 width="245.18px" height="595.28px" viewBox="0 0 245.18 595.28" style="enable-background:new 0 0 245.18 595.28;"
	 xml:space="preserve">
<style type="text/css">
	.st0{fill:#F3D9BB;}
	.st1{fill:#BD8974;}
	.st2{fill:none;stroke:#2E1D10;stroke-width:1.5;stroke-linecap:round;stroke-linejoin:round;stroke-miterlimit:10;}
	.st3{fill:#F3D9BB;stroke:#2E1D10;stroke-width:1.5;stroke-linecap:round;stroke-linejoin:round;stroke-miterlimit:10;}
	.st4{fill:url(#SVGID_1_);}
	.st5{opacity:0.5;fill:#A57F51;}
	.st6{fill:none;stroke:#2E1D10;stroke-width:1.3203;stroke-linecap:round;stroke-linejoin:round;stroke-miterlimit:10;}
	.st7{fill:#F3D9BB;stroke:#2E1D10;stroke-width:1.3203;stroke-linecap:round;stroke-linejoin:round;stroke-miterlimit:10;}
	.st8{fill:#CBC8DD;}
	.st9{fill:#9B9AB9;}
	.st10{fill:url(#SVGID_2_);stroke:#2E1D10;stroke-width:1.3203;stroke-linecap:round;stroke-linejoin:round;stroke-miterlimit:10;}
	.st11{fill:#FFFFFF;stroke:#2E1D10;stroke-width:1.3203;stroke-linecap:round;stroke-linejoin:round;stroke-miterlimit:10;}
	.st12{fill:url(#SVGID_3_);stroke:#2E1D10;stroke-width:1.3203;stroke-linecap:round;stroke-linejoin:round;stroke-miterlimit:10;}
	.st13{fill:url(#SVGID_4_);stroke:#2E1D10;stroke-width:1.3203;stroke-linecap:round;stroke-linejoin:round;stroke-miterlimit:10;}
	.st14{fill:url(#SVGID_5_);stroke:#2E1D10;stroke-width:1.3203;stroke-linecap:round;stroke-linejoin:round;stroke-miterlimit:10;}
	.st15{fill:url(#SVGID_6_);stroke:#2E1D10;stroke-width:1.3203;stroke-linecap:round;stroke-linejoin:round;stroke-miterlimit:10;}
	.st16{fill:url(#SVGID_7_);stroke:#2E1D10;stroke-width:1.3203;stroke-linecap:round;stroke-linejoin:round;stroke-miterlimit:10;}
	.st17{fill:url(#SVGID_8_);stroke:#2E1D10;stroke-width:1.3203;stroke-linecap:round;stroke-linejoin:round;stroke-miterlimit:10;}
	.st18{fill:url(#SVGID_9_);stroke:#2E1D10;stroke-width:1.3203;stroke-linecap:round;stroke-linejoin:round;stroke-miterlimit:10;}
	.st19{fill:url(#SVGID_10_);stroke:#2E1D10;stroke-width:1.3203;stroke-linecap:round;stroke-linejoin:round;stroke-miterlimit:10;}
	.st20{fill:url(#SVGID_11_);stroke:#2E1D10;stroke-width:1.3203;stroke-linecap:round;stroke-linejoin:round;stroke-miterlimit:10;}
	.st21{fill:url(#SVGID_12_);stroke:#2E1D10;stroke-width:1.3203;stroke-linecap:round;stroke-linejoin:round;stroke-miterlimit:10;}
	.st22{fill:url(#SVGID_13_);stroke:#2E1D10;stroke-width:1.3203;stroke-linecap:round;stroke-linejoin:round;stroke-miterlimit:10;}
	.st23{fill:url(#SVGID_14_);stroke:#2E1D10;stroke-width:1.3203;stroke-linecap:round;stroke-linejoin:round;stroke-miterlimit:10;}
	.st24{fill:url(#SVGID_15_);stroke:#2E1D10;stroke-width:1.3203;stroke-linecap:round;stroke-linejoin:round;stroke-miterlimit:10;}
	.st25{fill:url(#SVGID_16_);stroke:#2E1D10;stroke-width:1.3203;stroke-linecap:round;stroke-linejoin:round;stroke-miterlimit:10;}
	.st26{fill:url(#SVGID_17_);stroke:#2E1D10;stroke-width:1.3203;stroke-linecap:round;stroke-linejoin:round;stroke-miterlimit:10;}
	.st27{fill:url(#SVGID_18_);stroke:#2E1D10;stroke-width:1.3203;stroke-linecap:round;stroke-linejoin:round;stroke-miterlimit:10;}
	.st28{fill:url(#SVGID_19_);stroke:#2E1D10;stroke-width:1.3203;stroke-linecap:round;stroke-linejoin:round;stroke-miterlimit:10;}
	.st29{fill:url(#SVGID_20_);stroke:#2E1D10;stroke-width:1.3203;stroke-linecap:round;stroke-linejoin:round;stroke-miterlimit:10;}
	.st30{fill:url(#SVGID_21_);stroke:#2E1D10;stroke-width:1.3203;stroke-linecap:round;stroke-linejoin:round;stroke-miterlimit:10;}
	.st31{fill:url(#SVGID_22_);stroke:#2E1D10;stroke-width:1.3203;stroke-linecap:round;stroke-linejoin:round;stroke-miterlimit:10;}
	.st32{fill:url(#SVGID_23_);stroke:#2E1D10;stroke-width:1.3203;stroke-linecap:round;stroke-linejoin:round;stroke-miterlimit:10;}
	.st33{fill:url(#SVGID_24_);stroke:#2E1D10;stroke-width:1.3203;stroke-linecap:round;stroke-linejoin:round;stroke-miterlimit:10;}
	.st34{fill:url(#SVGID_25_);}
	.st35{fill:url(#SVGID_26_);}
	.st36{fill:url(#SVGID_29_);}
	.st37{fill:#2E1D10;}
	.st38{fill:url(#SVGID_30_);}
	.st39{fill:url(#SVGID_31_);}
	.st40{fill:#CBC8DD;stroke:#2E1D10;stroke-width:1.5;stroke-linecap:round;stroke-linejoin:round;stroke-miterlimit:10;}
	.st41{fill:#FFFFFF;stroke:#2E1D10;stroke-width:1.5;stroke-linecap:round;stroke-linejoin:round;stroke-miterlimit:10;}
	.st42{fill:#FFFFFF;}
	.st43{fill:#E5DED5;}
	.st44{fill:none;stroke:#2E1D10;stroke-width:0.5;stroke-linecap:round;stroke-linejoin:round;stroke-miterlimit:10;}
	.st45{fill:#2E1D10;stroke:#2E1D10;stroke-width:0.25;stroke-linecap:round;stroke-linejoin:round;stroke-miterlimit:10;}
	.st46{fill:url(#SVGID_32_);stroke:#2E1D10;stroke-linecap:round;stroke-linejoin:round;stroke-miterlimit:10;}
	.st47{fill:#4F2C17;}
	.st48{fill:url(#SVGID_33_);stroke:#2E1D10;stroke-linecap:round;stroke-linejoin:round;stroke-miterlimit:10;}
</style>
<g>
	<g>
		<path class="st0" d="M199.55,272.43c0,0-8.53-18.52-12.71-30.38c-4.19-11.86-6.42-30.75-13.72-35.63
			c-7.3-4.87-34.67,7.73-21.71,33.38c12.94,25.62,25.42,58.28,37.87,57.1C197.23,296.14,207.46,291.76,199.55,272.43z"/>
		<path class="st1" d="M173.12,206.42c3.32,2.22,5.6,7.34,7.48,13.38l7.35,25.28l-6.93-5.97c0,0,6.44,7.8,6.36,17.58
			c-0.09,9.79-4.66,17.92-4.66,17.92l-9.42-7.66c0,0-4.34-2.75-6.66-9.12c-2.24,6.29-0.38,11.39-0.71,11.85
			c-4.79-9.5-9.62-20.2-14.52-29.89C138.45,214.14,165.82,201.54,173.12,206.42z"/>
		<path class="st2" d="M199.55,272.43c0,0-8.53-18.52-12.71-30.38c-4.19-11.86-6.42-30.75-13.72-35.63
			c-7.3-4.87-34.67,7.73-21.71,33.38c12.94,25.62,25.42,58.28,37.87,57.1C197.23,296.14,207.46,291.76,199.55,272.43z"/>
	</g>
	<path class="st3" d="M201.94,280.16c8.18,11.87,10.37,25.58,13.73,34.52c3.43,9.12,11.27,30.23,11.27,30.23s10.57,12.74,6.22,16.87
		c-4.38,4.15-11.63,6.16-18.93-5.2c-7.13-11.09-27.93-42.94-32.24-53.09c-4.18-9.85-5.67-15.88-5.67-15.88"/>
	<g>
		<path class="st3" d="M211.44,351.76c0,0-3.1,6.87-0.05,12.8c2.38,4.64,9.56,12.68,9.56,12.68c9.13-3.91,17.02-8.24,22.44-13.43
			c0,0-0.1-7.9-8.21-13.53c-1.62-1.13-7.49-5.03-9.53-5.87"/>
		<path class="st3" d="M227.22,369.17c0,0,0.22,8.69-4.99,10.87c-2.92,1.22-7.35-3.6-8.18-5.69c-1.28-3.18,1.61-7.76,7.97-1.04"/>
		<path class="st3" d="M232.34,367.34c0,0,2.37,9.21-2.51,12.27c-2.91,1.82-9.48-3.21-11.38-5.4c-0.91-1.04-2.46-2.05-2.41-3.09
			c0.09-2.27,3.94-3.7,11.34,0.99"/>
		<path class="st3" d="M237.96,366.04c0,0,2.86,9.43-2.28,12.37c-3.06,1.75-10.11-3.75-12.4-5.86c-1.42-1.31-2.9-2.22-2.75-3.31
			c0.27-2.1,4.52-3.31,12.27,1.47"/>
		<path class="st3" d="M243.06,362.41c0,0,3.79,9.9-1.35,12.85c-3.06,1.75-12.19-4.99-15.12-6.04c-2.93-1.05-0.35-8.87,11.44-1.59"
			/>
		<path class="st3" d="M218.64,354.06c0,0,4.58,6.61,12.23,7.41l1.69,5.33c0,0-1.77,7.38,2.64,8.29c0.77,0.16,1.71-0.14,2.01-0.79
			c1.05-2.28,1.8-6.73,2.34-8.64c0.38-1.34-1.47-5.87-1.14-8.71"/>
	</g>
	<g>
		
			<linearGradient id="SVGID_1_" gradientUnits="userSpaceOnUse" x1="261.0535" y1="-31.5797" x2="263.9784" y2="229.1475" gradientTransform="matrix(0.9999 -0.0172 0.0172 0.9999 -143.1257 42.3331)">
			<stop  offset="0" style="stop-color:#2E1D10"/>
			<stop  offset="1" style="stop-color:#714F28"/>
		</linearGradient>
		<path class="st4" d="M175.64,178.87c39.31-29.01,39.46-50.48,39.69-61.45c0.23-10.96-5.78-39.9-23.11-72.27
			c-17.57-32.81-37.41-43.64-51.48-44.43S118.6,6.25,118.6,6.25s-8.27-6.04-22.31-4.76S62.8,14.27,46.36,47.67
			c-16.21,32.94-21.22,62.07-20.61,73.02s4.69,32.18,44.98,59.82"/>
		<path class="st5" d="M72.78,62.15c-21.61,6.36-27.87-2.75-29.66-7.81c-4.53,10.53-7.94,20.54-10.43,29.54
			c10.4-2.19,12.02,9.02,12.02,9.02l25.15,7.07C69.86,99.97,101.79,53.61,72.78,62.15z"/>
		<path class="st5" d="M197.7,56.74C197.69,56.74,197.69,56.74,197.7,56.74c-1.48,5.16-8.26,11.41-31.41,2.31
			c-28.14-11.07,4.84,39.53,4.84,39.53l22.23-3.82c0,0,5.39-12.37,15.54-9.5C206.2,76.64,202.53,66.98,197.7,56.74z"/>
		<path class="st6" d="M175.64,178.87c39.31-29.01,39.46-50.48,39.69-61.45c0.23-10.96-5.78-39.9-23.11-72.27
			c-17.57-32.81-37.41-43.64-51.48-44.43S118.6,6.25,118.6,6.25s-8.27-6.04-22.31-4.76S62.8,14.27,46.36,47.67
			c-16.21,32.94-21.22,62.07-20.61,73.02s3.36,31.43,43.65,59.07"/>
	</g>
	<g>
		<path class="st0" d="M45.59,272.43c0,0,8.53-18.52,12.71-30.38c4.19-11.86,6.42-30.75,13.72-35.63
			c7.3-4.87,34.67,7.73,21.71,33.38c-12.94,25.62-25.42,58.28-37.87,57.1C47.92,296.14,37.68,291.76,45.59,272.43z"/>
		<path class="st1" d="M72.03,206.42c-3.32,2.22-5.6,7.34-7.48,13.38l-7.35,25.28l6.93-5.97c0,0-3.08,10-2.1,17.07
			c0.99,7.08,7.93,16.65,7.93,16.65l2.7-2.31c0,0,3.58-3.23,5.89-6.11c0.91-0.08,0.01,4.31,0.68,5.27
			c4.79-9.5,9.62-20.2,14.52-29.89C106.7,214.14,79.33,201.54,72.03,206.42z"/>
		<path class="st2" d="M45.59,272.43c0,0,8.53-18.52,12.71-30.38c4.19-11.86,6.42-30.75,13.72-35.63
			c7.3-4.87,34.67,7.73,21.71,33.38c-12.94,25.62-25.42,58.28-37.87,57.1C47.92,296.14,37.68,291.76,45.59,272.43z"/>
	</g>
	<g>
		<path class="st7" d="M107.63,193.29c0,0,26.9-1.24,27.99,0c1.34,1.53,14.53,6.09,14.53,6.09l11.91,43.32H82.32l10.12-43.66
			C92.44,199.04,104.32,195.54,107.63,193.29z"/>
		<g>
			<path class="st8" d="M157.11,201.29l-9.3-2.74c1.76,9.21,2.86,18.3,3.48,24.41c0.41,4.02-2.79,7.5-6.88,7.5H99.5
				c-4,0-7.17-3.35-6.9-7.29c0.69-10.02,3.01-25.16,3.01-25.16l-8.22,2.46c0,0-10,31.52-9.56,44.48
				c0.36,10.47,12.83,25.37,14.62,31.22h64.66c0,0,0.33-2.44,0.7-4.32c0.47-2.38,10.46-22.2,11.21-30.36
				C169.72,233.89,157.11,201.29,157.11,201.29z"/>
			<path class="st9" d="M92.58,222.91c0.69-10.02,3.01-25.16,3.01-25.16l-8.22,2.46c0,0-10,31.52-9.56,44.48
				c0.18,5.11,3.23,11.27,6.53,16.92c1.69-0.71,5.99-2.44,4.72-4.54c-6.47-10.7-4.65-21.75-4.65-21.75
				C88.22,228.52,92.54,223.41,92.58,222.91z"/>
			<path class="st9" d="M151.29,223.22c-0.94-9.88-3.19-24.71-3.19-24.71l8.66,2.54c0,0,10.76,31.09,10.63,43.87
				c-0.05,5.04-2.96,11.11-6.12,16.69c-1.7-0.7-3.76-2.02-2.54-4.09c6.22-10.55,4.07-19.14,4.07-19.14
				C158.8,231.68,151.34,223.71,151.29,223.22z"/>
			<path class="st9" d="M157.74,272.04c0.47-2.27,10.43-21.19,11.19-28.97c0.01-0.12,0.02-0.24,0.02-0.37
				c-2.4,5.01-5.53,9.57-9.49,11.7c-8.36,4.49-18.67,2.42-36.82,2.94c-18.14-0.52-28.46,1.56-36.82-2.94
				c-3.15-1.69-5.77-4.93-7.93-8.71c0,0.23,0.01,0.46,0.01,0.69c0.36,9.99,12.8,24.2,14.59,29.78h64.53
				C157.04,276.17,157.37,273.84,157.74,272.04z"/>
			<path class="st2" d="M157.11,201.29l-9.3-2.74c1.76,9.21,2.86,18.3,3.48,24.41c0.41,4.02-2.79,7.5-6.88,7.5H99.5
				c-4,0-7.17-3.35-6.9-7.29c0.69-10.02,3.01-25.16,3.01-25.16l-8.22,2.46c0,0-10,31.52-9.56,44.48
				c0.36,10.47,12.83,25.37,14.62,31.22h64.66c0,0,0.33-2.44,0.7-4.32c0.47-2.38,10.46-22.2,11.21-30.36
				C169.72,233.89,157.11,201.29,157.11,201.29z"/>
		</g>
		<path class="st3" d="M92.44,276.17c0,0,0.41,22.71-0.96,30.47h66.8c0,0-1.17-18.49-1.17-30.47H92.44z"/>
	</g>
	<g>
		<path class="st1" d="M136.55,194.41c-0.16-0.12-0.32-0.27-0.46-0.43c-0.65-0.7-0.98-1.63-0.98-2.57v-26.92h-27v26.78
			c0,1.14-0.47,2.25-1.38,2.96c-0.08,0.07-0.17,0.13-0.26,0.18c0,0,6.54,6.14,15.97,6.14S136.55,194.41,136.55,194.41z"/>
		<path class="st2" d="M106.46,194.41c0.09-0.05,0.17-0.11,0.26-0.18c0.91-0.71,1.38-1.82,1.38-2.96v-26.78h27v26.92
			c0,0.94,0.33,1.87,0.98,2.57c0.15,0.16,0.3,0.31,0.46,0.43"/>
	</g>
	<g>
		<g>
			
				<linearGradient id="SVGID_2_" gradientUnits="userSpaceOnUse" x1="903.7485" y1="-365.2423" x2="906.752" y2="-97.4985" gradientTransform="matrix(0.9645 -0.1859 0.2801 0.9828 -764.483 543.1371)">
				<stop  offset="0" style="stop-color:#2E1D10"/>
				<stop  offset="1" style="stop-color:#714F28"/>
			</linearGradient>
			<path class="st10" d="M80.36,234.68c0,0,0.84,2.77,1.27,6.05s0.86,6.43,2.79,9.78c0,0-2.57-0.98-4.18-4.71
				c0,0,1.99,10.11-6.2,18.2c0,0,0.63-3.51,0.6-7.47c-0.02-1.72-4.57,6.82-4.93,11.65c0,0-5.77-10.77-4.44-21
				c1.09-8.43,8.08-10.6,9.46-15.66C74.72,231.52,76.13,234.81,80.36,234.68z"/>
			<path class="st11" d="M74.65,230.26c0,0,1.92,4.74,6.68,3.4c0,0,0.39,0.92-0.78,1.7s-5.18-0.54-6.37-3.14
				C74.18,232.22,73.77,231.31,74.65,230.26z"/>
			
				<linearGradient id="SVGID_3_" gradientUnits="userSpaceOnUse" x1="912.6678" y1="-364.7082" x2="915.6624" y2="-97.7562" gradientTransform="matrix(0.9645 -0.1859 0.2801 0.9828 -764.483 543.1371)">
				<stop  offset="0" style="stop-color:#2E1D10"/>
				<stop  offset="1" style="stop-color:#714F28"/>
			</linearGradient>
			<path class="st12" d="M75.44,223.98c0,0-2.31,3.5-0.67,6.5c1.45,2.66,3.27,3.11,3.27,3.11l1.94-4.51L75.44,223.98z"/>
			
				<linearGradient id="SVGID_4_" gradientUnits="userSpaceOnUse" x1="916.3555" y1="-366.3045" x2="919.3708" y2="-97.5181" gradientTransform="matrix(0.9645 -0.1859 0.2801 0.9828 -764.483 543.1371)">
				<stop  offset="0" style="stop-color:#2E1D10"/>
				<stop  offset="1" style="stop-color:#714F28"/>
			</linearGradient>
			<path class="st13" d="M85.29,226.14c0,0,0.59,5.32-3.96,7.52c0,0-2.64,0.92-4.58-0.74c0,0,0.01-2.79,2.88-3.73
				C82.91,228.12,85.29,226.14,85.29,226.14z"/>
			
				<linearGradient id="SVGID_5_" gradientUnits="userSpaceOnUse" x1="916.1766" y1="-364.8096" x2="919.1719" y2="-97.8006" gradientTransform="matrix(0.9645 -0.1859 0.2801 0.9828 -764.483 543.1371)">
				<stop  offset="0" style="stop-color:#2E1D10"/>
				<stop  offset="1" style="stop-color:#714F28"/>
			</linearGradient>
			<path class="st14" d="M75.8,215.32c0,0-2.17,4.1-0.92,7.45s3.48,5.3,4.25,6.54l3.46-7.13L75.8,215.32z"/>
			
				<linearGradient id="SVGID_6_" gradientUnits="userSpaceOnUse" x1="920.3428" y1="-366.8559" x2="923.3654" y2="-97.4086" gradientTransform="matrix(0.9645 -0.1859 0.2801 0.9828 -764.483 543.1371)">
				<stop  offset="0" style="stop-color:#2E1D10"/>
				<stop  offset="1" style="stop-color:#714F28"/>
			</linearGradient>
			<path class="st15" d="M87.8,218.75c0,0-2.24,2-4.41,2.67s-4.85,2.88-4.25,7.89c0,0,6.12-1.51,7.81-4.97
				C88.35,221.48,87.8,218.75,87.8,218.75z"/>
			
				<linearGradient id="SVGID_7_" gradientUnits="userSpaceOnUse" x1="929.2043" y1="-367.4772" x2="932.2369" y2="-97.1464" gradientTransform="matrix(0.9645 -0.1859 0.2801 0.9828 -764.483 543.1371)">
				<stop  offset="0" style="stop-color:#2E1D10"/>
				<stop  offset="1" style="stop-color:#714F28"/>
			</linearGradient>
			<path class="st16" d="M63.78,176.13c0,0-2.34,8.69,7.18,17.92c7.87,7.64,12.67,11.52,12.67,11.52s12.6-7.05,9.22-33.74
				C89.48,145.12,57.7,156.54,63.78,176.13z"/>
			
				<linearGradient id="SVGID_8_" gradientUnits="userSpaceOnUse" x1="930.3558" y1="-349.4435" x2="933.0908" y2="-105.6412" gradientTransform="matrix(0.9645 -0.1859 0.2801 0.9828 -764.483 543.1371)">
				<stop  offset="0" style="stop-color:#2E1D10"/>
				<stop  offset="1" style="stop-color:#714F28"/>
			</linearGradient>
			<path class="st17" d="M100.94,149.99c0,0-0.86,28.23-21.41,38.04c-13.59-7.03-29.97-22.65-35.23-30.65"/>
			<path class="st6" d="M79.52,188.03c0,0,6.45,4.53,5.24,12.98"/>
			
				<linearGradient id="SVGID_9_" gradientUnits="userSpaceOnUse" x1="920.2003" y1="-364.5639" x2="923.1911" y2="-97.9548" gradientTransform="matrix(0.9645 -0.1859 0.2801 0.9828 -764.483 543.1371)">
				<stop  offset="0" style="stop-color:#2E1D10"/>
				<stop  offset="1" style="stop-color:#714F28"/>
			</linearGradient>
			<path class="st18" d="M74,206.28c0,0-0.78,3.82,0.63,7.38c2.42,6.1,5.42,6.2,6.92,8.7l4.17-9.11L74,206.28z"/>
			
				<linearGradient id="SVGID_10_" gradientUnits="userSpaceOnUse" x1="927.6277" y1="-366.0754" x2="930.6389" y2="-97.6497" gradientTransform="matrix(0.9645 -0.1859 0.2801 0.9828 -764.483 543.1371)">
				<stop  offset="0" style="stop-color:#2E1D10"/>
				<stop  offset="1" style="stop-color:#714F28"/>
			</linearGradient>
			<path class="st19" d="M89.61,198.3c0,0-9.01,2.47-8.71,12.74c0.16,5.61,5.24,0.53,5.24,0.53s6.66-3.95,3.87-10.12
				C88.98,199.18,89.61,198.3,89.61,198.3z"/>
			
				<linearGradient id="SVGID_11_" gradientUnits="userSpaceOnUse" x1="920.4775" y1="-364.483" x2="923.4666" y2="-98.0218" gradientTransform="matrix(0.9645 -0.1859 0.2801 0.9828 -764.483 543.1371)">
				<stop  offset="0" style="stop-color:#2E1D10"/>
				<stop  offset="1" style="stop-color:#714F28"/>
			</linearGradient>
			<path class="st20" d="M70.96,194.05c0,0,0.26,5.88,1.95,10.4c1.69,4.52,8.47,8.92,9.89,11.3s1.16-3.12,1.16-3.12
				s1.33-7.2-5.26-11.97C73.44,196.85,70.96,194.05,70.96,194.05z"/>
			
				<linearGradient id="SVGID_12_" gradientUnits="userSpaceOnUse" x1="924.7033" y1="-366.2912" x2="927.7177" y2="-97.578" gradientTransform="matrix(0.9645 -0.1859 0.2801 0.9828 -764.483 543.1371)">
				<stop  offset="0" style="stop-color:#2E1D10"/>
				<stop  offset="1" style="stop-color:#714F28"/>
			</linearGradient>
			<path class="st21" d="M89.04,208.81c0,0-0.96,1.71-3.89,3.39c-4.51,2.59-4.2,7.01-3.6,10.15c0,0,6.24-1.65,7.92-5.74
				C91.22,212.33,89.04,208.81,89.04,208.81z"/>
		</g>
	</g>
	<g>
		<g>
			
				<linearGradient id="SVGID_13_" gradientUnits="userSpaceOnUse" x1="4520.1196" y1="259.4753" x2="4523.0142" y2="517.5261" gradientTransform="matrix(-0.9916 -0.1642 -0.1334 0.9864 4726.9204 497.841)">
				<stop  offset="0" style="stop-color:#2E1D10"/>
				<stop  offset="1" style="stop-color:#714F28"/>
			</linearGradient>
			<path class="st22" d="M166.69,237.79c0,0-0.44,2.69-0.4,5.85c0.04,3.16,0.06,6.21-1.38,9.47c0,0,2.43-1,3.51-4.62
				c0,0-0.54,9.77,8.8,17.38c0,0-1.14-3.36-1.67-7.18c-0.23-1.66,5.55,6.46,6.6,11.1c0,0,4.22-10.49,1.43-20.3
				c-2.3-8.09-9.59-10.02-11.7-14.86C171.88,234.63,170.93,237.82,166.69,237.79z"/>
			<path class="st11" d="M171.76,233.42c0,0-1.24,4.6-6.19,3.41c0,0-0.26,0.89,1.03,1.62c1.29,0.72,5.1-0.64,5.91-3.16
				C172.51,235.29,172.79,234.4,171.76,233.42z"/>
			
				<linearGradient id="SVGID_14_" gradientUnits="userSpaceOnUse" x1="4528.8369" y1="259.3775" x2="4531.7319" y2="517.4283" gradientTransform="matrix(-0.9916 -0.1642 -0.1334 0.9864 4726.9204 497.841)">
				<stop  offset="0" style="stop-color:#2E1D10"/>
				<stop  offset="1" style="stop-color:#714F28"/>
			</linearGradient>
			<path class="st23" d="M170.07,227.38c0,0,2.81,3.32,1.6,6.24c-1.07,2.59-2.82,3.06-2.82,3.06l-2.58-4.3L170.07,227.38z"/>
			
				<linearGradient id="SVGID_15_" gradientUnits="userSpaceOnUse" x1="4532.5444" y1="259.3359" x2="4535.4395" y2="517.3867" gradientTransform="matrix(-0.9916 -0.1642 -0.1334 0.9864 4726.9204 497.841)">
				<stop  offset="0" style="stop-color:#2E1D10"/>
				<stop  offset="1" style="stop-color:#714F28"/>
			</linearGradient>
			<path class="st24" d="M160.54,229.68c0,0,0.17,5.13,5.03,7.15c0,0,2.77,0.82,4.47-0.81c0,0-0.41-2.68-3.41-3.52
				C163.2,231.53,160.54,229.68,160.54,229.68z"/>
			
				<linearGradient id="SVGID_16_" gradientUnits="userSpaceOnUse" x1="4532.2715" y1="259.339" x2="4535.166" y2="517.3898" gradientTransform="matrix(-0.9916 -0.1642 -0.1334 0.9864 4726.9204 497.841)">
				<stop  offset="0" style="stop-color:#2E1D10"/>
				<stop  offset="1" style="stop-color:#714F28"/>
			</linearGradient>
			<path class="st25" d="M168.47,219.07c0,0,2.76,3.9,1.99,7.14s-2.71,5.18-3.31,6.39l-4.48-6.79L168.47,219.07z"/>
			
				<linearGradient id="SVGID_17_" gradientUnits="userSpaceOnUse" x1="4536.4785" y1="259.2918" x2="4539.3735" y2="517.3426" gradientTransform="matrix(-0.9916 -0.1642 -0.1334 0.9864 4726.9204 497.841)">
				<stop  offset="0" style="stop-color:#2E1D10"/>
				<stop  offset="1" style="stop-color:#714F28"/>
			</linearGradient>
			<path class="st26" d="M156.98,222.63c0,0,2.52,1.87,4.79,2.47c2.27,0.6,5.26,2.66,5.38,7.5c0,0-6.33-1.31-8.52-4.61
				C156.82,225.26,156.98,222.63,156.98,222.63z"/>
			
				<linearGradient id="SVGID_18_" gradientUnits="userSpaceOnUse" x1="4545.0859" y1="259.1952" x2="4547.981" y2="517.246" gradientTransform="matrix(-0.9916 -0.1642 -0.1334 0.9864 4726.9204 497.841)">
				<stop  offset="0" style="stop-color:#2E1D10"/>
				<stop  offset="1" style="stop-color:#714F28"/>
			</linearGradient>
			<path class="st27" d="M175.15,182.34c0,0,1.33,8.16-4.89,16.15c-6.22,7.99-11.02,11.36-11.02,11.36s-13.6-6.5-14.05-32.26
				C144.74,151.82,178.43,163.35,175.15,182.34z"/>
			
				<linearGradient id="SVGID_19_" gradientUnits="userSpaceOnUse" x1="4545.0869" y1="259.1952" x2="4547.9814" y2="517.246" gradientTransform="matrix(-0.9916 -0.1642 -0.1334 0.9864 4726.9204 497.841)">
				<stop  offset="0" style="stop-color:#2E1D10"/>
				<stop  offset="1" style="stop-color:#714F28"/>
			</linearGradient>
			<path class="st28" d="M133.99,156.75c0,0,5.95,27.46,26.85,36.13c3.4-4.67,31.15-26.77,31.26-26.98"/>
			
				<linearGradient id="SVGID_20_" gradientUnits="userSpaceOnUse" x1="4543.1851" y1="259.2165" x2="4546.0801" y2="517.2673" gradientTransform="matrix(-0.9916 -0.1642 -0.1334 0.9864 4726.9204 497.841)">
				<stop  offset="0" style="stop-color:#2E1D10"/>
				<stop  offset="1" style="stop-color:#714F28"/>
			</linearGradient>
			<path class="st29" d="M162.73,190.93c0,0-7.68,6.46-5.26,14.56"/>
			
				<linearGradient id="SVGID_21_" gradientUnits="userSpaceOnUse" x1="4536.1924" y1="259.295" x2="4539.0869" y2="517.3458" gradientTransform="matrix(-0.9916 -0.1642 -0.1334 0.9864 4726.9204 497.841)">
				<stop  offset="0" style="stop-color:#2E1D10"/>
				<stop  offset="1" style="stop-color:#714F28"/>
			</linearGradient>
			<path class="st30" d="M168.97,210.32c0,0,1.33,3.66,0.43,7.12c-1.54,5.93-4.53,6.08-5.67,8.52l-5.47-8.67L168.97,210.32z"/>
			
				<linearGradient id="SVGID_22_" gradientUnits="userSpaceOnUse" x1="4543.5542" y1="259.2124" x2="4546.4492" y2="517.2632" gradientTransform="matrix(-0.9916 -0.1642 -0.1334 0.9864 4726.9204 497.841)">
				<stop  offset="0" style="stop-color:#2E1D10"/>
				<stop  offset="1" style="stop-color:#714F28"/>
			</linearGradient>
			<path class="st31" d="M152.23,202.99c0,0,9.36,2.18,10.53,12.07c0.64,5.4-5.16,0.62-5.16,0.62s-7.22-3.65-5.32-9.65
				C152.99,203.82,152.23,202.99,152.23,202.99z"/>
			
				<linearGradient id="SVGID_23_" gradientUnits="userSpaceOnUse" x1="4536.3848" y1="259.2928" x2="4539.2793" y2="517.3436" gradientTransform="matrix(-0.9916 -0.1642 -0.1334 0.9864 4726.9204 497.841)">
				<stop  offset="0" style="stop-color:#2E1D10"/>
				<stop  offset="1" style="stop-color:#714F28"/>
			</linearGradient>
			<path class="st32" d="M170.26,198.49c0,0,0.59,5.66-0.46,10.05c-1.04,4.39-7.19,8.77-8.27,11.09c-1.08,2.32-1.61-2.98-1.61-2.98
				s-2.36-6.89,3.54-11.63C168.19,201.24,170.26,198.49,170.26,198.49z"/>
			
				<linearGradient id="SVGID_24_" gradientUnits="userSpaceOnUse" x1="4540.7515" y1="259.2438" x2="4543.6465" y2="517.2947" gradientTransform="matrix(-0.9916 -0.1642 -0.1334 0.9864 4726.9204 497.841)">
				<stop  offset="0" style="stop-color:#2E1D10"/>
				<stop  offset="1" style="stop-color:#714F28"/>
			</linearGradient>
			<path class="st33" d="M154.31,213.09c0,0,1.21,1.63,4.37,3.18c4.88,2.39,5.2,6.65,5.05,9.69c0,0-6.47-1.45-8.74-5.35
				C152.64,216.53,154.31,213.09,154.31,213.09z"/>
		</g>
	</g>
	<path class="st0" d="M118.95,26.75c0,0-62.04-6.17-61.55,59.4c0,0,2.52,41.1,3.44,52.06c1.84,21.97,14.45,28.81,29.11,37.52
		c11.4,6.77,24.97,10.83,31.96,10.71c6.54-0.11,19.99-5.64,32.76-13.69c14.5-9.14,23.04-17.32,24.9-36.68
		c1.05-10.94,3.77-50.79,3.77-50.79C181.58,19.72,118.95,26.75,118.95,26.75z"/>
	<g>
		<g>
			<g>
				
					<radialGradient id="SVGID_25_" cx="226.4269" cy="2197.3545" r="24.9479" gradientTransform="matrix(1.027 -0.0544 0.0354 1.2349 -228.2638 -2565.0989)" gradientUnits="userSpaceOnUse">
					<stop  offset="0" style="stop-color:#EEA493;stop-opacity:0.8"/>
					<stop  offset="1" style="stop-color:#EEA493;stop-opacity:0"/>
				</radialGradient>
				<path class="st34" d="M81.43,168.14c-17.15-0.97-30.78-16.09-30.44-33.79c0.34-17.69,14.52-31.25,31.67-30.29
					s30.78,16.09,30.44,33.79S98.58,169.11,81.43,168.14z"/>
			</g>
		</g>
		<g>
			<g>
				
					<radialGradient id="SVGID_26_" cx="188.6824" cy="1179.4191" r="24.9309" gradientTransform="matrix(0.6388 -0.8119 0.9089 0.8333 -1036.2738 -694.2546)" gradientUnits="userSpaceOnUse">
					<stop  offset="0" style="stop-color:#EEA493;stop-opacity:0.8"/>
					<stop  offset="1" style="stop-color:#EEA493;stop-opacity:0"/>
				</radialGradient>
				<path class="st35" d="M178.76,158.12c-12,12.24-31.83,11.98-44.28-0.59c-12.45-12.57-12.82-32.68-0.82-44.93
					s31.83-11.98,44.28,0.59C190.39,125.76,190.76,145.88,178.76,158.12z"/>
			</g>
		</g>
	</g>
	<g>
		<defs>
			<path id="SVGID_27_" d="M118.95,26.75c0,0-62.04-6.17-61.55,59.4c0,0,2.52,41.1,3.44,52.06c1.84,21.97,14.45,28.81,29.11,37.52
				c11.4,6.77,24.97,10.83,31.96,10.71c6.54-0.11,19.99-5.64,32.76-13.69c14.5-9.14,23.04-17.32,24.9-36.68
				c1.05-10.94,3.77-50.79,3.77-50.79C181.58,19.72,118.95,26.75,118.95,26.75z"/>
		</defs>
		<clipPath id="SVGID_28_">
			<use xlink:href="#SVGID_27_"  style="overflow:visible;"/>
		</clipPath>
	</g>
	<path class="st6" d="M118.95,26.75c0,0-62.04-6.17-61.55,59.4c0,0,2.52,41.1,3.44,52.06c1.84,21.97,14.45,28.81,29.11,37.52
		c11.4,6.77,24.97,10.83,31.96,10.71c6.54-0.11,19.99-5.64,32.76-13.69c14.5-9.14,23.04-17.32,24.9-36.68
		c1.05-10.94,3.77-50.79,3.77-50.79C181.58,19.72,118.95,26.75,118.95,26.75z"/>
	<path class="st1" d="M93.19,37.94C74.61,42.5,63.4,72.69,58.07,96.88c0.34,5.37,0.76,12.12,1.19,18.7
		c11.23-48.81,28-63.9,39.51-65.74c11.55-1.85,20.68,5.93,20.68,5.93S119.03,31.61,93.19,37.94z"/>
	<path class="st1" d="M181.42,112.59c0.42-5.78,0.83-11.59,1.17-16.36c-6.03-24.24-18.39-55.18-37.5-59.18
		c-26.05-5.45-25.63,18.72-25.63,18.72s8.86-8.09,20.46-6.64C151.41,50.58,168.54,64.91,181.42,112.59z"/>
	
		<linearGradient id="SVGID_29_" gradientUnits="userSpaceOnUse" x1="263.5412" y1="-31.6636" x2="266.436" y2="226.3872" gradientTransform="matrix(0.9999 -0.0172 0.0172 0.9999 -143.1257 42.3331)">
		<stop  offset="0" style="stop-color:#2E1D10"/>
		<stop  offset="1" style="stop-color:#714F28"/>
	</linearGradient>
	<path class="st36" d="M118.9,23.58c22.56-13.21,48.89-3.13,56.72,17.4c11.84,31.02,8.12,67.43,8.12,67.43
		c-4.95-19.38-18.98-58.29-39.18-63.69c-16.03-4.28-25.11,11.05-25.11,11.05c-1.16-1.51-10.57-14.59-26.56-10.17
		C72.68,51.2,66.96,74.97,62.68,94.51c0,0-6.5-30.32-0.95-51.58S95.9,11.15,118.9,23.58z"/>
	<g>
		<path class="st6" d="M183.74,108.41c-4.95-19.38-18.68-58.25-39.18-63.69c-16.03-4.26-25.11,11.05-25.11,11.05
			c-1.16-1.51-10.8-15.34-26.56-10.17c-20.88,6.86-25.93,29.36-30.21,48.91"/>
	</g>
	<g>
		<path class="st1" d="M114.74,135.15c2.07-0.24,5.99-0.55,10.13-0.15c0.78,0.07,1.26,0.89,0.95,1.61c-0.96,2.2-3.08,6.16-5.88,6.22
			c-2.9,0.06-5.11-3.87-6.11-6.05C113.49,136.06,113.96,135.24,114.74,135.15z"/>
		<g>
			<g>
				<path class="st37" d="M118.28,134.17c-0.24,1.06,0.35,2.43,1.25,3.01c0.51,0.33,1.2,0.05,1.43-0.48
					c0.25-0.6-0.09-1.13-0.65-1.36c0.09,0.04-0.1-0.06-0.11-0.07c-0.08-0.05-0.17-0.08-0.25-0.13c-0.14-0.09-0.26-0.2-0.38-0.32
					c-0.29-0.29-0.51-0.6-0.87-0.82C118.55,133.9,118.32,133.99,118.28,134.17L118.28,134.17z"/>
			</g>
		</g>
	</g>
	<g>
		
			<linearGradient id="SVGID_30_" gradientUnits="userSpaceOnUse" x1="197.7879" y1="-8.0646" x2="200.6827" y2="249.9863" gradientTransform="matrix(0.9999 -0.0172 0.0168 0.9775 -143.5078 20.1022)">
			<stop  offset="0" style="stop-color:#2E1D10"/>
			<stop  offset="1" style="stop-color:#714F28"/>
		</linearGradient>
		<path class="st38" d="M65.13,83.72c0,0-8.53,45.5-4.43,130.49c0.3,6.13,1.93,11.6,3.78,16c0,0-8.01-3.34-11.96-9.65
			c0,0-1.23,9.88,0.28,14.33c-8.54-3.74-18.9-11.59-20.87-27.89c-3.16-26.24-0.06-79.65,9.87-114.92c0,0,5.73-27.68,16.66-40.4
			s25.2-6.39,25.2-6.39C75.68,57.45,70.55,62.41,65.13,83.72z"/>
		<path class="st5" d="M68.8,59.76c-8.73,4.7-14.12,4.53-17.34,3.16c-4.73,9.85-7.46,19.93-8.71,25.09
			c8.15,3.09,9.59,10.89,9.59,10.89c4.79-5.44,8.65-6.18,11.09-5.81c0.95-6.22,1.69-9.37,1.69-9.37c1.71-5.53,3.1-11.3,5.5-16.58
			C67.81,63.3,68.8,59.76,68.8,59.76z"/>
		<g>
			<path class="st6" d="M56.15,54.69C32.83,90.35,28.77,180.78,31.93,207.01c1.96,16.3,12.33,24.15,20.87,27.89
				c-1.51-4.46-0.28-14.33-0.28-14.33c3.95,6.3,11.96,9.65,11.96,9.65c-1.85-4.4-3.48-9.87-3.78-16
				c-4.1-84.99,3.4-126.02,4.43-130.49c3.12-13.55,9.49-24.75,9.49-24.75"/>
		</g>
	</g>
	<g>
		
			<linearGradient id="SVGID_31_" gradientUnits="userSpaceOnUse" x1="3604.842" y1="-29.5052" x2="3607.7368" y2="228.5455" gradientTransform="matrix(-0.9999 0.0172 1.641001e-03 1.0001 3788.1284 -25.2365)">
			<stop  offset="0" style="stop-color:#2E1D10"/>
			<stop  offset="1" style="stop-color:#714F28"/>
		</linearGradient>
		<path class="st39" d="M174.19,82.76c0,0,9.38,46.23,6.89,133.28c-0.18,6.28-1.71,11.93-3.47,16.5c0,0,7.95-3.69,11.78-10.28
			c0,0,1.41,10.06-0.01,14.67c8.47-4.12,18.68-12.51,20.33-29.24c2.67-26.94-1.44-81.45-12.03-117.18c0,0-6.25-28.11-17.41-40.74
			s-25.31-5.66-25.31-5.66C163.14,56.26,169.75,69.06,174.19,82.76z"/>
		<path class="st5" d="M170.06,58.39c8.81,4.5,15.7,6.77,18.9,5.26c4.46,9.62,6.33,17.49,7.67,22.72
			c-8.09,3.44-9.39,11.47-9.39,11.47c-4.89-5.4-8.77-6.02-11.2-5.56c-1.76-11.28-6.09-20.25-8.59-25.57
			C170.22,62.69,170.06,58.39,170.06,58.39z"/>
		<g>
			<path class="st6" d="M181.42,48.6c20.92,31.67,32.5,120.39,28.28,159.08c-1.82,16.72-11.87,25.12-20.33,29.24
				c1.42-4.61,0.01-14.67,0.01-14.67c-3.83,6.58-11.78,10.28-11.78,10.28c1.77-4.57,3.29-10.22,3.47-16.5
				c1.93-67.53-3.67-110.44-5.71-126.37c-1.47-11.48-8.93-24.71-8.93-24.71"/>
		</g>
	</g>
	<g>
		<g>
			<path class="st8" d="M91.26,306.63l67.14,0.35c0,0,19.79,21.66,22.49,35.47c2.22,11.37,3.68,24.88,3.68,24.88l-63.81,4.44
				l-53.61-0.82c0.56-6.08,0.68-17.4,3.71-28.02C74.94,328.68,85.69,316.99,91.26,306.63z"/>
			<path class="st9" d="M118.31,306.77c0,0-6.82,2.9-20.95,4.21c-1.68,0.16-3.19,1.11-4.03,2.58l-5.12,8.89
				c-1.74,3.02-3.22,6.17-4.43,9.44l-5.83,15.68c-0.79,2.13-1.43,4.33-1.9,6.55l-3.57,16.92l-5.32-0.08
				c0.57-6.09,1.28-15.46,3.72-28.02c2.83-14.56,14.81-25.95,20.39-36.3L118.31,306.77z"/>
			<path class="st9" d="M184.57,367.33l-7.64,0.69l-2.24-11.28c-0.53-2.66-1.26-5.28-2.18-7.84l-6.61-18.27
				c-0.98-2.43-2.12-4.79-3.43-7.06l-5.44-9.44c-0.87-1.51-2.43-2.47-4.17-2.59c-16.1-1.09-23.2-4.7-23.2-4.7l28.73,0.13
				c0,0,19.79,21.66,22.49,35.47C183.11,353.82,184.57,367.33,184.57,367.33z"/>
			<path class="st2" d="M67.16,370.96c0.57-6.21,0.53-17.17,3.71-28.02c3.92-13.38,14.91-26.11,20.39-36.3l67.14,0.35
				c0,0,18.66,19.85,22.49,35.47c3.82,15.63,3.64,24.63,3.64,24.63"/>
		</g>
		<g>
			<path class="st3" d="M92.77,452.14c0,0,0.19,13.75-3.27,33.7c-2.22,12.82-19.51,43.83-21.72,69.36
				c-1.65,14.77-21.69,12.38-16.18-7.38c1.76-26.6,6.84-91.84,10.48-97.54C65.71,444.58,88.41,432.43,92.77,452.14z"/>
			<path class="st40" d="M71.03,539.34c6.42-21.39,16.7-43.25,18.48-53.5c3.46-19.95,3.27-33.7,3.27-33.7
				c-4.36-19.71-27.06-7.55-30.7-1.85c-1.54,2.42-6.39,15.6-8.09,31.99c-1.94,18.65-0.7,41.47-1.82,57.35
				C55.44,541.34,61.78,543.14,71.03,539.34z"/>
		</g>
		<g>
			<path class="st8" d="M122.92,370.96c0,0-25.25,67.93-27.94,74.87c-2.69,6.93-9,17.08-21.41,16.84
				c-12.45-0.24-13.8-11.65-12.01-34.71c1.58-20.41,5.1-55.54,6.15-60.86"/>
			<path class="st9" d="M73.02,367.44l-11.83,77.77c-0.22-4.76,0.04-10.52,0.56-17.26c1.59-20.42,5.1-55.54,6.15-60.87L73.02,367.44
				z"/>
			<path class="st9" d="M111.8,367.09c0,0,1.77,1.06,6.59,3.62c0.43,4.72-18.89,63.23-18.89,63.23l23.41-62.98v0.54l6.94-0.89
				l-1.68-1.44l-4.55,0.08L111.8,367.09z"/>
			<path class="st2" d="M61.3,451.83c-0.36-4.97,0.19-14.77,0.76-23.69c1.29-20.38,4.89-55.75,5.38-61.25"/>
			<path class="st2" d="M122.92,370.96c0,0-26.76,72.61-31.23,81.49"/>
		</g>
		<g>
			<path class="st41" d="M64.02,550c0,0,0.01-4.5-1.89-5.45c-1.9-0.95-10.96-1.21-12.8-0.16c-1.31,0.75-2.24,4.61-2.24,4.61
				s-9.58,12.11-14.25,16.47c-4.56,4.25-10.12,7.9-9.07,23.05c0.05,0.78,0.45,1.49,1.08,1.94c1.72,1.23,5.83,3.47,13.36,3.92
				c10.5,0.64,20.11-1.58,24.61-4.47c5.42-3.48,11.86-13.1,12.34-14.38c0.48-1.27-2.1-22.99-1.82-24.57s1.91-5.8-3.28-7.56
				l-1.12,4.6C68.93,547.99,66.44,554.29,64.02,550z"/>
			<path class="st2" d="M45.61,552.99c0,0,7.72-2.32,16.75,2.68"/>
			<path class="st2" d="M41.86,557.95c0,0,8.85-2.45,16.59,3.39"/>
			<path class="st2" d="M38.3,563.56c0,0,8.01-1.91,16.44,2.66"/>
			<path class="st2" d="M24.06,585.72c0,0,16.58,4.88,31.51,0.98c11.41-2.98,19.17-18.78,19.17-18.78"/>
			<path class="st2" d="M64.02,550c0,0-2.55,1.04-3.27,1.84c-3.2,4.81-8.04,15.13-8.9,15.83c-1.16,0.95,10.54,0.25,13.62,12.62"/>
			<path class="st2" d="M47.09,549c0,0,1.4,0.8,1.63,1.3c0.22,0.5-10.15,14.82-11.13,15.22c-0.98,0.4-4.17-0.06-7.16,2.15"/>
		</g>
		<g>
			<path class="st3" d="M157.49,452.14c0,0-0.19,13.75,3.27,33.7c2.22,12.82,19.51,43.83,21.72,69.36
				c1.65,14.77,21.69,12.38,16.18-7.38c-1.76-26.6-6.84-91.84-10.48-97.54C184.55,444.58,161.86,432.43,157.49,452.14z"/>
			<path class="st40" d="M179.24,539.34c-6.42-21.39-16.7-43.25-18.48-53.5c-3.46-19.95-3.27-33.7-3.27-33.7
				c4.36-19.71,27.06-7.55,30.7-1.85c1.54,2.42,6.39,15.6,8.09,31.99c1.94,18.65,0.7,41.47,1.82,57.35
				C194.82,541.34,188.48,543.14,179.24,539.34z"/>
		</g>
		<g>
			<path class="st8" d="M127.61,370.96c0,0,25.25,67.93,27.94,74.87c2.69,6.93,9,17.08,21.41,16.84
				c12.45-0.24,13.8-11.65,12.01-34.71c-1.58-20.41-5.1-55.54-6.15-60.86"/>
			<path class="st9" d="M176.85,367.46l12.49,77.76c0.22-4.76-0.04-10.52-0.56-17.26c-1.59-20.42-3.19-55.81-4.24-61.14
				L176.85,367.46z"/>
			<path class="st9" d="M138.72,367.09c0,0-1.77,1.06-6.59,3.62c-0.43,4.72,18.89,63.23,18.89,63.23l-23.41-62.98v0.54l-6.94-0.89
				l1.68-1.44l4.55,0.08L138.72,367.09z"/>
			<path class="st2" d="M189.22,451.83c0.36-4.97-0.19-14.77-0.76-23.69c-1.29-20.38-3.53-55.82-3.93-61.33"/>
			<path class="st2" d="M127.61,370.96c0,0,26.76,72.61,31.23,81.49"/>
		</g>
		<g>
			<path class="st41" d="M186.24,550c0,0-0.01-4.5,1.89-5.45s10.96-1.21,12.8-0.16c1.31,0.75,2.24,4.61,2.24,4.61
				s9.58,12.11,14.25,16.47c4.56,4.25,10.12,7.9,9.07,23.05c-0.05,0.78-0.45,1.49-1.08,1.94c-1.72,1.23-5.83,3.47-13.36,3.92
				c-10.5,0.64-20.11-1.58-24.61-4.47c-5.42-3.48-11.86-13.1-12.34-14.38c-0.48-1.27,2.1-22.99,1.82-24.57s-1.91-5.8,3.28-7.56
				l1.12,4.6C181.33,547.99,183.82,554.29,186.24,550z"/>
			<path class="st2" d="M204.66,552.99c0,0-7.72-2.32-16.75,2.68"/>
			<path class="st2" d="M208.4,557.95c0,0-8.85-2.45-16.59,3.39"/>
			<path class="st2" d="M211.96,563.56c0,0-8.01-1.91-16.44,2.66"/>
			<path class="st2" d="M226.2,585.72c0,0-16.58,4.88-31.51,0.98c-11.41-2.98-19.17-18.78-19.17-18.78"/>
			<path class="st2" d="M186.24,550c0,0,2.55,1.04,3.27,1.84c3.2,4.81,8.04,15.13,8.9,15.83c1.16,0.95-10.54,0.25-13.62,12.62"/>
			<path class="st2" d="M203.17,549c0,0-1.4,0.8-1.63,1.3c-0.22,0.5,10.15,14.82,11.13,15.22c0.98,0.4,4.17-0.06,7.16,2.15"/>
		</g>
		<path class="st2" d="M121.17,370.7c0,0,1.7,0.51,3.96,0.51s3.96-0.51,3.96-0.51"/>
	</g>
	<g>
		<path class="st42" d="M133.13,128.35c0,0-2.35-16.6,2.25-23.68c4.6-7.08,20.89-12.77,33.35-4.26c0,0,5.53,17.65-5.32,26.54
			S133.13,128.35,133.13,128.35z"/>
		<path class="st43" d="M132.53,119.02c15.06-19.19,32.43-11.99,37.58-9.78c-0.18-5-1.38-8.83-1.38-8.83
			c-4.66-3.19-9.87-4.38-14.79-4.26c-4.58,0.16-8.91,1.4-12.36,3.22c-2.74,1.48-4.92,3.33-6.2,5.3
			C133.1,108.18,132.53,114.01,132.53,119.02z"/>
		<g>
			<path class="st44" d="M164.37,91.56c-4.56-1.11-13.66-2.21-22.45,1.61c-3.66,1.59-7.35,4.43-9.18,6.1"/>
			<path class="st44" d="M166.02,92c-0.35-0.1-0.42-0.12-0.9-0.25"/>
			<path class="st44" d="M167.28,92.41c0,0,0.08,0.02-0.37-0.12"/>
		</g>
		<g>
			<path class="st45" d="M167.54,124.77c0,0-10.21,8-28.46,5.37C139.08,130.14,157.69,136.23,167.54,124.77z"/>
			<path class="st45" d="M163.29,131.12c0,0-1.68-0.54-5.77-0.58l3.16-1.08C160.68,129.46,161.81,129.86,163.29,131.12z"/>
			<path class="st45" d="M167.08,129.64c0,0-3.16-0.38-6.88-0.41l3.04-1.34C163.23,127.89,165.27,128.47,167.08,129.64z"/>
			<path class="st45" d="M168.38,127.68c0,0-2.55,0.07-4.79,0.3l1.38-1.24C164.97,126.73,166.84,126.97,168.38,127.68z"/>
		</g>
		<path class="st45" d="M131.57,117.24c0,0,3.55-18.24,20.64-18.91c12.48-0.49,19.6,7.54,19.6,7.54l-1.29-3.29l4.03,1.29
			c0,0-8.98-10.25-20.5-10.11c-12.7,0.16-18.63,7.35-22.13,13.97c0,0,2.31-1.85,2.09-1.41
			C132.85,108.69,132.06,112.46,131.57,117.24z"/>
		<path class="st45" d="M176.21,94.15c0,0-7.7,2.96-16.54,1.74s4.7,3.36,4.7,3.36S170.53,98.83,176.21,94.15z"/>
		<g>
			
				<linearGradient id="SVGID_32_" gradientUnits="userSpaceOnUse" x1="2763.7864" y1="136.376" x2="2764.0713" y2="164.2869" gradientTransform="matrix(-0.9995 0.0317 0.0317 0.9995 2909.0598 -125.1209)">
				<stop  offset="0" style="stop-color:#2F1D10"/>
				<stop  offset="1" style="stop-color:#BF7C35"/>
			</linearGradient>
			<path class="st46" d="M140.39,113.9c-0.4,8.13,4.68,15.31,11.39,15.09c6.71-0.21,11.32-7.69,10.41-15.79
				c-0.81-7.22-5.84-12.39-11.3-12.22C145.43,101.16,140.74,106.64,140.39,113.9z"/>
			
				<ellipse transform="matrix(0.9995 -0.0317 0.0317 0.9995 -3.5853 4.8458)" class="st47" cx="151.07" cy="115.52" rx="5.22" ry="6.61"/>
			
				<ellipse transform="matrix(0.7834 -0.6216 0.6216 0.7834 -34.4293 119.1836)" class="st42" cx="153.76" cy="108.98" rx="3.11" ry="4.29"/>
			<path class="st42" d="M158.56,117.45c-0.04-1.24-0.95-2.04-2.18-2.08c-0.89-0.03-1.75,0.69-2.02,1.58c0,0-0.77,2.24-2.94,3.33
				c-1.11,0.38-1.89,1.43-1.85,2.66c0.05,1.51,1.31,2.69,2.82,2.65c0.37-0.01,0.71-0.1,1.03-0.24c0,0,0,0,0,0s3.28-0.81,5-6.78
				l0.08-0.29C158.56,118.05,158.57,117.72,158.56,117.45z"/>
		</g>
		<path class="st44" d="M132.29,104.53c0,0,4.58-4.88,8.62-6.63"/>
	</g>
	<g>
		<path class="st42" d="M106.32,127.44c0,0,1.29-16.72-3.74-23.49c-5.04-6.78-21.66-11.42-33.55-2.14c0,0-4.4,17.97,6.99,26.15
			S106.32,127.44,106.32,127.44z"/>
		<path class="st43" d="M106.33,118.08c-16.25-18.2-33.13-9.91-38.12-7.38c-0.13-5,0.82-8.9,0.82-8.9c4.45-3.48,9.57-5,14.49-5.19
			c4.58-0.13,8.98,0.84,12.54,2.43c2.83,1.3,5.12,3.01,6.52,4.89C105.07,107.3,106.01,113.09,106.33,118.08z"/>
		<g>
			<path class="st44" d="M72.81,92.69c4.48-1.39,13.49-3.07,22.51,0.19c3.75,1.35,7.61,3.96,9.55,5.5"/>
			<path class="st44" d="M71.19,93.24c0.35-0.13,0.41-0.15,0.88-0.3"/>
			<path class="st44" d="M69.96,93.72c0,0-0.08,0.02,0.36-0.15"/>
		</g>
		<g>
			<path class="st45" d="M71.75,126.04c0,0,10.69,7.33,28.74,3.56C100.49,129.6,82.3,136.85,71.75,126.04z"/>
			<path class="st45" d="M76.4,132.1c0,0,1.64-0.65,5.73-0.94l-3.23-0.88C78.9,130.28,77.79,130.76,76.4,132.1z"/>
			<path class="st45" d="M72.52,130.87c0,0,3.13-0.58,6.84-0.85l-3.11-1.14C76.25,128.88,74.25,129.58,72.52,130.87z"/>
			<path class="st45" d="M71.1,128.99c0,0,2.55-0.09,4.8-0.01l-1.46-1.15C74.44,127.83,72.59,128.19,71.1,128.99z"/>
		</g>
		<path class="st45" d="M107.17,116.24c0,0-4.7-17.98-21.8-17.56c-12.48,0.31-19.08,8.76-19.08,8.76l1.08-3.37l-3.94,1.54
			c0,0,8.31-10.8,19.82-11.39c12.69-0.65,19.05,6.15,22.97,12.54c0,0-2.42-1.7-2.18-1.27C105.36,107.79,106.38,111.5,107.17,116.24z
			"/>
		<path class="st45" d="M61,96.04c0,0,7.87,2.47,16.61,0.69s-4.48,3.65-4.48,3.65S66.98,100.34,61,96.04z"/>
		<g>
			
				<linearGradient id="SVGID_33_" gradientUnits="userSpaceOnUse" x1="-1167.8289" y1="134.0216" x2="-1167.5441" y2="161.9325" gradientTransform="matrix(0.9995 -0.0317 0.0317 0.9995 1249.6438 -72.5037)">
				<stop  offset="0" style="stop-color:#2F1D10"/>
				<stop  offset="1" style="stop-color:#BF7C35"/>
			</linearGradient>
			<path class="st48" d="M98.18,112.88c0.91,8.09-3.7,15.57-10.41,15.79c-6.71,0.21-11.79-6.96-11.39-15.09
				c0.36-7.26,5.04-12.74,10.5-12.91S97.37,105.66,98.18,112.88z"/>
			
				<ellipse transform="matrix(0.9995 -0.0317 0.0317 0.9995 -3.6063 2.8349)" class="st47" cx="87.62" cy="115.18" rx="5.22" ry="6.61"/>
			
				<ellipse transform="matrix(0.7834 -0.6216 0.6216 0.7834 -48.0919 79.3312)" class="st42" cx="89.76" cy="108.66" rx="3.11" ry="4.29"/>
			<path class="st42" d="M94.55,117.13c-0.04-1.24-0.95-2.04-2.18-2.08c-0.89-0.03-1.75,0.69-2.02,1.58c0,0-0.77,2.24-2.94,3.33
				c-1.11,0.38-1.89,1.43-1.85,2.66c0.05,1.51,1.31,2.69,2.82,2.65c0.37-0.01,0.71-0.1,1.03-0.24c0,0,0,0,0,0s3.28-0.81,5-6.78
				l0.08-0.29C94.56,117.73,94.56,117.4,94.55,117.13z"/>
		</g>
		<path class="st44" d="M105.64,103.61c0,0-4.88-4.58-9.02-6.07"/>
	</g>
	<g>
		<path class="st1" d="M106.02,86.06c0,0,1.24-0.3,2,4.16c0.17,0.97-0.89,1.68-1.72,1.15c-4.01-2.6-12.82-8.24-15.81-9.74
			C86.58,79.65,103.3,82.75,106.02,86.06z"/>
		<path class="st45" d="M107.39,87.9c0,0-8.13-5.27-20.44-5.46s-17.3,3.13-17.3,3.13s4.53-4.52,16.71-5.21
			c13.87-0.79,18.14,2.46,19.41,3.65C106.73,84.89,107.39,87.9,107.39,87.9z"/>
	</g>
	<g>
		<path class="st1" d="M132.01,86.06c0,0-1.24-0.3-2,4.16c-0.17,0.97,0.89,1.68,1.72,1.15c4.01-2.6,12.82-8.24,15.81-9.74
			C151.44,79.65,134.72,82.75,132.01,86.06z"/>
		<path class="st45" d="M130.64,87.9c0,0,8.13-5.27,20.44-5.46s17.3,3.13,17.3,3.13s-4.53-4.52-16.71-5.21
			c-13.87-0.79-18.14,2.46-19.41,3.65C131.29,84.89,130.64,87.9,130.64,87.9z"/>
	</g>
	<g>
		<path class="st2" d="M101.68,151.65c0,0,9.07,6.93,18.69,6.93s18.69-6.93,18.69-6.93"/>
	</g>
	<path class="st3" d="M43.21,280.16c-8.18,11.87-10.37,25.58-13.73,34.52c-3.43,9.12-11.27,30.23-11.27,30.23
		s-10.57,12.74-6.22,16.87c4.38,4.15,11.63,6.16,18.93-5.2c7.13-11.09,27.93-42.94,32.24-53.09c4.18-9.85,5.67-15.88,5.67-15.88"/>
	<g>
		<path class="st3" d="M33.71,351.76c0,0,3.1,6.87,0.05,12.8c-2.38,4.64-9.56,12.68-9.56,12.68c-9.13-3.91-17.02-8.24-22.44-13.43
			c0,0,0.1-7.9,8.21-13.53c1.62-1.13,7.49-5.03,9.53-5.87"/>
		<path class="st3" d="M17.93,369.17c0,0-0.22,8.69,4.99,10.87c2.92,1.22,7.35-3.6,8.18-5.69c1.28-3.18-1.61-7.76-7.97-1.04"/>
		<path class="st3" d="M12.81,367.34c0,0-2.37,9.21,2.51,12.27c2.91,1.82,9.48-3.21,11.38-5.4c0.91-1.04,2.46-2.05,2.41-3.09
			c-0.09-2.27-3.94-3.7-11.34,0.99"/>
		<path class="st3" d="M7.19,366.04c0,0-2.86,9.43,2.28,12.37c3.06,1.75,10.11-3.75,12.4-5.86c1.42-1.31,2.9-2.22,2.75-3.31
			c-0.27-2.1-4.52-3.31-12.27,1.47"/>
		<path class="st3" d="M2.09,362.41c0,0-3.79,9.9,1.35,12.85c3.06,1.75,12.19-4.99,15.12-6.04c2.93-1.05,0.35-8.87-11.44-1.59"/>
		<path class="st3" d="M26.51,354.06c0,0-4.58,6.61-12.23,7.41l-1.69,5.33c0,0,1.77,7.38-2.64,8.29c-0.77,0.16-1.71-0.14-2.01-0.79
			c-1.05-2.28-1.8-6.73-2.34-8.64c-0.38-1.34,1.47-5.87,1.14-8.71"/>
	</g>
	<path class="st1" d="M108.8,160.78c0,0,5.03,1.87,11.66,1.87s11.78-1.87,11.78-1.87s-8.44,7.42-11.72,7.42
		S108.8,160.78,108.8,160.78z"/>
</g>
</svg>
