<svg width="25" height="25" viewBox="0 0 25 25" fill="none" xmlns="http://www.w3.org/2000/svg">
<g id="google-icon.b10dc24e.svg">
<path id="Vector" d="M22.7157 10.8716H21.9102V10.8301H12.9102V14.8301H18.5617C17.7372 17.1586 15.5217 18.8301 12.9102 18.8301C9.59666 18.8301 6.91016 16.1436 6.91016 12.8301C6.91016 9.51658 9.59666 6.83008 12.9102 6.83008C14.4397 6.83008 15.8312 7.40708 16.8907 8.34958L19.7192 5.52108C17.9332 3.85658 15.5442 2.83008 12.9102 2.83008C7.38766 2.83008 2.91016 7.30758 2.91016 12.8301C2.91016 18.3526 7.38766 22.8301 12.9102 22.8301C18.4327 22.8301 22.9102 18.3526 22.9102 12.8301C22.9102 12.1596 22.8412 11.5051 22.7157 10.8716Z" fill="#FFC107"/>
<path id="Vector_2" d="M4.06348 8.17558L7.34898 10.5851C8.23798 8.38408 10.391 6.83008 12.9105 6.83008C14.44 6.83008 15.8315 7.40708 16.891 8.34958L19.7195 5.52108C17.9335 3.85658 15.5445 2.83008 12.9105 2.83008C9.06948 2.83008 5.73848 4.99858 4.06348 8.17558Z" fill="#FF3D00"/>
<path id="Vector_3" d="M12.9098 22.8299C15.4928 22.8299 17.8398 21.8414 19.6143 20.2339L16.5193 17.6149C15.4816 18.404 14.2135 18.8309 12.9098 18.8299C10.3088 18.8299 8.10032 17.1714 7.26832 14.8569L4.00732 17.3694C5.66232 20.6079 9.02332 22.8299 12.9098 22.8299Z" fill="#4CAF50"/>
<path id="Vector_4" d="M22.7157 10.8716H21.9102V10.8301H12.9102V14.8301H18.5617C18.1673 15.9383 17.4569 16.9067 16.5182 17.6156L16.5197 17.6146L19.6147 20.2336C19.3957 20.4326 22.9102 17.8301 22.9102 12.8301C22.9102 12.1596 22.8412 11.5051 22.7157 10.8716Z" fill="#1976D2"/>
</g>
</svg>
