<svg width="22" height="18" viewBox="0 0 22 18" fill="none" xmlns="http://www.w3.org/2000/svg">
<g id="Icon" clip-path="url(#clip0_12_115)">
<path id="Vector" d="M2.11051 9.1582C1.55973 8.43164 1.19645 7.63476 1.02066 6.76758C0.833165 5.90039 0.830235 5.05664 1.01188 4.23633C1.19352 3.41601 1.55973 2.66015 2.11051 1.96875C2.66129 1.28906 3.39371 0.767576 4.30777 0.404295C5.22184 0.029295 6.04215 -0.0937519 6.76871 0.0351543C7.49527 0.152342 8.13395 0.395506 8.68473 0.764647C9.23551 1.13379 9.69254 1.55859 10.0558 2.03906C10.4191 2.53125 10.6945 2.95898 10.882 3.32226C11.0578 2.95898 11.3683 2.53125 11.8136 2.03906C12.2472 1.55859 12.7834 1.13379 13.422 0.764647C14.0607 0.395506 14.7843 0.152342 15.5929 0.0351543C16.4015 -0.0937519 17.2629 0.029295 18.1769 0.404295C19.091 0.767576 19.7824 1.28906 20.2511 1.96875C20.7199 2.66015 21.0011 3.41601 21.0949 4.23633C21.1886 5.05664 21.1066 5.90039 20.8488 6.76758C20.591 7.63476 20.1867 8.43164 19.6359 9.1582C19.0851 9.88476 18.3234 10.752 17.3507 11.7598C16.3664 12.7676 15.3937 13.7256 14.4328 14.6338C13.4718 15.542 12.6398 16.3184 11.9367 16.9629C11.2336 17.6074 10.882 17.9297 10.882 17.9297C10.882 17.9297 10.5246 17.6074 9.80973 16.9629C9.1066 16.3184 8.27457 15.542 7.31363 14.6338C6.3527 13.7256 5.3859 12.7676 4.41324 11.7598C3.42887 10.752 2.66129 9.88476 2.11051 9.1582Z" fill="#6C6F78"/>
</g>
<defs>
<clipPath id="clip0_12_115">
<rect width="20.25" height="18" fill="white" transform="matrix(1 0 0 -1 0.880005 18)"/>
</clipPath>
</defs>
</svg>
