<svg width="20" height="21" viewBox="0 0 20 21" fill="none" xmlns="http://www.w3.org/2000/svg">
<g id="Icon">
<path id="Vector" d="M12.2656 4.34229C11.7839 4.6027 11.3835 4.91195 11.0645 5.27002C10.7454 5.62809 10.5273 5.93083 10.4102 6.17822C10.3581 6.28239 10.2832 6.36377 10.1855 6.42236C10.0879 6.48096 9.98047 6.51025 9.86328 6.51025C9.74609 6.51025 9.64193 6.48096 9.55078 6.42236C9.45964 6.36377 9.38802 6.28239 9.33594 6.17822C9.19271 5.90479 8.98763 5.59229 8.7207 5.24072C8.45378 4.88916 8.125 4.58317 7.73438 4.32275C7.35677 4.06234 6.91732 3.88981 6.41602 3.80518C5.91471 3.72054 5.34505 3.80843 4.70703 4.06885C4.05599 4.32926 3.53516 4.70036 3.14453 5.18213C2.75391 5.6639 2.49349 6.19775 2.36328 6.78369C2.23307 7.36963 2.23307 7.9751 2.36328 8.6001C2.49349 9.2251 2.76042 9.80452 3.16406 10.3384C3.3724 10.6248 3.63932 10.9504 3.96484 11.3149C4.27734 11.6665 4.61914 12.0343 4.99023 12.4185C5.36133 12.8026 5.7487 13.1965 6.15234 13.6001C6.56901 14.0037 6.97266 14.3879 7.36328 14.7524C7.75391 15.13 8.125 15.4816 8.47656 15.8071C8.82812 16.1326 9.13411 16.4191 9.39453 16.6665C9.48568 16.7446 9.57031 16.8195 9.64844 16.8911C9.72656 16.9627 9.79818 17.0246 9.86328 17.0767C9.92839 17.0246 10 16.9627 10.0781 16.8911C10.1562 16.8195 10.2409 16.7446 10.332 16.6665C10.5924 16.4191 10.8984 16.1326 11.25 15.8071C11.6016 15.4816 11.9727 15.13 12.3633 14.7524C12.7669 14.3879 13.1706 14.0037 13.5742 13.6001C13.9779 13.1965 14.3652 12.8026 14.7363 12.4185C15.1074 12.0343 15.4557 11.6665 15.7812 11.3149C16.0938 10.9504 16.3607 10.6248 16.582 10.3384C16.9857 9.7915 17.2819 9.19906 17.4707 8.56104C17.6595 7.92301 17.7214 7.31104 17.6562 6.7251C17.5911 6.15218 17.3958 5.63135 17.0703 5.1626C16.7448 4.69385 16.263 4.32926 15.625 4.06885C14.987 3.80843 14.3815 3.72054 13.8086 3.80518C13.2357 3.88981 12.7214 4.06885 12.2656 4.34229ZM9.86328 17.897C9.66797 18.1183 9.55404 18.2485 9.52148 18.2876C9.48893 18.3267 9.47266 18.3462 9.47266 18.3462L9.41406 18.2876C9.38802 18.2616 9.35872 18.2355 9.32617 18.2095C9.29362 18.1834 9.26432 18.1574 9.23828 18.1313C9.16016 18.0662 9.06575 17.9849 8.95508 17.8872C8.8444 17.7896 8.72396 17.6756 8.59375 17.5454C8.32031 17.298 8.00781 17.0116 7.65625 16.686C7.30469 16.3605 6.92708 16.009 6.52344 15.6313C6.13281 15.2537 5.73568 14.8631 5.33203 14.4595C4.91536 14.0558 4.51497 13.6554 4.13086 13.2583C3.74674 12.8612 3.38542 12.4738 3.04688 12.0962C2.70833 11.7186 2.42839 11.3735 2.20703 11.061C1.69922 10.397 1.36068 9.66781 1.19141 8.87354C1.02214 8.07926 1.02214 7.30127 1.19141 6.53955C1.36068 5.77783 1.69922 5.07796 2.20703 4.43994C2.71484 3.7889 3.39844 3.29411 4.25781 2.95557C5.10417 2.61702 5.87565 2.50635 6.57227 2.62354C7.26888 2.74072 7.8776 2.96859 8.39844 3.30713C8.72396 3.52848 9.01042 3.76937 9.25781 4.02979C9.50521 4.2902 9.71354 4.54411 9.88281 4.7915C10.1042 4.53109 10.3646 4.26742 10.6641 4.00049C10.9635 3.73356 11.2956 3.49593 11.6602 3.2876C12.2461 2.96208 12.9167 2.74072 13.6719 2.62354C14.4271 2.50635 15.2279 2.61702 16.0742 2.95557C16.9336 3.30713 17.5879 3.80843 18.0371 4.45947C18.4863 5.11051 18.7565 5.82015 18.8477 6.58838C18.9258 7.35661 18.8477 8.13135 18.6133 8.9126C18.3789 9.69385 18.0208 10.41 17.5391 11.061C17.3047 11.3735 17.0182 11.7186 16.6797 12.0962C16.3542 12.4738 15.9961 12.8612 15.6055 13.2583C15.2148 13.6554 14.8177 14.0558 14.4141 14.4595C13.9974 14.8631 13.5938 15.2537 13.2031 15.6313C12.7995 16.009 12.4219 16.3605 12.0703 16.686C11.7188 17.0116 11.4062 17.298 11.1328 17.5454C11.0026 17.6756 10.8854 17.7896 10.7812 17.8872C10.6771 17.9849 10.5859 18.0662 10.5078 18.1313C10.4688 18.1574 10.4329 18.1834 10.4004 18.2095C10.3678 18.2355 10.3451 18.2616 10.332 18.2876L10.2734 18.3462C10.2734 18.3462 10.2539 18.3267 10.2148 18.2876C10.1758 18.2485 10.0586 18.1183 9.86328 17.897ZM9.86328 17.897L10.2734 18.3462C10.1562 18.4373 10.0195 18.4829 9.86328 18.4829C9.70703 18.4829 9.57682 18.4373 9.47266 18.3462L9.86328 17.897Z" fill="#868A93"/>
</g>
</svg>

