<svg width="24" height="26" viewBox="0 0 24 26" fill="#E4485B" xmlns="http://www.w3.org/2000/svg">
<g id="Icon">
<path id="Vector" d="M14.7188 5.38281C14.1406 5.69531 13.6602 6.06641 13.2773 6.49609C12.8945 6.92578 12.6328 7.28906 12.4922 7.58594C12.4297 7.71094 12.3398 7.80859 12.2227 7.87891C12.1055 7.94922 11.9766 7.98438 11.8359 7.98438C11.6953 7.98438 11.5703 7.94922 11.4609 7.87891C11.3516 7.80859 11.2656 7.71094 11.2031 7.58594C11.0312 7.25781 10.7852 6.88281 10.4648 6.46094C10.1445 6.03906 9.75 5.67188 9.28125 5.35938C8.82812 5.04688 8.30078 4.83984 7.69922 4.73828C7.09766 4.63672 6.41406 4.74219 5.64844 5.05469C4.86719 5.36719 4.24219 5.8125 3.77344 6.39062C3.30469 6.96875 2.99219 7.60938 2.83594 8.3125C2.67969 9.01562 2.67969 9.74219 2.83594 10.4922C2.99219 11.2422 3.3125 11.9375 3.79688 12.5781C4.04688 12.9219 4.36719 13.3125 4.75781 13.75C5.13281 14.1719 5.54297 14.6133 5.98828 15.0742C6.43359 15.5352 6.89844 16.0078 7.38281 16.4922C7.88281 16.9766 8.36719 17.4375 8.83594 17.875C9.30469 18.3281 9.75 18.75 10.1719 19.1406C10.5938 19.5312 10.9609 19.875 11.2734 20.1719C11.3828 20.2656 11.4844 20.3555 11.5781 20.4414C11.6719 20.5273 11.7578 20.6016 11.8359 20.6641C11.9141 20.6016 12 20.5273 12.0938 20.4414C12.1875 20.3555 12.2891 20.2656 12.3984 20.1719C12.7109 19.875 13.0781 19.5312 13.5 19.1406C13.9219 18.75 14.3672 18.3281 14.8359 17.875C15.3203 17.4375 15.8047 16.9766 16.2891 16.4922C16.7734 16.0078 17.2383 15.5352 17.6836 15.0742C18.1289 14.6133 18.5469 14.1719 18.9375 13.75C19.3125 13.3125 19.6328 12.9219 19.8984 12.5781C20.3828 11.9219 20.7383 11.2109 20.9648 10.4453C21.1914 9.67969 21.2656 8.94531 21.1875 8.24219C21.1094 7.55469 20.875 6.92969 20.4844 6.36719C20.0938 5.80469 19.5156 5.36719 18.75 5.05469C17.9844 4.74219 17.2578 4.63672 16.5703 4.73828C15.8828 4.83984 15.2656 5.05469 14.7188 5.38281ZM11.8359 21.6484C11.6016 21.9141 11.4648 22.0703 11.4258 22.1172C11.3867 22.1641 11.3672 22.1875 11.3672 22.1875L11.2969 22.1172C11.2656 22.0859 11.2305 22.0547 11.1914 22.0234C11.1523 21.9922 11.1172 21.9609 11.0859 21.9297C10.9922 21.8516 10.8789 21.7539 10.7461 21.6367C10.6133 21.5195 10.4688 21.3828 10.3125 21.2266C9.98438 20.9297 9.60938 20.5859 9.1875 20.1953C8.76562 19.8047 8.3125 19.3828 7.82812 18.9297C7.35938 18.4766 6.88281 18.0078 6.39844 17.5234C5.89844 17.0391 5.41797 16.5586 4.95703 16.082C4.49609 15.6055 4.0625 15.1406 3.65625 14.6875C3.25 14.2344 2.91406 13.8203 2.64844 13.4453C2.03906 12.6484 1.63281 11.7734 1.42969 10.8203C1.22656 9.86719 1.22656 8.93359 1.42969 8.01953C1.63281 7.10547 2.03906 6.26562 2.64844 5.5C3.25781 4.71875 4.07812 4.125 5.10938 3.71875C6.125 3.3125 7.05078 3.17969 7.88672 3.32031C8.72266 3.46094 9.45312 3.73438 10.0781 4.14062C10.4688 4.40625 10.8125 4.69531 11.1094 5.00781C11.4062 5.32031 11.6562 5.625 11.8594 5.92188C12.125 5.60938 12.4375 5.29297 12.7969 4.97266C13.1562 4.65234 13.5547 4.36719 13.9922 4.11719C14.6953 3.72656 15.5 3.46094 16.4062 3.32031C17.3125 3.17969 18.2734 3.3125 19.2891 3.71875C20.3203 4.14062 21.1055 4.74219 21.6445 5.52344C22.1836 6.30469 22.5078 7.15625 22.6172 8.07812C22.7109 9 22.6172 9.92969 22.3359 10.8672C22.0547 11.8047 21.625 12.6641 21.0469 13.4453C20.7656 13.8203 20.4219 14.2344 20.0156 14.6875C19.625 15.1406 19.1953 15.6055 18.7266 16.082C18.2578 16.5586 17.7812 17.0391 17.2969 17.5234C16.7969 18.0078 16.3125 18.4766 15.8438 18.9297C15.3594 19.3828 14.9062 19.8047 14.4844 20.1953C14.0625 20.5859 13.6875 20.9297 13.3594 21.2266C13.2031 21.3828 13.0625 21.5195 12.9375 21.6367C12.8125 21.7539 12.7031 21.8516 12.6094 21.9297C12.5625 21.9609 12.5195 21.9922 12.4805 22.0234C12.4414 22.0547 12.4141 22.0859 12.3984 22.1172L12.3281 22.1875C12.3281 22.1875 12.3047 22.1641 12.2578 22.1172C12.2109 22.0703 12.0703 21.9141 11.8359 21.6484ZM11.8359 21.6484L12.3281 22.1875C12.1875 22.2969 12.0234 22.3516 11.8359 22.3516C11.6484 22.3516 11.4922 22.2969 11.3672 22.1875L11.8359 21.6484Z" fill="#303033"/>
</g>
</svg>
