<svg width="24" height="24" viewBox="0 0 24 24" fill="none" xmlns="http://www.w3.org/2000/svg">
<g id="57b19d90-67df-11ee-928f-3dc9e9c1de03.svg">
<path id="Vector" d="M21.2586 6.4688C21.213 6.35635 21.141 6.25663 21.0485 6.17815C20.9559 6.09969 20.8458 6.04483 20.7275 6.01828C20.6091 5.99173 20.4861 5.99429 20.3689 6.02573C20.2518 6.05717 20.144 6.11656 20.0548 6.1988L16.2767 9.68535L14.6613 9.33847L14.3145 7.7232L17.8011 3.94505C17.8833 3.85589 17.9427 3.74811 17.9742 3.63095C18.0056 3.5138 18.0081 3.39076 17.9816 3.27241C17.955 3.15405 17.9001 3.04389 17.8217 2.95139C17.7432 2.85889 17.6435 2.7868 17.5311 2.7413C16.5063 2.32677 15.3954 2.17025 14.296 2.2855C13.1967 2.40076 12.1424 2.78425 11.2259 3.40228C10.3094 4.02032 9.55872 4.85399 9.03979 5.83003C8.52087 6.80608 8.24959 7.89465 8.24982 9.00007C8.24862 9.93352 8.44009 10.8571 8.81232 11.7132L3.16763 16.5938C3.15357 16.6051 3.14044 16.6182 3.12732 16.6303C2.56465 17.1931 2.24854 17.9562 2.24854 18.7519C2.24854 19.1459 2.32615 19.5361 2.47693 19.9001C2.62771 20.2641 2.84871 20.5949 3.12732 20.8735C3.40592 21.1521 3.73668 21.3731 4.1007 21.5239C4.46472 21.6747 4.85487 21.7522 5.24888 21.7522C6.04462 21.7522 6.80777 21.4362 7.37044 20.8735C7.38263 20.8613 7.39576 20.8472 7.40701 20.8341L12.2867 15.1876C13.3146 15.6388 14.4388 15.8265 15.5575 15.7337C16.6763 15.641 17.7542 15.2707 18.6938 14.6563C19.6333 14.042 20.4048 13.2031 20.9385 12.2154C21.4721 11.2278 21.7509 10.1226 21.7498 9.00007C21.7512 8.13247 21.5844 7.27285 21.2586 6.4688ZM14.9998 14.2501C14.112 14.2488 13.239 14.023 12.462 13.5938C12.3114 13.5106 12.1369 13.4817 11.9676 13.5119C11.7983 13.5421 11.6445 13.6297 11.532 13.7597L6.29138 19.8291C6.00778 20.0986 5.63016 20.2465 5.23902 20.2415C4.84788 20.2365 4.47416 20.0789 4.19756 19.8023C3.92096 19.5257 3.76336 19.152 3.75835 18.7609C3.75334 18.3697 3.90133 17.992 4.17076 17.7085L10.2354 12.4688C10.3658 12.3562 10.4534 12.2023 10.4836 12.0328C10.5138 11.8633 10.4848 11.6885 10.4013 11.5378C9.92329 10.6732 9.69889 9.69105 9.75409 8.7045C9.80922 7.71802 10.1416 6.76704 10.7131 5.96101C11.2846 5.15497 12.072 4.52658 12.9847 4.14807C13.8974 3.76955 14.8984 3.65629 15.8726 3.8213L12.9476 6.99099C12.8662 7.07928 12.8073 7.18582 12.7756 7.30165C12.744 7.41748 12.7406 7.53922 12.7657 7.6566L13.2963 10.1251C13.3267 10.2662 13.3972 10.3957 13.4993 10.4977C13.6014 10.5999 13.7308 10.6703 13.872 10.7007L16.3423 11.2313C16.4597 11.2564 16.5815 11.2531 16.6973 11.2214C16.8131 11.1898 16.9197 11.1308 17.0079 11.0494L20.1776 8.12445C20.304 8.87722 20.2648 9.64852 20.0629 10.3847C19.861 11.1208 19.5011 11.8042 19.0083 12.3872C18.5155 12.9702 17.9017 13.4388 17.2095 13.7605C16.5172 14.0822 15.7632 14.2492 14.9998 14.2501Z" fill="#343330"/>
</g>
</svg>
