<svg width="18" height="18" viewBox="0 0 18 18" fill="none" xmlns="http://www.w3.org/2000/svg">
<g id="Icon" clip-path="url(#clip0_12_123)">
<path id="Vector" d="M9 0.105469C8.41406 0.105469 7.83398 0.164062 7.25977 0.28125C6.68555 0.386719 6.13184 0.550781 5.59863 0.773438C5.06543 0.996094 4.55273 1.27148 4.06055 1.59961C3.58008 1.91602 3.12891 2.28516 2.70703 2.70703C2.29688 3.12891 1.92773 3.58008 1.59961 4.06055C1.2832 4.55273 1.01367 5.06543 0.791016 5.59863C0.568359 6.13184 0.398438 6.68555 0.28125 7.25977C0.164063 7.82227 0.105469 8.40234 0.105469 9C0.105469 9.58594 0.164063 10.166 0.28125 10.7402C0.398438 11.3145 0.568359 11.8682 0.791016 12.4014C1.01367 12.9346 1.2832 13.4414 1.59961 13.9219C1.92773 14.4141 2.29688 14.8652 2.70703 15.2754C3.12891 15.6973 3.58008 16.0723 4.06055 16.4004C4.55273 16.7168 5.06543 16.9863 5.59863 17.209C6.13184 17.4316 6.68555 17.6016 7.25977 17.7188C7.83398 17.8359 8.41406 17.8945 9 17.8945C9.58594 17.8945 10.166 17.8359 10.7402 17.7188C11.3145 17.6016 11.8682 17.4316 12.4014 17.209C12.9346 16.9863 13.4473 16.7168 13.9395 16.4004C14.4199 16.0723 14.8711 15.6973 15.293 15.2754C15.7031 14.8652 16.0723 14.4141 16.4004 13.9219C16.7285 13.4414 17.001 12.9346 17.2178 12.4014C17.4346 11.8682 17.6016 11.3145 17.7188 10.7402C17.8359 10.166 17.8945 9.58594 17.8945 9C17.8945 8.21484 17.7949 7.44434 17.5957 6.68848C17.3965 5.93262 17.0977 5.2207 16.6992 4.55273C16.3125 3.87305 15.8438 3.25781 15.293 2.70703C14.7422 2.15625 14.127 1.6875 13.4473 1.30078C12.7676 0.902344 12.0527 0.603516 11.3027 0.404297C10.5527 0.205078 9.78516 0.105469 9 0.105469ZM11.9883 11.9883C11.9297 12.0469 11.8623 12.0908 11.7861 12.1201C11.71 12.1494 11.6309 12.1641 11.5488 12.1641C11.4668 12.1641 11.3848 12.1494 11.3027 12.1201C11.2207 12.0908 11.1504 12.0469 11.0918 11.9883L8.56055 9.43945C8.50195 9.38086 8.45508 9.31348 8.41992 9.2373C8.38477 9.16113 8.36719 9.08203 8.36719 9V5.18555C8.36719 5.06836 8.39648 4.95996 8.45508 4.86035C8.51367 4.76074 8.58984 4.6875 8.68359 4.64062C8.77734 4.58203 8.88281 4.55273 9 4.55273C9.11719 4.55273 9.22266 4.58203 9.31641 4.64062C9.42188 4.6875 9.50098 4.76074 9.55371 4.86035C9.60645 4.95996 9.63281 5.06836 9.63281 5.18555V8.73633L11.9883 11.0918C12.0469 11.1504 12.0938 11.2178 12.1289 11.2939C12.1641 11.3701 12.1816 11.4492 12.1816 11.5312C12.1816 11.625 12.1641 11.71 12.1289 11.7861C12.0938 11.8623 12.0469 11.9297 11.9883 11.9883Z" fill="#6C6F78"/>
</g>
<defs>
<clipPath id="clip0_12_123">
<rect width="18" height="18" fill="white" transform="matrix(1 0 0 -1 0 18)"/>
</clipPath>
</defs>
</svg>
