<svg xmlns="http://www.w3.org/2000/svg" width="18" height="19" viewBox="0 0 18 19" fill="none">
<path d="M9.01575 7.81689C9.2384 7.81689 9.43632 7.90348 9.6095 8.07666C9.78267 8.24984 9.86926 8.44775 9.86926 8.67041V12.2515C9.86926 12.4618 9.78267 12.6535 9.6095 12.8267C9.43632 12.9998 9.2384 13.0864 9.01575 13.0864C8.80546 13.0864 8.61373 12.9998 8.44055 12.8267C8.26737 12.6535 8.18079 12.4618 8.18079 12.2515V8.67041C8.18079 8.44775 8.26737 8.24984 8.44055 8.07666C8.61373 7.90348 8.80546 7.81689 9.01575 7.81689ZM9.01575 5.18213C9.2384 5.18213 9.43632 5.26872 9.6095 5.44189C9.78267 5.61507 9.86926 5.8068 9.86926 6.01709C9.86926 6.22738 9.78267 6.4222 9.6095 6.60156C9.43632 6.78092 9.2384 6.87061 9.01575 6.87061C8.80546 6.87061 8.61373 6.78092 8.44055 6.60156C8.26737 6.4222 8.18079 6.22738 8.18079 6.01709C8.18079 5.8068 8.26737 5.61507 8.44055 5.44189C8.61373 5.26872 8.80546 5.18213 9.01575 5.18213ZM9.01575 18.1704C7.77877 18.1704 6.61601 17.9292 5.52747 17.4468C4.43892 16.9644 3.48954 16.3149 2.67932 15.4985C1.8691 14.6821 1.22896 13.7297 0.758911 12.6411C0.288859 11.5526 0.053833 10.4022 0.053833 9.18994C0.053833 7.95296 0.288859 6.7902 0.758911 5.70166C1.22896 4.61312 1.8691 3.66064 2.67932 2.84424C3.48954 2.02783 4.43892 1.3846 5.52747 0.914551C6.61601 0.444498 7.77877 0.209473 9.01575 0.209473C10.2651 0.209473 11.434 0.444498 12.5226 0.914551C13.6111 1.3846 14.5605 2.02783 15.3707 2.84424C16.1809 3.66064 16.8211 4.61312 17.2911 5.70166C17.7612 6.7902 17.9962 7.95296 17.9962 9.18994C17.9962 10.4022 17.7612 11.5526 17.2911 12.6411C16.8211 13.7297 16.1809 14.6821 15.3707 15.4985C14.5605 16.3149 13.6111 16.9644 12.5226 17.4468C11.434 17.9292 10.2713 18.1704 9.0343 18.1704H9.01575ZM9.0343 1.80518C7.99524 1.80518 7.0304 1.99691 6.13977 2.38037C5.23678 2.76383 4.45129 3.28955 3.78333 3.95752C3.11536 4.62549 2.58964 5.40479 2.20618 6.29541C1.82271 7.19841 1.63098 8.16325 1.63098 9.18994C1.63098 10.2166 1.82271 11.1815 2.20618 12.0845C2.58964 12.9751 3.11536 13.7544 3.78333 14.4224C4.45129 15.0903 5.23678 15.616 6.13977 15.9995C7.0304 16.383 7.98905 16.5747 9.01575 16.5747C10.0548 16.5747 11.0197 16.383 11.9103 15.9995C12.8133 15.616 13.5988 15.0903 14.2667 14.4224C14.9347 13.7544 15.4604 12.9751 15.8439 12.0845C16.2273 11.1815 16.4191 10.2166 16.4191 9.18994C16.4191 8.16325 16.2273 7.19841 15.8439 6.29541C15.4604 5.40479 14.9347 4.62549 14.2667 3.95752C13.5988 3.28955 12.8133 2.76383 11.9103 2.38037C11.0197 1.99691 10.061 1.80518 9.0343 1.80518Z" fill="#868A93"/>
</svg>
