<svg  width="18" height="20" viewBox="0 0 18 20" fill="none" xmlns="http://www.w3.org/2000/svg">
<g id="Icon">
<path id="Vector" d="M9.01575 8.81689C9.2384 8.81689 9.43632 8.90348 9.6095 9.07666C9.78267 9.24984 9.86926 9.44775 9.86926 9.67041V13.2515C9.86926 13.4618 9.78267 13.6535 9.6095 13.8267C9.43632 13.9998 9.2384 14.0864 9.01575 14.0864C8.80546 14.0864 8.61373 13.9998 8.44055 13.8267C8.26737 13.6535 8.18079 13.4618 8.18079 13.2515V9.67041C8.18079 9.44775 8.26737 9.24984 8.44055 9.07666C8.61373 8.90348 8.80546 8.81689 9.01575 8.81689ZM9.01575 6.18213C9.2384 6.18213 9.43632 6.26872 9.6095 6.44189C9.78267 6.61507 9.86926 6.8068 9.86926 7.01709C9.86926 7.22738 9.78267 7.4222 9.6095 7.60156C9.43632 7.78092 9.2384 7.87061 9.01575 7.87061C8.80546 7.87061 8.61373 7.78092 8.44055 7.60156C8.26737 7.4222 8.18079 7.22738 8.18079 7.01709C8.18079 6.8068 8.26737 6.61507 8.44055 6.44189C8.61373 6.26872 8.80546 6.18213 9.01575 6.18213ZM9.01575 19.1704C7.77877 19.1704 6.61601 18.9292 5.52747 18.4468C4.43892 17.9644 3.48954 17.3149 2.67932 16.4985C1.8691 15.6821 1.22896 14.7297 0.758911 13.6411C0.288859 12.5526 0.053833 11.4022 0.053833 10.1899C0.053833 8.95296 0.288859 7.7902 0.758911 6.70166C1.22896 5.61312 1.8691 4.66064 2.67932 3.84424C3.48954 3.02783 4.43892 2.3846 5.52747 1.91455C6.61601 1.4445 7.77877 1.20947 9.01575 1.20947C10.2651 1.20947 11.434 1.4445 12.5226 1.91455C13.6111 2.3846 14.5605 3.02783 15.3707 3.84424C16.1809 4.66064 16.8211 5.61312 17.2911 6.70166C17.7612 7.7902 17.9962 8.95296 17.9962 10.1899C17.9962 11.4022 17.7612 12.5526 17.2911 13.6411C16.8211 14.7297 16.1809 15.6821 15.3707 16.4985C14.5605 17.3149 13.6111 17.9644 12.5226 18.4468C11.434 18.9292 10.2713 19.1704 9.0343 19.1704H9.01575ZM9.0343 2.80518C7.99524 2.80518 7.0304 2.99691 6.13977 3.38037C5.23678 3.76383 4.45129 4.28955 3.78333 4.95752C3.11536 5.62549 2.58964 6.40479 2.20618 7.29541C1.82271 8.19841 1.63098 9.16325 1.63098 10.1899C1.63098 11.2166 1.82271 12.1815 2.20618 13.0845C2.58964 13.9751 3.11536 14.7544 3.78333 15.4224C4.45129 16.0903 5.23678 16.616 6.13977 16.9995C7.0304 17.383 7.98905 17.5747 9.01575 17.5747C10.0548 17.5747 11.0197 17.383 11.9103 16.9995C12.8133 16.616 13.5988 16.0903 14.2667 15.4224C14.9347 14.7544 15.4604 13.9751 15.8439 13.0845C16.2273 12.1815 16.4191 11.2166 16.4191 10.1899C16.4191 9.16325 16.2273 8.19841 15.8439 7.29541C15.4604 6.40479 14.9347 5.62549 14.2667 4.95752C13.5988 4.28955 12.8133 3.76383 11.9103 3.38037C11.0197 2.99691 10.061 2.80518 9.0343 2.80518Z" fill="#868A93"/>
</g>
</svg>

