<svg xmlns="http://www.w3.org/2000/svg" width="17" height="17" viewBox="0 0 17 17" fill="none">
<g clip-path="url(#clip0_272_117)">
<path d="M8.25008 0.71403C7.5105 0.71403 6.79175 0.820801 6.09383 1.03434C5.39591 1.24788 4.73966 1.55778 4.12508 1.96403C3.5105 2.37028 2.97144 2.85726 2.50789 3.42497C2.04435 3.99268 1.67196 4.61507 1.39071 5.29216C1.10946 5.96924 0.932373 6.67497 0.859456 7.40934C0.78654 8.14372 0.822998 8.87028 0.968831 9.58903C1.10425 10.3078 1.34644 10.9901 1.69539 11.6359C2.04435 12.2817 2.47925 12.8651 3.00008 13.3859C3.52091 13.9067 4.10425 14.3416 4.75008 14.6906C5.39591 15.0396 6.07821 15.2817 6.79696 15.4172C7.51571 15.563 8.24227 15.5994 8.97664 15.5265C9.71102 15.4536 10.4167 15.2765 11.0938 14.9953C11.7709 14.714 12.3933 14.3416 12.961 13.8781C13.5287 13.4146 14.0157 12.8755 14.422 12.2609C14.8282 11.6463 15.1381 10.9901 15.3516 10.2922C15.5652 9.59424 15.672 8.87549 15.672 8.1359C15.672 7.64632 15.6251 7.16195 15.5313 6.68278C15.4376 6.20361 15.297 5.74007 15.1095 5.29216C14.922 4.84424 14.6928 4.41716 14.422 4.01091C14.1511 3.60466 13.8438 3.22966 13.5001 2.88591C13.1563 2.54216 12.7813 2.23486 12.3751 1.96403C11.9688 1.6932 11.5417 1.46403 11.0938 1.27653C10.6459 1.08903 10.1824 0.948405 9.70321 0.854655C9.22404 0.760905 8.73966 0.71403 8.25008 0.71403ZM8.25008 14.4172C7.62508 14.4172 7.01571 14.3286 6.42196 14.1515C5.82821 13.9744 5.27612 13.7088 4.76571 13.3547C4.24487 13.0109 3.78654 12.5994 3.39071 12.1203C2.99487 11.6411 2.67716 11.1151 2.43758 10.5422C2.20841 9.96924 2.06258 9.37288 2.00008 8.75309C1.93758 8.1333 1.96362 7.52132 2.07821 6.91716C2.20321 6.30257 2.41154 5.72184 2.70321 5.17497C2.99487 4.62809 3.36466 4.13591 3.81258 3.69841C4.25008 3.25049 4.74227 2.8807 5.28914 2.58903C5.83602 2.29736 6.41675 2.08903 7.03133 1.96403C7.6355 1.84945 8.24748 1.82341 8.86727 1.88591C9.48706 1.94841 10.0834 2.09424 10.6563 2.32341C11.2292 2.56299 11.7553 2.8807 12.2345 3.27653C12.7136 3.67236 13.1251 4.1307 13.4688 4.65153C13.823 5.16195 14.0886 5.71403 14.2657 6.30778C14.4428 6.90153 14.5313 7.5109 14.5313 8.1359C14.5313 8.96924 14.3725 9.77132 14.0548 10.5422C13.7371 11.313 13.2813 11.9901 12.6876 12.5734C12.1042 13.1672 11.4272 13.6229 10.6563 13.9406C9.8855 14.2583 9.08341 14.4172 8.25008 14.4172ZM7.67196 8.71403V4.71403C7.67196 4.6307 7.68758 4.55518 7.71883 4.48747C7.75008 4.41976 7.79175 4.35986 7.84383 4.30778C7.89591 4.2557 7.95841 4.21403 8.03133 4.18278C8.10425 4.15153 8.17716 4.13591 8.25008 4.13591C8.323 4.13591 8.39591 4.15153 8.46883 4.18278C8.54175 4.21403 8.60425 4.2557 8.65633 4.30778C8.70841 4.35986 8.75008 4.41976 8.78133 4.48747C8.81258 4.55518 8.82821 4.6307 8.82821 4.71403V8.71403C8.82821 8.78695 8.81258 8.85726 8.78133 8.92497C8.75008 8.99268 8.70841 9.05257 8.65633 9.10465C8.60425 9.16715 8.54175 9.21143 8.46883 9.23747C8.39591 9.26351 8.323 9.27653 8.25008 9.27653C8.17716 9.27653 8.10425 9.26351 8.03133 9.23747C7.95841 9.21143 7.89591 9.16715 7.84383 9.10465C7.79175 9.05257 7.75008 8.99268 7.71883 8.92497C7.68758 8.85726 7.67196 8.78695 7.67196 8.71403ZM9.10946 11.2765C9.10946 11.3599 9.09644 11.4432 9.07039 11.5265C9.04435 11.6099 9.0105 11.688 8.96883 11.7609C8.91675 11.8234 8.85946 11.8833 8.79696 11.9406C8.73446 11.9979 8.66154 12.0422 8.57821 12.0734C8.49487 12.1047 8.41154 12.1255 8.32821 12.1359C8.24487 12.1463 8.16154 12.1411 8.07821 12.1203C7.99487 12.0994 7.91675 12.0708 7.84383 12.0343C7.77091 11.9979 7.70321 11.9484 7.64071 11.8859C7.57821 11.8234 7.52873 11.7557 7.49227 11.6828C7.45581 11.6099 7.42716 11.5317 7.40633 11.4484C7.39591 11.3651 7.39331 11.2817 7.39852 11.1984C7.40373 11.1151 7.42196 11.0317 7.45321 10.9484C7.48446 10.8755 7.52873 10.8052 7.58602 10.7375C7.64331 10.6698 7.70841 10.6151 7.78133 10.5734C7.84383 10.5213 7.91675 10.4823 8.00008 10.4562C8.08341 10.4302 8.16675 10.4172 8.25008 10.4172C8.36466 10.4172 8.47404 10.4406 8.57821 10.4875C8.68237 10.5343 8.77612 10.5942 8.85946 10.6672C8.94279 10.7505 9.00529 10.8442 9.04696 10.9484C9.08862 11.0526 9.10946 11.1619 9.10946 11.2765Z" fill="#E26664"/>
</g>
<defs>
<clipPath id="clip0_272_117">
<rect width="16" height="16" fill="white" transform="matrix(1 0 0 -1 0.25 16.1357)"/>
</clipPath>
</defs>
</svg>