<svg width="16" height="17" viewBox="0 0 16 17" fill="none" xmlns="http://www.w3.org/2000/svg">
<g id="Link" clip-path="url(#clip0_10_1107)">
<path id="Vector" d="M8 5.60791C7.26042 5.60791 6.63021 5.86833 6.10938 6.38916C5.58854 6.90999 5.32812 7.5402 5.32812 8.27979C5.32812 9.01937 5.58854 9.64958 6.10938 10.1704C6.63021 10.6912 7.26042 10.9517 8 10.9517C8.72917 10.9517 9.35677 10.6912 9.88281 10.1704C10.4089 9.64958 10.6719 9.01937 10.6719 8.27979C10.6719 7.5402 10.4089 6.90999 9.88281 6.38916C9.35677 5.86833 8.72917 5.60791 8 5.60791ZM16 8.27979C16 7.7277 16 7.17822 16 6.63135C16 6.08447 15.9844 5.53499 15.9531 4.98291C15.9219 4.33708 15.8151 3.73291 15.6328 3.17041C15.4505 2.60791 15.125 2.09229 14.6562 1.62354C14.1875 1.15479 13.6719 0.829265 13.1094 0.646973C12.5469 0.464681 11.9427 0.35791 11.2969 0.32666C10.7448 0.29541 10.1953 0.279785 9.64844 0.279785C9.10156 0.279785 8.55208 0.279785 8 0.279785C7.44792 0.279785 6.89844 0.279785 6.35156 0.279785C5.80469 0.279785 5.25521 0.29541 4.70312 0.32666C4.05729 0.35791 3.45312 0.464681 2.89062 0.646973C2.32812 0.829265 1.8125 1.15479 1.34375 1.62354C0.875 2.09229 0.549479 2.60791 0.367188 3.17041C0.184896 3.73291 0.078125 4.33708 0.046875 4.98291C0.015625 5.53499 0 6.08447 0 6.63135C0 7.17822 0 7.7277 0 8.27979C0 8.83187 0 9.38135 0 9.92822C0 10.4751 0.015625 11.0246 0.046875 11.5767C0.078125 12.2225 0.184896 12.8267 0.367188 13.3892C0.549479 13.9517 0.875 14.4673 1.34375 14.936C1.8125 15.4048 2.32812 15.7303 2.89062 15.9126C3.45312 16.0949 4.05729 16.2017 4.70312 16.2329C5.25521 16.2642 5.80469 16.2798 6.35156 16.2798C6.89844 16.2798 7.44792 16.2798 8 16.2798C8.55208 16.2798 9.10156 16.2798 9.64844 16.2798C10.1953 16.2798 10.7448 16.2642 11.2969 16.2329C11.9427 16.2017 12.5469 16.0949 13.1094 15.9126C13.6719 15.7303 14.1875 15.4048 14.6562 14.936C15.125 14.4673 15.4505 13.9517 15.6328 13.3892C15.8151 12.8267 15.9219 12.2225 15.9531 11.5767C15.9844 11.0246 16 10.4751 16 9.92822C16 9.38135 16 8.83187 16 8.27979ZM8 12.3892C7.42708 12.3892 6.89062 12.2798 6.39062 12.061C5.90104 11.8423 5.46875 11.548 5.09375 11.1782C4.71875 10.8084 4.42708 10.3735 4.21875 9.87354C4 9.38395 3.89062 8.8527 3.89062 8.27979C3.89062 7.70687 4 7.17562 4.21875 6.68604C4.42708 6.18604 4.71875 5.75114 5.09375 5.38135C5.46875 5.01156 5.90104 4.71729 6.39062 4.49854C6.89062 4.27979 7.42708 4.17041 8 4.17041C8.5625 4.17041 9.09375 4.27979 9.59375 4.49854C10.0938 4.71729 10.5286 5.01156 10.8984 5.38135C11.2682 5.75114 11.5625 6.18604 11.7812 6.68604C12 7.17562 12.1094 7.70687 12.1094 8.27979C12.1094 8.8527 12 9.38395 11.7812 9.87354C11.5625 10.3735 11.2682 10.8084 10.8984 11.1782C10.5286 11.548 10.0938 11.8423 9.59375 12.061C9.09375 12.2798 8.5625 12.3892 8 12.3892ZM12.2656 4.96729C12.0052 4.96729 11.7812 4.87354 11.5938 4.68604C11.4062 4.49854 11.3125 4.27458 11.3125 4.01416C11.3125 3.74333 11.4062 3.51416 11.5938 3.32666C11.7812 3.13916 12.0052 3.04541 12.2656 3.04541C12.5365 3.04541 12.7656 3.13916 12.9531 3.32666C13.1406 3.51416 13.2344 3.74333 13.2344 4.01416C13.2344 4.07666 13.2266 4.13656 13.2109 4.19385C13.1953 4.25114 13.1771 4.31104 13.1562 4.37354C13.1354 4.43604 13.1068 4.49333 13.0703 4.54541C13.0339 4.59749 12.9948 4.64437 12.9531 4.68604C12.901 4.7277 12.849 4.76676 12.7969 4.80322C12.7448 4.83968 12.6927 4.86833 12.6406 4.88916C12.5781 4.92041 12.5156 4.94124 12.4531 4.95166C12.3906 4.96208 12.3281 4.96729 12.2656 4.96729Z" fill="#303033"/>
</g>
<defs>
<clipPath id="clip0_10_1107">
<rect width="16" height="16" fill="white" transform="matrix(1 0 0 -1 0 16.2798)"/>
</clipPath>
</defs>
</svg>
