<svg width="23" height="26" viewBox="0 0 23 26" fill="none" xmlns="http://www.w3.org/2000/svg">
<g id="Icon" clip-path="url(#clip0_84_12)">
<path id="Vector" d="M3.46182 0.924721H14.6914C15.1447 0.924721 15.5667 1.01459 15.9574 1.19432C16.3481 1.37406 16.692 1.6124 16.9889 1.90936C17.2859 2.22194 17.5203 2.58142 17.6922 2.98778C17.8642 3.39414 17.9501 3.82394 17.9501 4.27719V11.7792C17.9501 12.2481 17.8642 12.6857 17.6922 13.0921C17.5203 13.4984 17.2859 13.8501 16.9889 14.1471C16.692 14.4596 16.3481 14.7019 15.9574 14.8738C15.5667 15.0457 15.1447 15.1317 14.6914 15.1317H9.0649L4.14169 19.5157C4.01666 19.6251 3.8799 19.672 3.73142 19.6564C3.58295 19.6407 3.46182 19.5782 3.36804 19.4688C3.32116 19.4063 3.28599 19.3399 3.26255 19.2695C3.2391 19.1992 3.22738 19.125 3.22738 19.0468L3.50871 15.1317H3.46182C3.00857 15.1317 2.58658 15.0457 2.19585 14.8738C1.80512 14.7019 1.46128 14.4596 1.16432 14.1471C0.867367 13.8501 0.632929 13.4984 0.461007 13.0921C0.289086 12.6857 0.203125 12.2481 0.203125 11.7792V4.27719C0.203125 3.82394 0.289086 3.39414 0.461007 2.98778C0.632929 2.58142 0.867367 2.22194 1.16432 1.90936C1.46128 1.6124 1.80512 1.37406 2.19585 1.19432C2.58658 1.01459 3.00857 0.924721 3.46182 0.924721ZM19.5443 6.38713C19.8569 6.44965 20.1538 6.55906 20.4352 6.71535C20.7165 6.87164 20.9666 7.06701 21.1854 7.30145C21.4823 7.5984 21.7129 7.94615 21.877 8.3447C22.0411 8.74324 22.1231 9.16914 22.1231 9.62239V17.1244C22.1231 17.5777 22.0411 18.0036 21.877 18.4021C21.7129 18.8007 21.4823 19.1484 21.1854 19.4454C20.904 19.7423 20.568 19.9768 20.1773 20.1487C19.7866 20.3206 19.3724 20.4066 18.9348 20.4066H18.8175L19.0989 24.392C19.0989 24.4545 19.0911 24.517 19.0754 24.5796C19.0598 24.6421 19.0285 24.7046 18.9816 24.7671C18.8879 24.8609 18.7746 24.9156 18.6417 24.9312C18.5089 24.9469 18.3956 24.9078 18.3018 24.814L13.3551 20.2893H6.81429L10.0261 16.89H16.8483C17.5828 16.89 18.2158 16.6204 18.7472 16.0812C19.2786 15.542 19.5443 14.8816 19.5443 14.1002V6.62157C19.5443 6.57469 19.5443 6.53171 19.5443 6.49263C19.5443 6.45356 19.5443 6.41839 19.5443 6.38713ZM5.056 9.45828C4.89971 9.45828 4.77077 9.40358 4.66918 9.29417C4.56759 9.18477 4.51679 9.05192 4.51679 8.89563C4.51679 8.73933 4.56759 8.60649 4.66918 8.49708C4.77077 8.38768 4.89971 8.33298 5.056 8.33298H10.7997C10.9404 8.33298 11.0654 8.38768 11.1748 8.49708C11.2843 8.60649 11.339 8.73933 11.339 8.89563C11.339 9.05192 11.2843 9.18477 11.1748 9.29417C11.0654 9.40358 10.9404 9.45828 10.7997 9.45828H5.056ZM5.056 6.64502C4.89971 6.64502 4.77077 6.59031 4.66918 6.48091C4.56759 6.37151 4.51679 6.23866 4.51679 6.08237C4.51679 5.92607 4.56759 5.79322 4.66918 5.68382C4.77077 5.57442 4.89971 5.51971 5.056 5.51971H13.191C13.3317 5.51971 13.4567 5.57442 13.5661 5.68382C13.6755 5.79322 13.7302 5.92607 13.7302 6.08237C13.7302 6.23866 13.6755 6.37151 13.5661 6.48091C13.4567 6.59031 13.3317 6.64502 13.191 6.64502H5.056ZM14.6914 2.05002H3.46182C3.16486 2.05002 2.88354 2.10863 2.61784 2.22585C2.35214 2.34307 2.12552 2.50327 1.93797 2.70645C1.73479 2.90963 1.5785 3.14798 1.46909 3.42149C1.35969 3.695 1.30499 3.98023 1.30499 4.27719V11.7792C1.30499 12.0918 1.35969 12.3809 1.46909 12.6466C1.5785 12.9123 1.73479 13.1468 1.93797 13.35C2.12552 13.5531 2.35214 13.7133 2.61784 13.8306C2.88354 13.9478 3.16486 14.0064 3.46182 14.0064H4.0948H4.11825C4.27454 14.022 4.39957 14.0884 4.49335 14.2057C4.58712 14.3229 4.63401 14.4596 4.63401 14.6159L4.42302 17.7808L8.4788 14.1705C8.52569 14.1236 8.5843 14.0845 8.65463 14.0533C8.72496 14.022 8.7992 14.0064 8.87735 14.0064H14.6914C14.9884 14.0064 15.2658 13.9478 15.5237 13.8306C15.7816 13.7133 16.0121 13.5531 16.2153 13.35C16.4028 13.1468 16.5552 12.9123 16.6724 12.6466C16.7896 12.3809 16.8483 12.0918 16.8483 11.7792V4.27719C16.8483 3.98023 16.7896 3.695 16.6724 3.42149C16.5552 3.14798 16.4028 2.90963 16.2153 2.70645C16.0121 2.50327 15.7816 2.34307 15.5237 2.22585C15.2658 2.10863 14.9884 2.05002 14.6914 2.05002Z" fill="#303033"/>
</g>
<defs>
<clipPath id="clip0_84_12">
<rect width="21.92" height="25" fill="white" transform="matrix(1 0 0 -1 0.203125 25.4277)"/>
</clipPath>
</defs>
</svg>
