<svg xmlns="http://www.w3.org/2000/svg" width="20" height="21" viewBox="0 0 20 21" fill="none">
  <path d="M17.5664 14.8627C17.7747 14.433 17.9342 13.9805 18.0449 13.5052C18.1556 13.03 18.2044 12.5515 18.1914 12.0697C18.1784 11.5879 18.11 11.1127 17.9863 10.6439C17.8626 10.1752 17.6836 9.72594 17.4492 9.29625C17.2279 8.87958 16.9544 8.49221 16.6289 8.13414C16.3034 7.77607 15.9388 7.46031 15.5352 7.18687C15.1315 6.91344 14.7051 6.69208 14.2559 6.52281C13.8066 6.35354 13.3411 6.23635 12.8594 6.17125C12.6901 5.80667 12.4915 5.45836 12.2637 5.12633C12.0358 4.7943 11.7786 4.48505 11.4922 4.19859C11.1927 3.91214 10.8737 3.66148 10.5352 3.44664C10.1966 3.2318 9.83854 3.05276 9.46094 2.90953C9.08333 2.7663 8.69596 2.65888 8.29883 2.58727C7.90169 2.51565 7.5013 2.48635 7.09766 2.49937C6.69401 2.5124 6.29362 2.56773 5.89648 2.66539C5.49935 2.76305 5.11849 2.89651 4.75391 3.06578C4.38932 3.23505 4.04427 3.43687 3.71875 3.67125C3.39323 3.90562 3.09375 4.17255 2.82031 4.47203C2.54688 4.77151 2.30599 5.09378 2.09766 5.43883C1.88932 5.78388 1.71354 6.14521 1.57031 6.52281C1.4401 6.91344 1.3457 7.30732 1.28711 7.70445C1.22852 8.10159 1.21224 8.50198 1.23828 8.90562C1.26432 9.30927 1.32617 9.70641 1.42383 10.097C1.52148 10.4877 1.66146 10.8653 1.84375 11.2298L1.25781 13.2611C1.23177 13.3522 1.21875 13.4466 1.21875 13.5443C1.21875 13.642 1.23177 13.7364 1.25781 13.8275C1.28385 13.9186 1.31966 14.0033 1.36523 14.0814C1.41081 14.1595 1.46615 14.2311 1.53125 14.2962C1.59635 14.3744 1.67122 14.4362 1.75586 14.4818C1.84049 14.5274 1.92839 14.5632 2.01953 14.5892C2.11068 14.6022 2.20182 14.6087 2.29297 14.6087C2.38411 14.6087 2.47526 14.5957 2.56641 14.5697L4.59766 14.0033C4.91016 14.1465 5.22917 14.267 5.55469 14.3646C5.88021 14.4623 6.21224 14.5306 6.55078 14.5697C6.72005 14.9473 6.92188 15.3054 7.15625 15.6439C7.39062 15.9824 7.65755 16.2949 7.95703 16.5814C8.24349 16.8679 8.5625 17.1185 8.91406 17.3334C9.26562 17.5482 9.63672 17.7272 10.0273 17.8705C10.4049 18.0137 10.7988 18.1179 11.209 18.183C11.6191 18.2481 12.026 18.2676 12.4297 18.2416C12.8464 18.2285 13.2533 18.1699 13.6504 18.0658C14.0475 17.9616 14.4349 17.8184 14.8125 17.6361L16.8438 18.2025C16.9349 18.2285 17.026 18.2448 17.1172 18.2513C17.2083 18.2578 17.2995 18.2481 17.3906 18.222C17.4818 18.196 17.5697 18.1602 17.6543 18.1146C17.7389 18.069 17.8138 18.0137 17.8789 17.9486C17.944 17.8705 17.9993 17.7923 18.0449 17.7142C18.0905 17.6361 18.1263 17.5515 18.1523 17.4603C18.1784 17.3692 18.1914 17.2748 18.1914 17.1771C18.1914 17.0795 18.1784 16.9851 18.1523 16.8939L17.5664 14.8627ZM4.67578 12.7337C4.63672 12.7337 4.60417 12.737 4.57812 12.7435C4.55208 12.75 4.52604 12.7533 4.5 12.7533L2.50781 13.3392L3.07422 11.3275C3.10026 11.2494 3.10677 11.1712 3.09375 11.0931C3.08073 11.015 3.05469 10.9434 3.01562 10.8783C2.74219 10.3705 2.56315 9.82685 2.47852 9.24742C2.39388 8.66799 2.41667 8.09182 2.54688 7.51891C2.66406 6.95901 2.88216 6.43167 3.20117 5.93687C3.52018 5.44208 3.91406 5.02542 4.38281 4.68687C4.83854 4.33531 5.34635 4.07815 5.90625 3.91539C6.46615 3.75263 7.03906 3.69078 7.625 3.72984C8.21094 3.76891 8.76758 3.90888 9.29492 4.14977C9.82227 4.39065 10.2943 4.71943 10.7109 5.13609C11.1146 5.55276 11.4368 6.02477 11.6777 6.55211C11.9186 7.07945 12.0651 7.63609 12.1172 8.22203C12.1562 8.79495 12.0944 9.36135 11.9316 9.92125C11.7689 10.4811 11.5117 10.9955 11.1602 11.4642C10.8086 11.933 10.3887 12.3236 9.90039 12.6361C9.41211 12.9486 8.88151 13.1699 8.30859 13.3002C7.73568 13.4173 7.16276 13.4369 6.58984 13.3587C6.01693 13.2806 5.47656 13.0983 4.96875 12.8119C4.91667 12.7858 4.86784 12.7663 4.82227 12.7533C4.77669 12.7403 4.72786 12.7337 4.67578 12.7337ZM16.3359 14.9603L16.9023 16.972L14.9102 16.4056C14.832 16.3796 14.7539 16.3698 14.6758 16.3763C14.5977 16.3828 14.526 16.4056 14.4609 16.4447C13.901 16.7572 13.3053 16.946 12.6738 17.0111C12.0423 17.0762 11.4206 17.0241 10.8086 16.8548C10.1966 16.6856 9.63997 16.4024 9.13867 16.0052C8.63737 15.6081 8.23047 15.1361 7.91797 14.5892C8.33464 14.5371 8.74154 14.4492 9.13867 14.3255C9.53581 14.2018 9.91667 14.0358 10.2812 13.8275C10.6328 13.6192 10.9681 13.3783 11.2871 13.1048C11.6061 12.8314 11.8893 12.5254 12.1367 12.1869C12.3841 11.8614 12.5957 11.5098 12.7715 11.1322C12.9473 10.7546 13.0807 10.3574 13.1719 9.94078C13.276 9.53714 13.3314 9.12698 13.3379 8.71031C13.3444 8.29364 13.3151 7.88349 13.25 7.47984C13.6146 7.55797 13.9629 7.68167 14.2949 7.85094C14.627 8.02021 14.9362 8.22203 15.2227 8.45641C15.5091 8.69078 15.7663 8.95771 15.9941 9.25719C16.222 9.55667 16.4076 9.87568 16.5508 10.2142C16.707 10.5528 16.821 10.9043 16.8926 11.2689C16.9642 11.6335 16.9935 12.0046 16.9805 12.3822C16.9674 12.7598 16.9089 13.1276 16.8047 13.4857C16.7005 13.8438 16.5638 14.1856 16.3945 14.5111C16.3555 14.5762 16.3294 14.6511 16.3164 14.7357C16.3034 14.8203 16.3099 14.8952 16.3359 14.9603Z" fill="#303033"/>
</svg>