<svg width="25" height="25" viewBox="0 0 25 25" fill="none" xmlns="http://www.w3.org/2000/svg">
<g id="Icon">
<path id="Vector" d="M21.9362 17.8687C22.1863 17.3529 22.3777 16.8098 22.5106 16.2393C22.6434 15.6689 22.702 15.0945 22.6864 14.5162C22.6708 13.9379 22.5887 13.3674 22.4402 12.8048C22.2918 12.2421 22.0769 11.7029 21.7955 11.1871C21.5298 10.687 21.2016 10.222 20.8109 9.79221C20.4201 9.3624 19.9825 8.98338 19.498 8.65517C19.0135 8.32695 18.5016 8.06125 17.9624 7.85807C17.4232 7.65488 16.8645 7.51422 16.2862 7.43607C16.083 6.99845 15.8446 6.58036 15.5711 6.18181C15.2976 5.78326 14.9889 5.41206 14.6451 5.06822C14.2856 4.72437 13.9027 4.4235 13.4963 4.16562C13.09 3.90773 12.6601 3.69283 12.2069 3.52091C11.7536 3.34898 11.2887 3.22004 10.812 3.13408C10.3353 3.04812 9.85466 3.01295 9.37015 3.02858C8.88564 3.04421 8.40504 3.11063 7.92834 3.22785C7.45164 3.34508 6.99448 3.50528 6.55686 3.70846C6.11924 3.91164 5.70506 4.1539 5.31432 4.43523C4.92359 4.71656 4.56411 5.03696 4.23589 5.39643C3.90768 5.75591 3.61853 6.14274 3.36846 6.55692C3.11839 6.9711 2.90739 7.40481 2.73547 7.85807C2.57918 8.32695 2.46586 8.79974 2.39553 9.27643C2.3252 9.75313 2.30566 10.2337 2.33692 10.7182C2.36818 11.2028 2.44242 11.6795 2.55964 12.1483C2.67686 12.6172 2.84488 13.0705 3.06369 13.5081L2.36036 15.9463C2.32911 16.0557 2.31348 16.169 2.31348 16.2862C2.31348 16.4034 2.32911 16.5168 2.36036 16.6262C2.39162 16.7356 2.4346 16.8372 2.48931 16.9309C2.54401 17.0247 2.61044 17.1107 2.68858 17.1888C2.76673 17.2826 2.8566 17.3568 2.95819 17.4115C3.05978 17.4662 3.16528 17.5092 3.27469 17.5405C3.38409 17.5561 3.4935 17.5639 3.6029 17.5639C3.71231 17.5639 3.82171 17.5483 3.93112 17.517L6.36931 16.8372C6.74441 17.0091 7.12733 17.1537 7.51807 17.2709C7.9088 17.3881 8.30735 17.4702 8.71372 17.517C8.9169 17.9703 9.15916 18.4001 9.44049 18.8065C9.72182 19.2128 10.0422 19.5879 10.4017 19.9318C10.7455 20.2756 11.1285 20.5765 11.5505 20.8344C11.9724 21.0923 12.4179 21.3072 12.8868 21.4791C13.34 21.651 13.8128 21.7761 14.3051 21.8542C14.7975 21.9323 15.2859 21.9558 15.7704 21.9245C16.2705 21.9089 16.759 21.8386 17.2357 21.7135C17.7123 21.5885 18.1773 21.4166 18.6306 21.1978L21.0688 21.8776C21.1782 21.9089 21.2876 21.9284 21.397 21.9363C21.5064 21.9441 21.6158 21.9323 21.7252 21.9011C21.8346 21.8698 21.9401 21.8268 22.0417 21.7721C22.1433 21.7174 22.2332 21.651 22.3113 21.5729C22.3894 21.4791 22.4559 21.3853 22.5106 21.2915C22.5653 21.1978 22.6083 21.0962 22.6395 20.9868C22.6708 20.8774 22.6864 20.764 22.6864 20.6468C22.6864 20.5296 22.6708 20.4163 22.6395 20.3069L21.9362 17.8687ZM6.46308 15.3133C6.4162 15.3133 6.37712 15.3172 6.34586 15.325C6.3146 15.3328 6.28335 15.3367 6.25209 15.3367L3.86079 16.0401L4.54067 13.6253C4.57193 13.5315 4.57974 13.4378 4.56411 13.344C4.54848 13.2502 4.51722 13.1642 4.47033 13.0861C4.14212 12.4766 3.92721 11.824 3.82562 11.1285C3.72403 10.433 3.75138 9.74141 3.90768 9.05372C4.04834 8.38165 4.31013 7.74866 4.69305 7.15474C5.07597 6.56083 5.54876 6.06068 6.11142 5.65432C6.65845 5.23233 7.268 4.92365 7.94006 4.72828C8.61213 4.53291 9.29982 4.45867 10.0031 4.50556C10.7065 4.55245 11.3746 4.72046 12.0076 5.00961C12.6406 5.29875 13.2072 5.69339 13.7073 6.19353C14.1918 6.69368 14.5787 7.26024 14.8678 7.89323C15.1569 8.52622 15.3328 9.19438 15.3953 9.8977C15.4422 10.5854 15.3679 11.2653 15.1726 11.9373C14.9772 12.6094 14.6685 13.2268 14.2465 13.7894C13.8245 14.3521 13.3205 14.821 12.7344 15.1961C12.1483 15.5712 11.5114 15.8369 10.8237 15.9932C10.136 16.1338 9.4483 16.1573 8.76061 16.0635C8.07291 15.9697 7.42429 15.7509 6.81475 15.4071C6.75223 15.3758 6.69362 15.3524 6.63891 15.3367C6.58421 15.3211 6.5256 15.3133 6.46308 15.3133ZM20.4592 17.9859L21.1391 20.4007L18.7478 19.7208C18.654 19.6895 18.5602 19.6778 18.4665 19.6856C18.3727 19.6934 18.2867 19.7208 18.2086 19.7677C17.5365 20.1428 16.8215 20.3694 16.0634 20.4476C15.3054 20.5257 14.5591 20.4632 13.8245 20.26C13.09 20.0568 12.4218 19.7169 11.8201 19.2402C11.2183 18.7635 10.7299 18.1969 10.3548 17.5405C10.8549 17.478 11.3434 17.3725 11.8201 17.224C12.2968 17.0755 12.7539 16.8762 13.1915 16.6262C13.6135 16.3761 14.016 16.0869 14.3989 15.7587C14.7818 15.4305 15.1218 15.0632 15.4187 14.6569C15.7157 14.2661 15.9697 13.8441 16.1807 13.3909C16.3917 12.9376 16.5519 12.4609 16.6613 11.9608C16.7863 11.4763 16.8527 10.9839 16.8605 10.4838C16.8684 9.98367 16.8332 9.49134 16.755 9.00683C17.1927 9.1006 17.6108 9.24908 18.0093 9.45227C18.4079 9.65545 18.7791 9.8977 19.1229 10.179C19.4667 10.4604 19.7754 10.7808 20.0489 11.1402C20.3225 11.4997 20.5452 11.8826 20.7171 12.289C20.9047 12.6954 21.0414 13.1174 21.1274 13.555C21.2133 13.9926 21.2485 14.438 21.2329 14.8913C21.2172 15.3446 21.1469 15.7861 21.0219 16.2159C20.8968 16.6457 20.7327 17.056 20.5295 17.4467C20.4827 17.5249 20.4514 17.6147 20.4358 17.7163C20.4201 17.8179 20.428 17.9078 20.4592 17.9859Z" fill="#303033"/>
</g>
</svg>
