<svg width="16" height="18" viewBox="0 0 16 18" fill="none" xmlns="http://www.w3.org/2000/svg">
<g id="Icon" clip-path="url(#clip0_12_119)">
<path id="Vector" d="M1.70262 0H12.5057C12.857 0 13.1995 0.0673828 13.5333 0.202148C13.867 0.336914 14.1569 0.533203 14.4028 0.791016C14.6604 1.04883 14.8566 1.3418 14.9912 1.66992C15.1259 1.99805 15.1933 2.34375 15.1933 2.70703V13.5C15.1933 13.8633 15.1259 14.209 14.9912 14.5371C14.8566 14.8652 14.6604 15.1582 14.4028 15.416C14.1569 15.6621 13.867 15.8555 13.5333 15.9961C13.1995 16.1367 12.857 16.207 12.5057 16.207H4.40778V17.1035C4.40778 17.2207 4.38436 17.335 4.33751 17.4463C4.29067 17.5576 4.22626 17.6543 4.14429 17.7363C4.06231 17.8184 3.9657 17.8828 3.85445 17.9297C3.7432 17.9766 3.62902 18 3.51192 18C3.3831 18 3.26599 17.9766 3.1606 17.9297C3.0552 17.8828 2.95566 17.8184 2.86198 17.7363C2.78 17.6543 2.71559 17.5576 2.66875 17.4463C2.62191 17.335 2.59849 17.2207 2.59849 17.1035V16.207H1.70262C1.58552 16.207 1.47134 16.1836 1.36009 16.1367C1.24884 16.0898 1.15223 16.0254 1.07025 15.9434C0.988277 15.8496 0.923869 15.75 0.877026 15.6445C0.830184 15.5391 0.806763 15.4219 0.806763 15.293V0.896484C0.806763 0.779297 0.830184 0.665039 0.877026 0.553711C0.923869 0.442383 0.988277 0.345703 1.07025 0.263672C1.15223 0.181641 1.24884 0.117188 1.36009 0.0703125C1.47134 0.0234375 1.58552 0 1.70262 0ZM5.61983 4.64062C4.97574 4.89844 4.58636 5.35547 4.45169 6.01172C4.31702 6.66797 4.44876 7.25391 4.84693 7.76953C5.0343 8.02734 5.30364 8.33789 5.65496 8.70117C6.00628 9.06445 6.35174 9.40723 6.69135 9.72949C7.03096 10.0518 7.32372 10.3301 7.56964 10.5645C7.82728 10.7871 7.95609 10.8984 7.95609 10.8984C7.95609 10.8984 8.07906 10.7871 8.32498 10.5645C8.58261 10.3301 8.88123 10.0518 9.22084 9.72949C9.56045 9.40723 9.90591 9.06445 10.2572 8.70117C10.6086 8.33789 10.8779 8.02734 11.0653 7.76953C11.4517 7.25391 11.6244 6.66797 11.5835 6.01172C11.5425 5.35547 11.1999 4.89844 10.5559 4.64062C9.90006 4.38281 9.33502 4.42676 8.86074 4.77246C8.38646 5.11816 8.08491 5.41992 7.95609 5.67773C7.82728 5.41992 7.56672 5.11816 7.17441 4.77246C6.78211 4.42676 6.26391 4.38281 5.61983 4.64062Z" fill="#6C6F78"/>
</g>
<defs>
<clipPath id="clip0_12_119">
<rect width="14.4" height="18" fill="white" transform="matrix(1 0 0 -1 0.800049 18)"/>
</clipPath>
</defs>
</svg>
