<svg width="25" height="25" viewBox="0 0 25 25" fill="none" xmlns="http://www.w3.org/2000/svg">
<g id="Icon">
<path id="Vector" d="M20.5059 5.20888H4.49357C4.30602 5.20888 4.12238 5.24405 3.94264 5.31438C3.7629 5.38471 3.6027 5.49021 3.46203 5.63088C3.337 5.77154 3.23541 5.93174 3.15726 6.11148C3.07911 6.29122 3.04004 6.47486 3.04004 6.66242V21.1978C3.04004 21.3384 3.05958 21.4752 3.09865 21.608C3.13772 21.7409 3.19633 21.8698 3.27448 21.9949C3.337 22.1043 3.42296 22.2059 3.53237 22.2996C3.64177 22.3934 3.75899 22.4716 3.88403 22.5341C3.9778 22.581 4.07549 22.6161 4.17708 22.6396C4.27867 22.663 4.38417 22.6747 4.49357 22.6747C4.6655 22.6747 4.83351 22.6435 4.99762 22.581C5.16173 22.5184 5.3063 22.4325 5.43134 22.3231C5.43134 22.3231 5.43134 22.3153 5.43134 22.2996L8.36185 19.7442H20.5059C20.6935 19.7442 20.8771 19.7091 21.0568 19.6387C21.2366 19.5684 21.3968 19.4629 21.5374 19.3222C21.6625 19.1972 21.7641 19.0448 21.8422 18.8651C21.9204 18.6853 21.9594 18.4939 21.9594 18.2907V6.66242C21.9594 6.47486 21.9204 6.29122 21.8422 6.11148C21.7641 5.93174 21.6625 5.77154 21.5374 5.63088C21.3968 5.49021 21.2366 5.38471 21.0568 5.31438C20.8771 5.24405 20.6935 5.20888 20.5059 5.20888ZM20.5059 18.2907H8.36185C8.18993 18.2907 8.02191 18.322 7.8578 18.3845C7.69369 18.447 7.54912 18.533 7.42409 18.6424L4.49357 21.1978V6.66242H20.5059V18.2907ZM8.85418 11.023C8.85418 10.9292 8.87371 10.8355 8.91279 10.7417C8.95186 10.6479 9.00266 10.5698 9.06518 10.5073C9.14332 10.4447 9.22538 10.3939 9.31134 10.3549C9.3973 10.3158 9.48717 10.2963 9.58095 10.2963H15.4185C15.5123 10.2963 15.6022 10.3158 15.6881 10.3549C15.7741 10.3939 15.8562 10.4447 15.9343 10.5073C15.9968 10.5698 16.0476 10.6479 16.0867 10.7417C16.1258 10.8355 16.1453 10.9292 16.1453 11.023C16.1453 11.1168 16.1258 11.2106 16.0867 11.3044C16.0476 11.3981 15.9968 11.4763 15.9343 11.5388C15.8562 11.6013 15.7741 11.6521 15.6881 11.6912C15.6022 11.7303 15.5123 11.7498 15.4185 11.7498H9.58095C9.48717 11.7498 9.3973 11.7303 9.31134 11.6912C9.22538 11.6521 9.14332 11.6013 9.06518 11.5388C9.00266 11.4763 8.95186 11.3981 8.91279 11.3044C8.87371 11.2106 8.85418 11.1168 8.85418 11.023ZM8.85418 13.9301C8.85418 13.8363 8.87371 13.7464 8.91279 13.6605C8.95186 13.5745 9.00266 13.4925 9.06518 13.4143C9.14332 13.3518 9.22538 13.301 9.31134 13.2619C9.3973 13.2229 9.48717 13.2033 9.58095 13.2033H15.4185C15.5123 13.2033 15.6022 13.2229 15.6881 13.2619C15.7741 13.301 15.8562 13.3518 15.9343 13.4143C15.9968 13.4925 16.0476 13.5745 16.0867 13.6605C16.1258 13.7464 16.1453 13.8363 16.1453 13.9301C16.1453 14.0239 16.1258 14.1176 16.0867 14.2114C16.0476 14.3052 15.9968 14.3833 15.9343 14.4459C15.8562 14.5084 15.7741 14.5592 15.6881 14.5982C15.6022 14.6373 15.5123 14.6569 15.4185 14.6569H9.58095C9.48717 14.6569 9.3973 14.6373 9.31134 14.5982C9.22538 14.5592 9.14332 14.5084 9.06518 14.4459C9.00266 14.3833 8.95186 14.3052 8.91279 14.2114C8.87371 14.1176 8.85418 14.0239 8.85418 13.9301Z" fill="#303033"/>
</g>
</svg>
