<svg width="23" height="26" viewBox="0 0 23 26" fill="none" xmlns="http://www.w3.org/2000/svg">
<g id="Icon" clip-path="url(#clip0_84_14)">
<path id="Vector" d="M10.4645 0.991413C9.97984 1.11648 9.5343 1.36661 9.12783 1.74181C8.72137 2.117 8.40871 2.57036 8.18985 3.10189L8.00225 3.50054L7.416 3.80538C7.22841 3.89918 7.05644 3.99298 6.90011 4.08678C6.74378 4.18058 6.58745 4.27438 6.43111 4.36818L6.47801 4.34473C5.82142 4.78245 5.27426 5.31007 4.83653 5.92758C4.3988 6.54509 4.07051 7.25249 3.85164 8.04978C3.72658 8.45625 3.6406 8.8588 3.5937 9.25745C3.5468 9.65609 3.50771 10.2853 3.47645 11.1451C3.44518 12.0362 3.40219 12.7085 3.34747 13.1618C3.29276 13.6152 3.2185 14.0373 3.1247 14.4281C3.01527 14.8658 2.87848 15.2449 2.71433 15.5654C2.55018 15.8859 2.31178 16.2494 1.99911 16.6558C1.48322 17.3124 1.17837 17.7267 1.08458 17.8987C0.990776 18.0706 0.928244 18.2973 0.896977 18.5787C0.850078 19.079 0.990776 19.5284 1.31907 19.9271C1.64737 20.3257 2.07728 20.5641 2.60881 20.6423C2.68697 20.6579 2.95274 20.6697 3.4061 20.6775C3.85946 20.6853 4.35972 20.6892 4.90688 20.6892C6.01684 20.6892 6.63435 20.7009 6.75941 20.7244C6.88448 20.7478 6.94701 20.8533 6.94701 21.0409C6.94701 21.1973 6.98609 21.4279 7.06426 21.7327C7.14242 22.0376 7.22059 22.2838 7.29876 22.4714C7.58015 23.0498 7.96707 23.5462 8.45952 23.9604C8.95196 24.3747 9.51866 24.6678 10.1596 24.8398C10.3629 24.9023 10.7107 24.9336 11.2031 24.9336C11.6956 24.9336 12.0434 24.9023 12.2466 24.8398C12.8876 24.6678 13.4543 24.3747 13.9468 23.9604C14.4392 23.5462 14.8261 23.0498 15.1075 22.4714C15.1857 22.2838 15.2638 22.0376 15.342 21.7327C15.4202 21.4279 15.4593 21.1973 15.4593 21.0409C15.4593 20.8533 15.5218 20.7478 15.6469 20.7244C15.7719 20.7009 16.3894 20.6892 17.4994 20.6892C18.5624 20.6892 19.2581 20.6775 19.5864 20.654C19.9147 20.6306 20.1805 20.5719 20.3837 20.4781C20.8683 20.2593 21.2044 19.9036 21.392 19.4112C21.5796 18.9187 21.564 18.438 21.3451 17.969C21.3139 17.8909 21.2279 17.7541 21.0872 17.5587C20.9465 17.3632 20.798 17.1639 20.6417 16.9607C20.2196 16.4448 19.9147 16.011 19.7271 15.6592C19.5395 15.3075 19.391 14.8971 19.2816 14.4281C19.1878 14.0529 19.1174 13.6465 19.0705 13.2087C19.0236 12.771 18.9845 12.1926 18.9533 11.4734C18.922 10.4573 18.8751 9.71081 18.8126 9.234C18.75 8.75718 18.6328 8.26865 18.4608 7.76839C18.1794 6.86166 17.7495 6.08391 17.1711 5.43514C16.5927 4.78636 15.8501 4.23529 14.9434 3.78193L14.404 3.50054L14.2164 3.10189C13.9976 2.55473 13.6849 2.09746 13.2784 1.73008C12.872 1.3627 12.4186 1.11648 11.9184 0.991413C11.7464 0.944513 11.5041 0.921064 11.1914 0.921064C10.8787 0.921064 10.6364 0.944513 10.4645 0.991413ZM11.7542 2.75014C11.8793 2.81268 12.02 2.91429 12.1763 3.05499C12.3326 3.19569 12.4421 3.33639 12.5046 3.47709C12.5359 3.52398 12.571 3.59043 12.6101 3.67641C12.6492 3.76239 12.6844 3.84447 12.7156 3.92263C12.7782 4.09459 12.8485 4.24702 12.9267 4.3799C13.0049 4.51278 13.1065 4.63394 13.2315 4.74337C13.341 4.8528 13.4387 4.93097 13.5247 4.97787C13.6106 5.02477 13.8334 5.14202 14.193 5.32961C14.5213 5.48595 14.7949 5.63837 15.0137 5.78688C15.2326 5.9354 15.4436 6.11127 15.6469 6.3145C16.1784 6.8304 16.5731 7.45963 16.8311 8.20221C17.089 8.94478 17.218 9.81633 17.218 10.8169C17.218 11.5047 17.2493 12.1926 17.3118 12.8804C17.3743 13.5683 17.4603 14.1545 17.5697 14.6392C17.7104 15.2801 17.9059 15.8468 18.156 16.3393C18.4061 16.8317 18.7891 17.3984 19.305 18.0394C19.4301 18.1957 19.5434 18.3364 19.645 18.4615C19.7467 18.5865 19.7975 18.6569 19.7975 18.6725C19.8131 18.6881 19.817 18.7116 19.8092 18.7429C19.8014 18.7741 19.7818 18.8054 19.7506 18.8367L19.6802 18.9539H2.72606L2.63226 18.8367C2.61662 18.8054 2.6049 18.7741 2.59708 18.7429C2.58927 18.7116 2.59317 18.6881 2.60881 18.6725C2.60881 18.6569 2.65962 18.5865 2.76123 18.4615C2.86285 18.3364 2.97619 18.1957 3.10125 18.0394C3.39828 17.6642 3.62887 17.3554 3.79302 17.1131C3.95717 16.8708 4.10959 16.6168 4.25029 16.351C4.56295 15.7257 4.78573 15.0339 4.91861 14.2757C5.05149 13.5175 5.14138 12.4349 5.18828 11.0279C5.21955 10.1524 5.27817 9.49194 5.36415 9.0464C5.45013 8.60085 5.60256 8.14358 5.82142 7.67459C5.94649 7.39319 6.07937 7.15088 6.22007 6.94765C6.36077 6.74442 6.54055 6.54118 6.75941 6.33795C6.97828 6.11909 7.20105 5.93149 7.42773 5.77516C7.65441 5.61883 7.96316 5.44686 8.35399 5.25927C8.77609 5.05603 9.07703 4.86453 9.25681 4.68475C9.43659 4.50496 9.5812 4.25874 9.69063 3.94608C9.75316 3.74285 9.81569 3.59043 9.87823 3.48881C9.94076 3.3872 10.0346 3.26604 10.1596 3.12534C10.3472 2.93774 10.5192 2.80486 10.6755 2.72669C10.8318 2.64853 11.0194 2.61726 11.2383 2.63289C11.3477 2.63289 11.4415 2.64071 11.5197 2.65635C11.5979 2.67198 11.676 2.70325 11.7542 2.75014ZM13.7709 20.8768C13.7709 21.2207 13.6575 21.5803 13.4309 21.9555C13.2042 22.3307 12.9189 22.6277 12.5749 22.8466C12.3561 22.9873 12.1489 23.085 11.9535 23.1397C11.7581 23.1944 11.5041 23.2218 11.1914 23.2218C10.9725 23.2218 10.8123 23.2179 10.7107 23.21C10.6091 23.2022 10.4879 23.167 10.3472 23.1045C9.86259 22.9325 9.45613 22.6316 9.12783 22.2017C8.79954 21.7718 8.63539 21.3302 8.63539 20.8768V20.6892H13.7709V20.8768Z" fill="#303033"/>
</g>
<defs>
<clipPath id="clip0_84_14">
<rect width="22.16" height="25" fill="white" transform="matrix(1 0 0 -1 0.123047 25.4277)"/>
</clipPath>
</defs>
</svg>
