<svg width="24" height="24" viewBox="0 0 24 24" fill="none" xmlns="http://www.w3.org/2000/svg">
<g id="00791fd0-67df-11ee-b380-239f7963143b.svg">
<path id="Vector" d="M10.875 11.25C10.875 11.0275 10.941 10.81 11.0646 10.625C11.1882 10.44 11.3639 10.2958 11.5695 10.2106C11.7751 10.1254 12.0013 10.1032 12.2194 10.1466C12.4377 10.19 12.6382 10.2972 12.7955 10.4545C12.9528 10.6118 13.06 10.8123 13.1034 11.0306C13.1468 11.2487 13.1245 11.4749 13.0393 11.6805C12.9542 11.8861 12.81 12.0618 12.6251 12.1854C12.44 12.309 12.2225 12.375 12 12.375C11.7016 12.375 11.4155 12.2565 11.2045 12.0455C10.9935 11.8345 10.875 11.5483 10.875 11.25ZM16.125 12.375C16.3475 12.375 16.565 12.309 16.7501 12.1854C16.935 12.0618 17.0792 11.8861 17.1643 11.6805C17.2495 11.4749 17.2718 11.2487 17.2284 11.0306C17.185 10.8123 17.0778 10.6118 16.9205 10.4545C16.7632 10.2972 16.5627 10.19 16.3444 10.1466C16.1263 10.1032 15.9001 10.1254 15.6945 10.2106C15.4889 10.2958 15.3132 10.44 15.1896 10.625C15.066 10.81 15 11.0275 15 11.25C15 11.5483 15.1185 11.8345 15.3295 12.0455C15.5405 12.2565 15.8266 12.375 16.125 12.375ZM21.75 5.25V17.25C21.75 17.6478 21.592 18.0293 21.3106 18.3106C21.0293 18.592 20.6478 18.75 20.25 18.75H14.6747L13.2835 21.0271C13.1495 21.2484 12.9607 21.4312 12.7353 21.5579C12.5099 21.6846 12.2556 21.7509 11.997 21.7503C11.7384 21.7498 11.4844 21.6824 11.2595 21.5547C11.0347 21.427 10.8467 21.2433 10.7137 21.0215L9.32535 18.75H3.75C3.35218 18.75 2.97064 18.592 2.68934 18.3106C2.40803 18.0293 2.25 17.6478 2.25 17.25V5.25C2.25 4.85218 2.40803 4.47065 2.68934 4.18934C2.97064 3.90803 3.35218 3.75 3.75 3.75H20.25C20.6478 3.75 21.0293 3.90803 21.3106 4.18934C21.592 4.47065 21.75 4.85218 21.75 5.25ZM20.25 5.25H3.75V17.25H9.32535C9.58357 17.2507 9.8373 17.3176 10.0622 17.4445C10.2871 17.5714 10.4756 17.754 10.6096 17.9746L12 20.25L13.3894 17.97C13.5241 17.75 13.713 17.5682 13.938 17.4422C14.1631 17.3161 14.4167 17.2499 14.6747 17.25H20.25V5.25ZM7.875 12.375C8.09753 12.375 8.31502 12.309 8.50005 12.1854C8.685 12.0618 8.82923 11.8861 8.91435 11.6805C8.99955 11.4749 9.02182 11.2487 8.9784 11.0306C8.93498 10.8123 8.8278 10.6118 8.67053 10.4545C8.51318 10.2972 8.3127 10.19 8.09445 10.1466C7.87627 10.1032 7.65007 10.1254 7.44448 10.2106C7.23892 10.2958 7.06321 10.44 6.9396 10.625C6.81598 10.81 6.75 11.0275 6.75 11.25C6.75 11.5483 6.86853 11.8345 7.0795 12.0455C7.29048 12.2565 7.57665 12.375 7.875 12.375Z" fill="#343330"/>
</g>
</svg>
