<svg width="18" height="18" viewBox="0 0 18 18" fill="none" xmlns="http://www.w3.org/2000/svg">
<g id="Icon" clip-path="url(#clip0_12_111)">
<path id="Vector" d="M4.67578 7.18945C4.82812 7.04883 4.99805 6.94043 5.18555 6.86426C5.37305 6.78809 5.57227 6.75 5.7832 6.75C5.98242 6.75 6.17871 6.78809 6.37207 6.86426C6.56543 6.94043 6.73242 7.04883 6.87305 7.18945L10.459 10.7754L12.4629 8.75391C12.6152 8.61328 12.7852 8.50195 12.9727 8.41992C13.1602 8.33789 13.3594 8.29688 13.5703 8.29688C13.7695 8.29688 13.9658 8.33789 14.1592 8.41992C14.3525 8.50195 14.5195 8.61328 14.6602 8.75391L17.4023 11.4961V4.14844C17.4023 3.63281 17.3027 3.13477 17.1035 2.6543C16.9043 2.17383 16.623 1.75195 16.2598 1.38867C15.8965 1.02539 15.4746 0.744141 14.9941 0.544922C14.5137 0.345703 14.0156 0.246094 13.5 0.246094H4.16602C3.65039 0.246094 3.15234 0.345703 2.67188 0.544922C2.19141 0.744141 1.76953 1.02539 1.40625 1.38867C1.04297 1.75195 0.761719 2.17383 0.5625 2.6543C0.363281 3.13477 0.263672 3.63281 0.263672 4.14844V11.6191L4.67578 7.18945ZM12.7266 4.14844C12.8789 4.14844 13.0283 4.17773 13.1748 4.23633C13.3213 4.29492 13.4473 4.37695 13.5527 4.48242C13.6582 4.59961 13.7432 4.72852 13.8076 4.86914C13.8721 5.00977 13.9043 5.15625 13.9043 5.30859C13.9043 5.46094 13.8721 5.61035 13.8076 5.75684C13.7432 5.90332 13.6582 6.0293 13.5527 6.13477C13.4473 6.25195 13.3213 6.33984 13.1748 6.39844C13.0283 6.45703 12.8789 6.48633 12.7266 6.48633C12.5742 6.48633 12.4248 6.45703 12.2783 6.39844C12.1318 6.33984 12.0059 6.25195 11.9004 6.13477C11.7949 6.0293 11.7129 5.90332 11.6543 5.75684C11.5957 5.61035 11.5664 5.46094 11.5664 5.30859C11.5664 5.15625 11.5957 5.00977 11.6543 4.86914C11.7129 4.72852 11.7949 4.59961 11.9004 4.48242C12.0059 4.37695 12.1318 4.29492 12.2783 4.23633C12.4248 4.17773 12.5742 4.14844 12.7266 4.14844ZM17.4023 13.6758C17.3789 14.168 17.2646 14.6426 17.0596 15.0996C16.8545 15.5566 16.5703 15.9609 16.207 16.3125C15.8438 16.6523 15.4277 16.916 14.959 17.1035C14.4902 17.291 14.0039 17.3848 13.5 17.3848H4.16602C3.67383 17.3848 3.19922 17.2969 2.74219 17.1211C2.28516 16.9453 1.875 16.6875 1.51172 16.3477C1.14844 16.0195 0.858398 15.6328 0.641602 15.1875C0.424805 14.7422 0.298828 14.2734 0.263672 13.7812L5.71289 8.33203L9.29883 11.918C9.43945 12.0586 9.60645 12.167 9.7998 12.2432C9.99316 12.3193 10.1895 12.3574 10.3887 12.3574C10.5996 12.3574 10.7988 12.3193 10.9863 12.2432C11.1738 12.167 11.3438 12.0586 11.4961 11.918L13.5 9.89648L17.4023 13.6758Z" fill="#6C6F78"/>
</g>
<defs>
<clipPath id="clip0_12_111">
<rect width="18" height="18" fill="white" transform="matrix(1 0 0 -1 0 18)"/>
</clipPath>
</defs>
</svg>
