<svg width="18" height="18" viewBox="0 0 18 18" fill="none" xmlns="http://www.w3.org/2000/svg">
<g id="Icon" clip-path="url(#clip0_12_127)">
<path id="Vector" d="M12.2871 3.07617C12.1934 2.20898 11.833 1.47949 11.2061 0.887695C10.5791 0.295898 9.84375 0 9 0C8.15625 0 7.4209 0.295898 6.79395 0.887695C6.16699 1.47949 5.80664 2.20898 5.71289 3.07617C5.4082 2.74805 5.05078 2.4873 4.64062 2.29395C4.23047 2.10059 3.79102 2.00391 3.32227 2.00391C2.86523 2.00391 2.43164 2.0918 2.02148 2.26758C1.62305 2.45508 1.27441 2.70703 0.975586 3.02344C0.676758 3.33984 0.439453 3.70898 0.263672 4.13086C0.0878906 4.56445 0 5.02148 0 5.50195C0 6.46289 0.319336 7.2832 0.958008 7.96289C1.59668 8.64258 2.36719 8.98828 3.26953 9V16.998C3.26953 17.2793 3.36914 17.5166 3.56836 17.71C3.76758 17.9033 4.00195 18 4.27148 18H13.7285C14.0098 18 14.2471 17.9033 14.4404 17.71C14.6338 17.5166 14.7305 17.2793 14.7305 16.998V9C15.6328 8.98828 16.4033 8.64258 17.042 7.96289C17.6807 7.2832 18 6.46289 18 5.50195C18 5.02148 17.9121 4.56445 17.7363 4.13086C17.5605 3.70898 17.3232 3.33984 17.0244 3.02344C16.7256 2.70703 16.377 2.45508 15.9785 2.26758C15.5684 2.0918 15.1348 2.00391 14.6777 2.00391C14.209 2.00391 13.7695 2.10059 13.3594 2.29395C12.9492 2.4873 12.5918 2.74805 12.2871 3.07617Z" fill="#6C6F78"/>
</g>
<defs>
<clipPath id="clip0_12_127">
<rect width="18" height="18" fill="white" transform="matrix(1 0 0 -1 0 18)"/>
</clipPath>
</defs>
</svg>
