<svg xmlns="http://www.w3.org/2000/svg" width="19" height="19" viewBox="0 0 19 19" fill="none">
  <path d="M16.6855 10.8877C16.6035 10.0557 16.3867 9.34668 16.0352 8.76074C15.6836 8.1748 15.2617 7.69434 14.7695 7.31934C14.2773 6.94434 13.7441 6.66895 13.1699 6.49316C12.6074 6.31738 12.0742 6.22949 11.5703 6.22949H9.30273V4.52441C9.30273 4.44238 9.28516 4.35742 9.25 4.26953C9.21484 4.18164 9.16797 4.10254 9.10938 4.03223C9.05078 3.96191 8.98047 3.90625 8.89844 3.86523C8.81641 3.82422 8.73437 3.79785 8.65234 3.78613C8.55859 3.77441 8.46777 3.78027 8.37988 3.80371C8.29199 3.82715 8.20703 3.8623 8.125 3.90918L2.07812 7.95215C1.97266 8.02246 1.89062 8.11328 1.83203 8.22461C1.77344 8.33594 1.74414 8.45605 1.74414 8.58496C1.74414 8.70215 1.77344 8.81641 1.83203 8.92773C1.89062 9.03906 1.97266 9.12988 2.07812 9.2002L8.14258 13.1729C8.21289 13.2197 8.29199 13.2549 8.37988 13.2783C8.46777 13.3018 8.55859 13.3076 8.65234 13.2959C8.73437 13.2725 8.81641 13.2402 8.89844 13.1992C8.98047 13.1582 9.05078 13.1025 9.10938 13.0322C9.16797 12.9736 9.21484 12.9004 9.25 12.8125C9.28516 12.7246 9.30273 12.6338 9.30273 12.54V10.8174H11.0254C11.9863 10.8174 12.8008 10.999 13.4688 11.3623C14.1484 11.7373 14.7021 12.1855 15.1299 12.707C15.5576 13.2285 15.8711 13.7646 16.0703 14.3154C16.2695 14.8662 16.3809 15.3174 16.4043 15.6689C16.4043 15.7041 16.4189 15.7334 16.4482 15.7568C16.4775 15.7803 16.5098 15.792 16.5449 15.792C16.5801 15.792 16.6123 15.7803 16.6416 15.7568C16.6709 15.7334 16.6855 15.6982 16.6855 15.6514C16.7559 13.8115 16.7734 12.5576 16.7383 11.8896C16.7031 11.2217 16.6855 10.8877 16.6855 10.8877Z" fill="#303033"/>
</svg>