<svg width="25" height="25" viewBox="0 0 25 25" fill="none" xmlns="http://www.w3.org/2000/svg">
<g id="Icon">
<path id="Vector" d="M17.9141 3.5H7.41406C7.21094 3.5 7.01562 3.53906 6.82812 3.61719C6.64062 3.69531 6.47656 3.80469 6.33594 3.94531C6.19531 4.08594 6.08984 4.24609 6.01953 4.42578C5.94922 4.60547 5.91406 4.79688 5.91406 5V21.5C5.91406 21.5625 5.92187 21.6289 5.9375 21.6992C5.95312 21.7695 5.97656 21.8281 6.00781 21.875C6.03906 21.9375 6.07812 21.9922 6.125 22.0391C6.17188 22.0859 6.22656 22.125 6.28906 22.1562C6.35156 22.1875 6.41406 22.2109 6.47656 22.2266C6.53906 22.2422 6.60938 22.25 6.6875 22.25C6.75 22.25 6.8125 22.2383 6.875 22.2148C6.9375 22.1914 7 22.1641 7.0625 22.1328L12.6641 18.6406L18.2656 22.1328C18.3125 22.1641 18.3711 22.1914 18.4414 22.2148C18.5117 22.2383 18.5781 22.25 18.6406 22.25C18.7031 22.25 18.7656 22.2422 18.8281 22.2266C18.8906 22.2109 18.9531 22.1875 19.0156 22.1562C19.0781 22.125 19.1328 22.0859 19.1797 22.0391C19.2266 21.9922 19.2656 21.9375 19.2969 21.875C19.3281 21.8281 19.3555 21.7695 19.3789 21.6992C19.4023 21.6289 19.4141 21.5625 19.4141 21.5V5C19.4141 4.79688 19.375 4.60547 19.2969 4.42578C19.2188 4.24609 19.1094 4.08594 18.9688 3.94531C18.8281 3.80469 18.6641 3.69531 18.4766 3.61719C18.2891 3.53906 18.1016 3.5 17.9141 3.5ZM17.9141 20.1406L13.0625 17.1172C13 17.0703 12.9336 17.0391 12.8633 17.0234C12.793 17.0078 12.7266 17 12.6641 17C12.5859 17 12.5156 17.0078 12.4531 17.0234C12.3906 17.0391 12.3281 17.0703 12.2656 17.1172L7.41406 20.1406V5H17.9141V20.1406Z" fill="#303033"/>
</g>
</svg>
