<svg width="18" height="18" viewBox="0 0 18 18" fill="none" xmlns="http://www.w3.org/2000/svg">
<g id="Icon" clip-path="url(#clip0_12_98)">
<path id="Vector" d="M1.7439e-05 5.09766C-0.0234201 4.59375 0.0351737 4.09863 0.175799 3.6123C0.316424 3.12598 0.53908 2.67773 0.843767 2.26758L1.00197 2.05664H1.01955L1.12502 1.93359L1.23049 1.81055H1.24806C1.35353 1.70508 1.46486 1.6084 1.58205 1.52051C1.69924 1.43262 1.82814 1.35352 1.96877 1.2832L2.03908 1.24805L2.10939 1.19531L2.28517 1.10742C2.32033 1.0957 2.35549 1.08105 2.39064 1.06348C2.4258 1.0459 2.46096 1.03125 2.49611 1.01953C2.51955 1.00781 2.54299 0.996094 2.56642 0.984375C2.58986 0.972656 2.6133 0.966797 2.63674 0.966797C2.68361 0.943359 2.73342 0.922852 2.78615 0.905273C2.83888 0.887695 2.88869 0.873047 2.93556 0.861328C2.959 0.849609 2.97951 0.84082 2.99709 0.834961C3.01467 0.829102 3.02931 0.826172 3.04103 0.826172L3.09377 0.808594L3.12892 0.791016C3.3633 0.732422 3.59767 0.682617 3.83205 0.641602C4.06642 0.600586 4.30666 0.568359 4.55275 0.544922H4.50002V-0.351562C4.50002 -0.527344 4.57033 -0.679688 4.71095 -0.808594C4.85158 -0.9375 5.0215 -1.00195 5.22072 -1.00195C5.41994 -1.00195 5.58986 -0.9375 5.73049 -0.808594C5.87111 -0.679688 5.94142 -0.527344 5.94142 -0.351562V2.47852C5.94142 2.66602 5.87111 2.82129 5.73049 2.94434C5.58986 3.06738 5.41994 3.12891 5.22072 3.12891C5.0215 3.12891 4.85158 3.06738 4.71095 2.94434C4.57033 2.82129 4.50002 2.66602 4.50002 2.47852V1.82812C4.26564 1.85156 4.03127 1.88965 3.79689 1.94238C3.56252 1.99512 3.33986 2.0625 3.12892 2.14453C2.55471 2.37891 2.1299 2.71875 1.85451 3.16406C1.57912 3.60938 1.42385 4.17773 1.38869 4.86914V5.09766V5.43164H16.6113V5.08008C16.6231 4.76367 16.5938 4.44727 16.5235 4.13086C16.4531 3.81445 16.3418 3.50977 16.1895 3.2168C16.0488 2.9707 15.8643 2.75684 15.6358 2.5752C15.4072 2.39355 15.1524 2.25 14.8711 2.14453C14.6953 2.07422 14.5137 2.0127 14.3262 1.95996C14.1387 1.90723 13.9453 1.86914 13.7461 1.8457L13.5 1.82812V2.47852C13.5 2.6543 13.4297 2.80664 13.2891 2.93555C13.1485 3.06445 12.9785 3.12891 12.7793 3.12891C12.5801 3.12891 12.4102 3.06445 12.2695 2.93555C12.1289 2.80664 12.0586 2.6543 12.0586 2.47852V1.77539H5.94142V0.492188H12.0586V-0.351562C12.0586 -0.527344 12.1289 -0.679688 12.2695 -0.808594C12.4102 -0.9375 12.5801 -1.00195 12.7793 -1.00195C12.9785 -1.00195 13.1485 -0.94043 13.2891 -0.817383C13.4297 -0.694336 13.5 -0.539062 13.5 -0.351562V0.544922C13.6758 0.556641 13.8486 0.577148 14.0186 0.606445C14.1885 0.635742 14.3613 0.667969 14.5371 0.703125L14.8711 0.791016C14.8828 0.791016 14.8975 0.793945 14.9151 0.799805C14.9326 0.805664 14.9473 0.814453 14.959 0.826172C14.9824 0.826172 15.0029 0.829102 15.0205 0.834961C15.0381 0.84082 15.0528 0.849609 15.0645 0.861328C15.1231 0.873047 15.1758 0.887695 15.2227 0.905273C15.2695 0.922852 15.3164 0.9375 15.3633 0.949219C15.3867 0.960938 15.4131 0.972656 15.4424 0.984375C15.4717 0.996094 15.4922 1.00781 15.5039 1.01953C15.5508 1.03125 15.5918 1.0459 15.627 1.06348C15.6621 1.08105 15.6973 1.0957 15.7324 1.10742C15.7559 1.11914 15.7822 1.13379 15.8115 1.15137C15.8408 1.16895 15.8731 1.18359 15.9082 1.19531C15.9317 1.20703 15.9551 1.22168 15.9785 1.23926C16.002 1.25684 16.0254 1.27148 16.0488 1.2832C16.1426 1.33008 16.2363 1.38574 16.3301 1.4502C16.4238 1.51465 16.5117 1.58203 16.5938 1.65234L16.7695 1.81055L16.8926 1.93359L16.9981 2.03906V2.05664C17.3262 2.45508 17.5752 2.89453 17.7451 3.375C17.9151 3.85547 18 4.3418 18 4.83398V5.09766V5.43164V12.4277C18 13.1777 17.8828 13.8398 17.6485 14.4141C17.4141 14.9883 17.0625 15.4658 16.5938 15.8467C16.125 16.2275 15.5391 16.5176 14.836 16.7168C14.1328 16.9043 13.3125 16.998 12.375 16.998H5.62502C4.68752 16.998 3.86721 16.9043 3.16408 16.7168C2.46096 16.5176 1.87502 16.2275 1.40627 15.8467C0.937517 15.4658 0.585955 14.9883 0.35158 14.4141C0.117205 13.8398 1.7439e-05 13.1777 1.7439e-05 12.4277V5.43164V5.09766ZM13.1133 11.8301C12.8789 11.8301 12.6826 11.9033 12.5244 12.0498C12.3662 12.1963 12.2871 12.375 12.2871 12.5859C12.2871 12.7969 12.3692 12.9785 12.5332 13.1309C12.6973 13.2832 12.8906 13.3594 13.1133 13.3594C13.3477 13.3594 13.544 13.2832 13.7022 13.1309C13.8604 12.9785 13.9395 12.7969 13.9395 12.5859C13.9395 12.375 13.8604 12.1963 13.7022 12.0498C13.544 11.9033 13.3477 11.8301 13.1133 11.8301ZM9.00002 11.8125C8.76564 11.8125 8.56935 11.8887 8.41115 12.041C8.25295 12.1934 8.17385 12.375 8.17385 12.5859C8.17385 12.7969 8.25588 12.9785 8.41994 13.1309C8.584 13.2832 8.77736 13.3594 9.00002 13.3594C9.23439 13.3594 9.43068 13.2832 9.58888 13.1309C9.74709 12.9785 9.82619 12.7969 9.82619 12.5859C9.82619 12.375 9.74709 12.1934 9.58888 12.041C9.43068 11.8887 9.23439 11.8125 9.00002 11.8125ZM4.88674 11.8125C4.65236 11.8125 4.45607 11.8887 4.29787 12.041C4.13967 12.1934 4.06056 12.375 4.06056 12.5859C4.06056 12.7969 4.13967 12.9785 4.29787 13.1309C4.45607 13.2832 4.65236 13.3594 4.88674 13.3594C5.10939 13.3594 5.30275 13.2832 5.46681 13.1309C5.63088 12.9785 5.71291 12.7969 5.71291 12.5859C5.71291 12.375 5.63088 12.1934 5.46681 12.041C5.30275 11.8887 5.10939 11.8125 4.88674 11.8125ZM13.1133 8.56055C12.8789 8.56055 12.6826 8.63379 12.5244 8.78027C12.3662 8.92676 12.2871 9.10547 12.2871 9.31641C12.2871 9.52734 12.3692 9.70898 12.5332 9.86133C12.6973 10.0137 12.8906 10.0898 13.1133 10.0898C13.3477 10.0898 13.544 10.0137 13.7022 9.86133C13.8604 9.70898 13.9395 9.52734 13.9395 9.31641C13.9395 9.10547 13.8604 8.92676 13.7022 8.78027C13.544 8.63379 13.3477 8.56055 13.1133 8.56055ZM9.00002 8.54297C8.76564 8.55469 8.56935 8.63379 8.41115 8.78027C8.25295 8.92676 8.17385 9.10547 8.17385 9.31641C8.17385 9.52734 8.25588 9.70898 8.41994 9.86133C8.584 10.0137 8.77736 10.0898 9.00002 10.0898C9.23439 10.0898 9.43068 10.0137 9.58888 9.86133C9.74709 9.70898 9.82619 9.52734 9.82619 9.31641C9.82619 9.10547 9.74709 8.92676 9.58888 8.78027C9.43068 8.63379 9.23439 8.55469 9.00002 8.54297ZM4.88674 8.54297C4.66408 8.54297 4.47072 8.61914 4.30666 8.77148C4.1426 8.92383 4.06056 9.10547 4.06056 9.31641C4.06056 9.52734 4.13967 9.70898 4.29787 9.86133C4.45607 10.0137 4.65236 10.0898 4.88674 10.0898C5.12111 10.0898 5.3174 10.0137 5.4756 9.86133C5.63381 9.70898 5.71291 9.52734 5.71291 9.31641C5.71291 9.10547 5.63088 8.92383 5.46681 8.77148C5.30275 8.61914 5.10939 8.54297 4.88674 8.54297Z" fill="#303033"/>
</g>
<defs>
<clipPath id="clip0_12_98">
<rect width="18" height="18" fill="white" transform="matrix(1 0 0 -1 0 18)"/>
</clipPath>
</defs>
</svg>
