<svg width="21" height="20" viewBox="0 0 21 20" fill="none" xmlns="http://www.w3.org/2000/svg">
<g id="Icon">
<path id="Vector" d="M8.81738 1.875C7.90592 1.875 7.05306 2.04427 6.25879 2.38281C5.46452 2.73438 4.77116 3.20638 4.17871 3.79883C3.58626 4.39128 3.11426 5.08464 2.7627 5.87891C2.42415 6.67318 2.25488 7.52604 2.25488 8.4375C2.25488 9.34896 2.42415 10.2018 2.7627 10.9961C3.11426 11.7904 3.58626 12.4837 4.17871 13.0762C4.77116 13.6686 5.46452 14.1406 6.25879 14.4922C7.05306 14.8307 7.90592 15 8.81738 15C9.61165 15 10.3636 14.8665 11.0732 14.5996C11.7829 14.3327 12.4242 13.9648 12.9971 13.4961L17.4307 17.9492C17.4958 18.0013 17.5674 18.0436 17.6455 18.0762C17.7236 18.1087 17.8018 18.125 17.8799 18.125C17.958 18.125 18.0361 18.1087 18.1143 18.0762C18.1924 18.0436 18.264 18.0013 18.3291 17.9492C18.3812 17.8841 18.4235 17.8125 18.4561 17.7344C18.4886 17.6562 18.5049 17.5781 18.5049 17.5C18.5049 17.4219 18.4886 17.3438 18.4561 17.2656C18.4235 17.1875 18.3812 17.1159 18.3291 17.0508L13.876 12.6172C14.3577 12.0312 14.7288 11.3802 14.9893 10.6641C15.2497 9.94792 15.3799 9.20573 15.3799 8.4375C15.3799 7.52604 15.2106 6.67318 14.8721 5.87891C14.5205 5.08464 14.0485 4.39128 13.4561 3.79883C12.8636 3.20638 12.1702 2.73438 11.376 2.38281C10.5817 2.04427 9.72884 1.875 8.81738 1.875ZM3.50488 8.4375C3.50488 7.73438 3.63835 7.05729 3.90527 6.40625C4.1722 5.75521 4.55957 5.18229 5.06738 4.6875C5.56217 4.17969 6.13509 3.79232 6.78613 3.52539C7.43717 3.25846 8.11426 3.125 8.81738 3.125C9.52051 3.125 10.1976 3.25846 10.8486 3.52539C11.4997 3.79232 12.0726 4.17969 12.5674 4.6875C13.0752 5.18229 13.4626 5.75521 13.7295 6.40625C13.9964 7.05729 14.1299 7.73438 14.1299 8.4375C14.1299 9.14062 13.9964 9.81771 13.7295 10.4688C13.4626 11.1198 13.0752 11.6927 12.5674 12.1875C12.0726 12.6953 11.4997 13.0827 10.8486 13.3496C10.1976 13.6165 9.52051 13.75 8.81738 13.75C8.11426 13.75 7.43717 13.6165 6.78613 13.3496C6.13509 13.0827 5.56217 12.6953 5.06738 12.1875C4.55957 11.6927 4.1722 11.1198 3.90527 10.4688C3.63835 9.81771 3.50488 9.14062 3.50488 8.4375Z" fill="#303033"/>
</g>
</svg>
