<svg width="25" height="25" viewBox="0 0 25 25" fill="none" xmlns="http://www.w3.org/2000/svg">
<g id="Icon">
<path id="Vector" d="M19.3537 13.3911C19.3693 13.2504 19.3811 13.1058 19.3889 12.9573C19.3967 12.8088 19.4006 12.6563 19.4006 12.5C19.4006 12.3437 19.3967 12.1913 19.3889 12.0428C19.3811 11.8943 19.3693 11.7418 19.3537 11.5855L21.2999 10.0848C21.3781 10.0066 21.4289 9.91286 21.4524 9.80343C21.4758 9.694 21.4641 9.59239 21.4172 9.4986L19.5647 6.30958C19.5022 6.20016 19.4201 6.12981 19.3185 6.09855C19.2169 6.06728 19.1114 6.06728 19.002 6.09855L16.704 7.01304C16.4695 6.82545 16.2233 6.6574 15.9654 6.5089C15.7074 6.36039 15.4378 6.23142 15.1564 6.12199L14.8047 3.68334C14.789 3.55828 14.7382 3.46057 14.6523 3.39023C14.5663 3.31988 14.4608 3.28471 14.3357 3.28471H10.6543C10.5448 3.28471 10.4471 3.31988 10.3612 3.39023C10.2752 3.46057 10.2244 3.55828 10.2087 3.68334L9.85701 6.12199C9.57562 6.23142 9.30597 6.3643 9.04803 6.52062C8.7901 6.67694 8.54389 6.84108 8.3094 7.01304L6.01143 6.09855C5.90201 6.05165 5.79258 6.04774 5.68315 6.08682C5.57373 6.1259 5.48775 6.20016 5.42522 6.30958L3.59622 9.4986C3.54933 9.59239 3.5337 9.694 3.54933 9.80343C3.56496 9.91286 3.61967 10.0066 3.71347 10.0848L5.6597 11.5855C5.64407 11.7418 5.62844 11.8943 5.61281 12.0428C5.59717 12.1913 5.58936 12.3437 5.58936 12.5C5.58936 12.6563 5.59327 12.8088 5.60108 12.9573C5.6089 13.1058 5.62062 13.2504 5.63626 13.3911L3.69002 14.9152C3.61186 14.9934 3.56105 15.0872 3.5376 15.1966C3.51415 15.306 3.52588 15.4077 3.57278 15.5014L5.42522 18.6905C5.48775 18.7999 5.56982 18.8702 5.67143 18.9015C5.77304 18.9328 5.87856 18.9328 5.98798 18.9015L8.28595 17.987C8.52044 18.1746 8.76665 18.3426 9.02458 18.4911C9.28252 18.6397 9.55218 18.7686 9.83356 18.878L10.1853 21.3167C10.2166 21.4418 10.2752 21.5395 10.3612 21.6098C10.4471 21.6802 10.5448 21.7153 10.6543 21.7153H14.3357C14.4608 21.7153 14.5624 21.6802 14.6405 21.6098C14.7187 21.5395 14.7656 21.4418 14.7812 21.3167L15.1329 18.878C15.4143 18.7686 15.684 18.6397 15.9419 18.4911C16.1999 18.3426 16.4539 18.1746 16.704 17.987L18.9785 18.9015C19.088 18.9484 19.1974 18.9523 19.3068 18.9132C19.4162 18.8741 19.5022 18.7999 19.5647 18.6905L21.3937 15.5014C21.4563 15.392 21.4758 15.2865 21.4524 15.1849C21.4289 15.0833 21.3703 14.9934 21.2765 14.9152L19.3537 13.3911ZM12.5067 15.947C11.5531 15.947 10.7363 15.6109 10.0563 14.9387C9.37631 14.2665 9.03631 13.4536 9.03631 12.5C9.03631 11.5464 9.37631 10.7336 10.0563 10.0614C10.7363 9.38917 11.5531 9.05307 12.5067 9.05307C13.4446 9.05307 14.2536 9.38917 14.9336 10.0614C15.6136 10.7336 15.9537 11.5464 15.9537 12.5C15.9537 13.4536 15.6136 14.2665 14.9336 14.9387C14.2536 15.6109 13.4446 15.947 12.5067 15.947Z" fill="#303033"/>
</g>
</svg>
