<svg xmlns="http://www.w3.org/2000/svg" width="19" height="19" viewBox="0 0 19 19" fill="none">
<path d="M17.2473 7.8607L11.6223 2.2357C11.5754 2.20055 11.5285 2.17125 11.4816 2.14781C11.4348 2.12437 11.382 2.1068 11.3234 2.09508C11.2766 2.08336 11.2238 2.08043 11.1652 2.08629C11.1066 2.09215 11.0539 2.10094 11.007 2.11266C10.9484 2.13609 10.8986 2.16539 10.8576 2.20055C10.8166 2.2357 10.7785 2.27672 10.7434 2.32359C10.7199 2.37047 10.6994 2.42027 10.6818 2.47301C10.6643 2.52574 10.6555 2.58141 10.6555 2.64V5.47008C10.1984 5.51695 9.73555 5.60484 9.2668 5.73375C8.78633 5.86266 8.31172 6.02965 7.84297 6.23473C7.37422 6.4398 6.91133 6.68883 6.4543 6.9818C6.00898 7.26305 5.57539 7.57945 5.15352 7.93102C4.66133 8.35289 4.21016 8.80406 3.8 9.28453C3.40156 9.765 3.05586 10.266 2.76289 10.7875C2.46992 11.3089 2.22969 11.8451 2.04219 12.3959C1.85469 12.9466 1.72578 13.5091 1.65547 14.0834C1.64375 14.1654 1.64668 14.2504 1.66426 14.3382C1.68184 14.4261 1.71406 14.5052 1.76094 14.5755C1.80781 14.6576 1.86348 14.7279 1.92793 14.7865C1.99238 14.8451 2.06562 14.8978 2.14766 14.9447C2.22969 14.9798 2.31465 15.0033 2.40254 15.015C2.49043 15.0267 2.57539 15.0209 2.65742 14.9974C2.75117 14.9857 2.83613 14.9564 2.9123 14.9095C2.98848 14.8627 3.05586 14.8099 3.11445 14.7513C3.31367 14.5404 3.63008 14.2416 4.06367 13.8548C4.48555 13.4798 5.01875 13.0961 5.66328 12.7035C6.30781 12.3109 7.05195 11.9564 7.8957 11.64C8.72773 11.3353 9.64766 11.1537 10.6555 11.0951V13.89C10.6555 13.9486 10.6643 14.0043 10.6818 14.057C10.6994 14.1097 10.7199 14.1595 10.7434 14.2064C10.7785 14.2533 10.8166 14.2943 10.8576 14.3295C10.8986 14.3646 10.9484 14.3939 11.007 14.4173C11.0539 14.4291 11.1066 14.4379 11.1652 14.4437C11.2238 14.4496 11.2766 14.4466 11.3234 14.4349C11.382 14.4232 11.4348 14.4056 11.4816 14.3822C11.5285 14.3587 11.5754 14.3295 11.6223 14.2943L17.2473 8.6693C17.2941 8.6107 17.3322 8.54625 17.3615 8.47594C17.3908 8.40562 17.4055 8.33531 17.4055 8.265C17.4055 8.19469 17.3908 8.12437 17.3615 8.05406C17.3322 7.98375 17.2941 7.9193 17.2473 7.8607ZM11.7805 12.5365V10.515C11.7805 10.4447 11.7658 10.3744 11.7365 10.3041C11.7072 10.2337 11.6691 10.1693 11.6223 10.1107C11.5637 10.0638 11.4992 10.0257 11.4289 9.99644C11.3586 9.96715 11.2883 9.9525 11.218 9.9525C10.7258 9.9525 10.2336 9.9818 9.74141 10.0404C9.26094 10.1107 8.78047 10.2103 8.3 10.3392C7.81953 10.4681 7.34492 10.6263 6.87617 10.8138C6.41914 11.0013 5.96211 11.224 5.50508 11.4818C5.03633 11.7396 4.58809 12.0267 4.16035 12.3431C3.73262 12.6595 3.32539 12.9935 2.93867 13.3451C3.13789 12.513 3.48945 11.7074 3.99336 10.9281C4.49727 10.1488 5.13008 9.43687 5.8918 8.79234C6.30195 8.44078 6.72969 8.13023 7.175 7.8607C7.62031 7.59117 8.07148 7.35973 8.52852 7.16637C8.98555 6.97301 9.44258 6.82945 9.89961 6.7357C10.3566 6.63023 10.7961 6.5775 11.218 6.5775C11.2883 6.5775 11.3586 6.56285 11.4289 6.53355C11.4992 6.50426 11.5637 6.46617 11.6223 6.4193C11.6691 6.3607 11.7072 6.29625 11.7365 6.22594C11.7658 6.15562 11.7805 6.08531 11.7805 6.015V3.99352L16.052 8.265L11.7805 12.5365Z" fill="#303033"/>
</svg>