<?xml version="1.0" encoding="utf-8"?>
<!-- Generator: Adobe Illustrator 25.2.0, SVG Export Plug-In . SVG Version: 6.00 Build 0)  -->
<svg version="1.1" id="Layer_1" xmlns="http://www.w3.org/2000/svg" xmlns:xlink="http://www.w3.org/1999/xlink" x="0px" y="0px"
	 width="270.59px" height="915.07px" viewBox="0 0 270.59 915.07" style="enable-background:new 0 0 270.59 915.07;"
	 xml:space="preserve">
<style type="text/css">
	.st0{fill:url(#SVGID_1_);}
	.st1{opacity:0.5;fill:#A57F51;}
	.st2{fill:none;stroke:#2E1D10;stroke-width:1.5;stroke-linecap:round;stroke-linejoin:round;stroke-miterlimit:10;}
	.st3{fill:#BD8974;stroke:#2E1D10;stroke-linecap:round;stroke-linejoin:round;stroke-miterlimit:10;}
	.st4{fill:#F3D9BB;}
	.st5{fill:#CBC8DD;}
	.st6{fill:#F3D9BB;stroke:#2E1D10;stroke-width:1.5;stroke-linecap:round;stroke-linejoin:round;stroke-miterlimit:10;}
	.st7{fill:#BD8974;}
	.st8{fill:#2E1D10;stroke:#2E1D10;stroke-width:0.25;stroke-linecap:round;stroke-linejoin:round;stroke-miterlimit:10;}
	.st9{fill:url(#SVGID_2_);}
	.st10{fill:#FFFFFF;}
	.st11{fill:#E5DED5;}
	.st12{fill:none;stroke:#2E1D10;stroke-linecap:round;stroke-linejoin:round;stroke-miterlimit:10;}
	.st13{fill:url(#SVGID_3_);stroke:#2E1D10;stroke-linecap:round;stroke-linejoin:round;stroke-miterlimit:10;}
	.st14{fill:#4F2C17;}
	.st15{fill:none;stroke:#2E1D10;stroke-width:0.75;stroke-linecap:round;stroke-linejoin:round;stroke-miterlimit:10;}
	.st16{fill:url(#SVGID_4_);stroke:#2E1D10;stroke-width:1.5;stroke-linecap:round;stroke-linejoin:round;stroke-miterlimit:10;}
	.st17{fill:#694923;stroke:#2E1D10;stroke-width:1.5;stroke-linecap:round;stroke-linejoin:round;stroke-miterlimit:10;}
	.st18{fill:#FFFFFF;stroke:#2E1D10;stroke-width:1.5;stroke-linecap:round;stroke-linejoin:round;stroke-miterlimit:10;}
	.st19{fill:url(#SVGID_5_);stroke:#2E1D10;stroke-width:1.5;stroke-linecap:round;stroke-linejoin:round;stroke-miterlimit:10;}
	.st20{fill:#9B9AB9;}
	.st21{fill:url(#SVGID_6_);}
</style>
<g>
	<g>
		<g>
			
				<linearGradient id="SVGID_1_" gradientUnits="userSpaceOnUse" x1="4340.8843" y1="-15.2878" x2="4340.3481" y2="297.3409" gradientTransform="matrix(-0.9099 -0.0421 -0.0516 0.9302 3994.1738 180.7457)">
				<stop  offset="0" style="stop-color:#2E1D10"/>
				<stop  offset="1" style="stop-color:#714F28"/>
			</linearGradient>
			<path class="st0" d="M73.35,59.74c0,0-49.11,77.04-28.03,215.64c2.44,16.06,7.04,37.14,14.85,52.58c0,0-19.47-14.76-21.95-24.07
				c0,0,6.48,17.55,10.49,26.15c0,0-33.4-12.49-42.98-60.3C-4.12,220.49,0.81,95.2,22.57,63.95"/>
		</g>
		<path class="st1" d="M6.62,112.57c0,0,24.66,0.07,31.78-27.72c0,0,0.85,21.17,13.5,28.23c-1.28,9.26-6.23,21.04-7.19,34.27
			c-1.47,0.49-11.53-0.39-14.27,9.15c0,0-7.22-21.2-27.02-12.16C4.46,132.52,5.57,121.68,6.62,112.57z"/>
		<g>
			<path class="st2" d="M69.19,73.25c0,0-45.76,66.78-22.09,211.29c2.29,13.99,6.57,29.92,13.08,43.42c0,0-18.22-14.25-21.95-24.07
				c0,0,6.48,17.55,10.49,26.15c0,0-33.4-12.49-42.98-60.3C-4.12,220.49,0.31,95.92,22.57,63.95"/>
		</g>
	</g>
	<g>
		<g>
			<path class="st3" d="M115.55,229.6c0,0,2.21,22.23,0.06,35.03c-2.15,12.79,40.44,1.53,40.44,1.53s-5.49-38.44-1.46-51.29
				C158.63,202.02,116.45,187.33,115.55,229.6z"/>
			<path class="st4" d="M114.95,260.27c0,0-43.32,30.23-51.18,48.64c-7.85,18.41-2.58,54.86,1.78,66.88
				c4.36,12.02,5.78,28.68,7.18,38.84c1.33,9.73,1.8,26.67,0.85,36.15c-0.23,2.33,2.81,0.31,3.13,2.19
				c1.62,9.56,88.37-9.15,88.37-9.15c-3.78-5.69-10.27-17.06-8.43-31.13c2.98-22.73,15.81-83.54,16.15-91.11
				c0.35-7.57-2.09-49.97-29.17-56.95C116.55,257.66,114.95,260.27,114.95,260.27z"/>
			<path class="st2" d="M117.55,255.03c0,0-45.92,35.47-53.77,53.88c-7.85,18.41-2.58,54.86,1.78,66.88
				c4.36,12.02,6.45,27.67,7.65,37.86c1.56,13.2,2.04,26.8,0.48,36.12c-1.6,9.56,91.38-5.95,91.38-5.95
				c-3.78-5.69-10.18-15.98-8.43-31.13c2.63-22.77,17.11-83.52,17.46-91.08c0.35-7.57-0.75-57.42-27.83-64.4
				S117.55,255.03,117.55,255.03z"/>
			<path class="st5" d="M162.66,377.87c0,0-77.28,4.9-94.95,4.74c0,0-9.53-21.4-12.38-26.3c-4.37-7.51-8.91-25.51,1.5-40.5
				c11.32-16.31,32.05-38.4,32.05-38.4s20.93-28.34,43.79-23.15s26.46,3.59,36.33,29.7c11.34,29.99-0.51,66.42-0.51,66.42
				L162.66,377.87z"/>
			<path class="st2" d="M162.66,377.87c0,0-77.28,4.9-94.95,4.74c0,0-9.53-21.4-12.38-26.3c-4.37-7.51-8.91-25.51,1.5-40.5
				c11.32-16.31,32.05-38.4,32.05-38.4s20.93-28.34,43.79-23.15s26.46,3.59,36.33,29.7c11.34,29.99-0.51,66.42-0.51,66.42
				L162.66,377.87z"/>
			<path class="st6" d="M140.25,344.19c-21.36,1.73-29.97-15.66-32.34-37.98c-2.37-22.32,9.53-40.43,27.22-41.89
				s30.73,14.23,32.88,37.76C170.05,324.42,158.59,342.7,140.25,344.19z"/>
		</g>
	</g>
	<path class="st6" d="M73.26,43.94c0,0-40.7,35.18-42.27,69.89c-1.57,34.71,10.36,47.57,0.57,56.17
		c-6.16,5.41-10.46,5.55-12.72,7.03c-3.25,2.13,3.67,30.43,11.79,45.49c8.12,15.06,24.57,31.29,31.32,31.86
		c7.37,0.62,55.35-5.36,97.27-40.76s40.27-97.62,10.36-146.01S101.4,23.89,73.26,43.94z"/>
	<path class="st7" d="M47.81,73.57c0,0,19.13-15.83,37.6-1.02s35.19,67.44,42.28,109.95S140.91,52.45,94.67,49.03
		S47.81,73.57,47.81,73.57z"/>
	<g>
		<path class="st7" d="M42.04,118.08c0,0-1.47-0.47-2.55,4.51c-0.23,1.08,1,1.99,2.01,1.47c4.89-2.54,15.63-8.06,19.26-9.46
			C65.51,112.76,45.41,114.61,42.04,118.08z"/>
		<path class="st8" d="M40.4,120.04c0,0,9.91-5.16,24.64-4.16c14.73,1,20.56,5.26,20.56,5.26s-5.25-5.56-19.78-7.55
			c-16.55-2.27-21.77,0.99-23.34,2.2C41.3,116.7,40.4,120.04,40.4,120.04z"/>
	</g>
	<path class="st2" d="M44.88,212.14c0,0,15.57,2.09,31.86-7.04"/>
	<g>
		<g>
			
				<radialGradient id="SVGID_2_" cx="-27.5871" cy="2234.6643" r="26.2057" gradientTransform="matrix(1.1847 -0.7152 0.7883 1.1669 -1641.1965 -2440.4683)" gradientUnits="userSpaceOnUse">
				<stop  offset="0" style="stop-color:#EEA493;stop-opacity:0.8"/>
				<stop  offset="1" style="stop-color:#EEA493;stop-opacity:0"/>
			</radialGradient>
			<path class="st9" d="M107.28,219.82c-21.97,10.65-48.54,4.58-59.35-13.56s-1.76-41.47,20.21-52.12s48.54-4.58,59.35,13.56
				S129.24,209.17,107.28,219.82z"/>
		</g>
	</g>
	<g>
		<path class="st10" d="M48.6,168.38c0,0-2.22-16.01,1.53-25.34c3.67-9.13,21.87-15.3,37.71-4.16c0,0,4.1,23.41-5.57,35.17
			c-7.01,8.52-17.65,5.45-26.85,1.62c-1.76-0.73-4.55-3.84-4.55-3.84L48.6,168.38z"/>
		<path class="st11" d="M88.68,148.52c-0.13-5.58-0.84-9.64-0.84-9.64c-14.84-10.43-31.73-5.68-36.84,2.46
			c-0.33,0.55-0.63,1.11-0.86,1.68c0,0-0.01,0.01-0.01,0.01c-2.05,5.09-2.37,12.08-2.25,17.38c0.05,0.42,0.09,0.84,0.16,1.25
			C59.88,138.57,80.78,144.27,88.68,148.52z"/>
		<g>
			<path class="st12" d="M79.25,126.36c-5.28-1.55-15.65-3.26-24.68,1.28c-3.82,1.92-7.42,5.49-9.18,7.61"/>
			<path class="st12" d="M81.43,127.05c-0.41-0.14-0.37-0.13-0.93-0.3"/>
		</g>
		<g>
			<path class="st8" d="M88.27,172.44c0,0-13.73,9.61-32.85,3.23C55.42,175.67,72.21,187.77,88.27,172.44z"/>
			<path class="st8" d="M82.97,180.75c0,0-1.95-0.92-6.58-1.41l3.45-1.14C79.84,178.2,81.17,178.88,82.97,180.75z"/>
			<path class="st8" d="M87.36,178.97c0,0-3.57-0.86-7.76-1.31l3.26-1.49C82.86,176.17,85.2,177.17,87.36,178.97z"/>
			<path class="st8" d="M89.72,175.6c0,0-2.83-0.19-5.3-0.12l1.4-1.54C85.82,173.94,87.93,174.47,89.72,175.6z"/>
		</g>
		<path class="st8" d="M47.62,159.67c0,0,0.49-24.72,19.82-25.11c13.74-0.28,24.53,12.69,24.53,12.69l-2.87-6.1l4.55,2.92
			c0,0-11.02-15.28-25.27-15.3c-14.3-0.02-19.46,8.93-22.03,17.59c0,0,2.28-2.41,2.13-1.83C47.67,147.67,47.09,153.24,47.62,159.67z
			"/>
		<path class="st8" d="M94.48,133.77c0,0-8.26,1.35-17.42-3.03c-9.28-4.44,4.6,5.82,4.6,5.82S88.14,137.94,94.48,133.77z"/>
		<g>
			
				<linearGradient id="SVGID_3_" gradientUnits="userSpaceOnUse" x1="3209.0413" y1="1321.6827" x2="3209.4006" y2="1356.9189" gradientTransform="matrix(-0.9876 -0.1939 -0.1885 0.9756 3484.9858 -530.2417)">
				<stop  offset="0" style="stop-color:#2F1D10"/>
				<stop  offset="1" style="stop-color:#BF7C35"/>
			</linearGradient>
			<path class="st13" d="M52.62,151.39c-1.25,10.17,2.79,21.21,9.09,23.29c6.22,2.05,11.09-5.84,10.96-16.25
				c-0.12-9.18-4.16-17.32-9.1-19.13C58.59,137.46,53.71,142.45,52.62,151.39z"/>
			<path class="st14" d="M57.53,155.65c-0.26,4.65,1.71,9.19,4.39,10.09c2.67,0.9,5-2.13,5.23-6.75c0.23-4.58-1.72-9.04-4.35-9.98
				C60.15,148.07,57.79,151.03,57.53,155.65z"/>
			<path class="st10" d="M63.15,151.94c1.24,2.8,3.26,4.26,4.52,3.27c1.25-0.98,1.26-4.03,0.03-6.8c-1.23-2.77-3.24-4.24-4.5-3.28
				C61.94,146.09,61.91,149.14,63.15,151.94z"/>
			<path class="st10" d="M69.02,162.43c0.07-1.56-0.68-2.88-1.8-3.37c-0.8-0.35-1.66,0.23-1.99,1.26c0,0-0.91,2.54-3.02,3.15
				c-1.06,0.08-1.89,1.14-1.97,2.72c-0.1,1.94,0.95,3.9,2.36,4.37c0.34,0.11,0.67,0.13,0.97,0.06c0,0,0,0,0,0s3.1,0.12,5.21-6.81
				l0.1-0.34C68.97,163.18,69.01,162.77,69.02,162.43z"/>
		</g>
		<path class="st15" d="M46.08,142.15c0,0,4.21-6.29,8.45-8.44"/>
	</g>
	
		<linearGradient id="SVGID_4_" gradientUnits="userSpaceOnUse" x1="228.5642" y1="-0.3172" x2="228.0279" y2="312.3116" gradientTransform="matrix(0.9992 0.0391 -0.0391 0.9992 -79.078 -15.3954)">
		<stop  offset="0" style="stop-color:#2E1D10"/>
		<stop  offset="1" style="stop-color:#714F28"/>
	</linearGradient>
	<path class="st16" d="M45.04,76.48c0,0,20.37-23.22,36.13-19.39s26.39,29.63,26.39,29.63l54.62,130.09l68.44,11.65
		c0,0,39.49-33.12,39.23-108.76C269.59,44.07,212.18,6.07,155.4,1.63c-40.95-3.2-103.35-0.96-135,65.71"/>
	<path class="st1" d="M196.09,150.6c0,0,13.81-35.93,47.7-13.92c0,0,13.4-9.21,22.55,5.32c2.83-13.36,2.57-30.04-0.11-44.15
		c-7.48,9.04-23.42,13.82-39.53-3.29c0,0-17.23,24.33-49.53-4.32c0,0-7.96,26.4-34.31,10.71c-6.22-3.7,2.86,48.13,11.17,43.61
		C179.74,130.59,190.8,145.96,196.09,150.6z"/>
	<g>
		<path class="st17" d="M78.53,291.48c0,0-9.67,0.28-15.11,9.11s-1.54,18.71-1.54,18.71s1.55-8.64,4.35-11.71
			c0,0-2.41,3.22-1.16,12.56c1.25,9.33-0.77,12.75-5,14.54c0,0,14.31,1.54,18.32-15.42c0,0,0.29,2.97-0.25,6.3
			c0,0,7.65-4.28,7.28-16.79c-0.37-12.51,1.08-16.59,0.58-16.88C85.5,291.59,78.53,291.48,78.53,291.48z"/>
		<path class="st18" d="M86.22,294.72c-0.02-0.06-9.04,3.6-8.7-5.67c0,0-1.73,0.71-2.58,3.67c-0.86,2.97,3.05,7.19,8.08,5.42
			C83.03,298.13,84.79,297.5,86.22,294.72z"/>
		<path class="st17" d="M92.7,287.52c0.01,0,0.29,6.09-7.22,7.66c-3.99,0.83-6.1-1.04-6.11-1.05c1.73-2.35,3.46-4.66,5.19-6.94
			C87.24,287.23,89.96,287.34,92.7,287.52z"/>
		<path class="st17" d="M86.62,277.99c-0.01-0.05-8.18,1.56-9.21,11.47c0,0.01,0.47,4.95,3.22,5.46c0-0.01,3.61-2.91,3.89-7.22
			C84.85,282.76,86.62,277.99,86.62,277.99z"/>
		<path class="st17" d="M103.9,279.38c0.01-0.01-2.96,7.03-7.79,8.67c-4.82,1.63-9.73,0.01-11.58,0.35
			c2.7-3.76,5.39-7.44,8.07-11.03C96.31,277.93,100.08,278.59,103.9,279.38z"/>
		<path class="st17" d="M95.25,268.05c0,0-1.81,4.48-1.95,7.7c-0.13,3.24-2.09,8.33-8.78,12.66c-0.01,0.02-2.23-8.46,1.65-13.84
			C89.39,270.12,95.25,268.04,95.25,268.05z"/>
		
			<linearGradient id="SVGID_5_" gradientUnits="userSpaceOnUse" x1="263.4024" y1="13.0823" x2="263.4024" y2="306.4063" gradientTransform="matrix(0.9992 0.0391 -0.0391 0.9992 -79.078 -15.3954)">
			<stop  offset="0" style="stop-color:#2E1D10"/>
			<stop  offset="1" style="stop-color:#714F28"/>
		</linearGradient>
		<path class="st19" d="M235.75,223.28c0.08,0.06-15.15,20.18-68.85,36.51c-6.12,10.26-26.57,12.84-33.17,10.35
			c-13.35-4.93-19.97-7.84-19.99-7.92c-0.12,0.42-4.16-24.72,16.79-41.35c5.54-7.52,12.86-14.71,22.38-19.43"/>
		<path class="st2" d="M130.53,220.87c-0.12,0.02,10.97,13.32,1.47,31.5"/>
		<path class="st2" d="M166.9,259.79c-8.74-5.5-31.49-13.68-49.8-1.85"/>
		<path class="st17" d="M116.45,274.44c0.01,0-4.46,5.37-9.66,6.61c-8.91,2.2-10.33-1.34-14.07-2.27c3.46-4.48,6.9-8.83,10.32-13.03
			C107.42,268.5,111.89,271.4,116.45,274.44z"/>
		<path class="st17" d="M107.63,269.75c-7.35,4.38-2.55-5.88-2.57-5.89c-0.02,0.13-3.12-10.18,9.33-16.76
			C117.63,246.89,121.12,262.2,107.63,269.75z"/>
		<path class="st17" d="M133.72,270.14c0.01-0.03-8.53,4.76-15.15,5.95c-6.64,1.1-14.18-5.1-17.73-4.73
			c-3.58,0.33,3.62-4.07,3.63-4.02c0.03-0.04,8.76-7.52,17.51-2.58C129,268.65,133.73,270.16,133.72,270.14z"/>
		<path class="st17" d="M104.57,259.78c0,0,1.16,0.89,0.03,5.79c-1.73,7.52-7.61,10.94-11.88,13.21c0,0.02-2.41-9.1,2.27-14.75
			C99.86,258.19,104.57,259.8,104.57,259.78z"/>
	</g>
	<g>
		<path class="st5" d="M164.94,443.8c0,0-44.6,9.35-91.64,7.77c0,0-2.32,37.64,5.67,70.24c7.99,32.6,96.64,58.34,103.44,42.19
			c8.77-20.84,25.03-36.41,21.79-61.43c-3.18-24.58-19.87-38.46-27.25-46.26C169.57,448.5,164.94,443.8,164.94,443.8z"/>
		<path class="st20" d="M88.41,507.82c-2.94-19.21-6.09-56.09-6.09-56.09l0,0c-3-0.01-6.01-0.07-9.02-0.17
			c0,0-2.32,37.64,5.67,70.24c1.58,6.46,6.42,12.64,13.19,18.29C91.23,529.97,89.96,517.94,88.41,507.82z"/>
		<path class="st2" d="M164.94,443.8c0,0-44.6,9.35-91.64,7.77c0,0-1.3,34.67,5.67,70.24c6.45,32.9,96.9,57.74,103.7,41.59
			c8.77-20.84,24.77-35.81,21.54-60.83c-3.18-24.58-19.55-38.76-27.25-46.26C167.73,447.32,164.94,443.8,164.94,443.8z"/>
	</g>
	<g>
		<g>
			<path class="st5" d="M186.26,557.61c0,0-24.1,60.29-31.62,75.83s-22.98,47.55-25.35,61.91c-2.37,14.36-22.27,28.09-31.72,25.67
				c-9.45-2.42-17.33-9.22-17.94-36.29c-0.61-27.07,2.43-78.91,0.87-110.04c-1.69-33.6-2.55-59.09-2.55-59.09"/>
			<path class="st20" d="M77.95,515.59c0,0,0.86,25.49,2.55,59.09c1.57,31.12-1.48,82.97-0.87,110.04
				c0.59,26.02,7.89,33.31,16.84,35.98c-4.02-9.64-6.84-19.83-7.39-31.09c0,0-2.24-17.93,0.6-52.42c2.58-31.34,0-92.09,0.28-117.18
				L77.95,515.59z"/>
			<path class="st2" d="M186.26,557.61c0,0-24.1,60.29-31.62,75.83s-22.98,47.55-25.35,61.91c-2.37,14.36-22.27,28.09-31.72,25.67
				c-9.45-2.42-17.33-9.22-17.94-36.29c-0.61-27.07,2.43-78.91,0.87-110.04c-1.69-33.6-2.55-59.09-2.55-59.09"/>
		</g>
		<g>
			<path class="st6" d="M151.05,734.07c2.84,30.8-16.69,81.26-19.55,144.39l-35.13,2.42c0,0-0.06-24.81-1.64-49.9"/>
			<path class="st5" d="M134.55,844.84c6.26-47.47,18.82-85.65,16.5-110.77c-2.81-30.51-19.66-53.31-19.66-53.31l-51.53,3.44
				c-0.15,10.12,2.36,28.85,6.13,44.39c3.76,15.53,7.2,77.79,8.74,102.4c0.3,4.78,0.55,9.54,0.75,14.13L134.55,844.84z"/>
			<path class="st20" d="M103.71,845.06c0.25-6.93,0.91-31.08-0.59-57.43C101.46,758.41,90.6,706,89.09,683.45l-9.23,0.75
				c-0.15,10.12,2.36,28.85,6.13,44.39c3.76,15.53,7.2,77.79,8.74,102.4c0.3,4.78,0.55,9.54,0.75,14.13L103.71,845.06z"/>
			<path class="st2" d="M79.86,684.2c-0.15,10.12,2.36,28.85,6.13,44.39c3.76,15.53,7.2,77.79,8.74,102.4
				c0.3,4.78,0.55,9.54,0.75,14.13l39.07-0.27c6.26-47.47,18.82-85.65,16.5-110.77c-2.81-30.51-19.89-54.06-19.89-54.06"/>
		</g>
	</g>
	<g>
		<path class="st18" d="M134.69,860.75c0,0-10.21,4.83-13.75,4.75c-3.54-0.08-18.54-14.8-18.54-14.8s4.55-7.38,4.47-8.17
			c-0.08-0.79-14.69-8.87-18.07-4.68c-3.38,4.19-3.81,12.36-6.5,15.81c-2.69,3.45-38.64,20.13-46.64,21.8s-16.91,3.58-19.83,7.61
			c-2.36,3.25-2.83,15.67-2.48,22.88c0.12,2.41,1.94,4.41,4.37,4.8c12.29,1.99,52.98,6.98,122.1,0.01c2.55-0.26,4.5-2.31,4.58-4.83
			c0.19-6.49-0.25-19.69-5.25-36.31C139.15,869.62,143.48,861.86,134.69,860.75z"/>
		<path class="st2" d="M143.77,900.65c0,0-27.08,4.45-73.68,4.3c-42.23-0.14-56.84-3.37-56.84-3.37"/>
		<path class="st2" d="M102.4,850.7c0,0-10.16,12.84-16.57,16.68s-46.88,16.29-48.5,18.78c-1.06,1.62-5.04,17.56-5.04,17.56"/>
		<path class="st2" d="M78.91,856.09c0,0,6.11,8.71,8.85,15.89"/>
		<path class="st2" d="M63.13,864.44c0,0,3.81,5.97,7.1,12.93"/>
		<path class="st2" d="M48.11,871.33c0,0,3.32,4.32,6.54,10.82"/>
	</g>
	<g>
		<g>
			<path class="st5" d="M190.58,557.61c0,0-24.1,60.29-31.62,75.83s-22.98,47.55-25.35,61.91c-2.37,14.36-22.27,28.09-31.72,25.67
				c-9.45-2.42-17.33-9.22-17.94-36.29s2.43-78.91,0.87-110.04c-1.69-33.6-6.87-59.09-6.87-59.09"/>
			<path class="st20" d="M77.95,515.59c0,0,5.18,25.49,6.87,59.09c1.57,31.12-1.48,82.97-0.87,110.04
				c0.59,26.02,7.89,33.31,16.84,35.98c-4.02-9.64-6.84-19.83-7.39-31.09c0,0-2.24-17.93,0.6-52.42
				c2.58-31.34-4.32-92.09-4.04-117.18L77.95,515.59z"/>
			<path class="st2" d="M190.58,557.61c0,0-24.1,60.29-31.62,75.83s-22.98,47.55-25.35,61.91c-2.37,14.36-22.27,28.09-31.72,25.67
				c-9.45-2.42-17.33-9.22-17.94-36.29s2.43-78.91,0.87-110.04c-1.69-33.6-6.87-59.09-6.87-59.09"/>
		</g>
		<g>
			<path class="st6" d="M157.25,731.91c4.15,30.65-13.19,81.9-13.34,145.1l-35,3.93c0,0-1.13-24.78-3.78-49.79"/>
			<path class="st5" d="M145.51,843.28c4.22-47.69,15.13-86.38,11.74-111.37c-4.11-30.36-21.93-52.42-21.93-52.42l-51.33,5.64
				c0.28,10.12,3.6,28.72,8.02,44.08c4.42,15.36,10.52,77.41,13.12,101.93c0.5,4.76,0.95,9.51,1.35,14.08L145.51,843.28z"/>
			<path class="st20" d="M114.71,844.81c-0.05-6.94-0.42-31.09-3.05-57.35c-2.92-29.12-16.01-81.02-18.48-103.49l-9.19,1.15
				c0.28,10.12,3.6,28.72,8.02,44.08c4.42,15.36,10.52,77.41,13.12,101.93c0.5,4.76,0.95,9.51,1.35,14.08L114.71,844.81z"/>
			<path class="st2" d="M83.99,685.13c0.28,10.12,3.6,28.72,8.02,44.08c4.42,15.36,10.52,77.41,13.12,101.93
				c0.5,4.76,0.95,9.51,1.35,14.08l39.02-1.94c4.22-47.69,15.13-86.38,11.74-111.37c-4.11-30.36-22.19-53.16-22.19-53.16"/>
		</g>
	</g>
	<g>
		<path class="st18" d="M147.81,860.75c0,0-10.21,4.83-13.75,4.75c-3.54-0.08-18.54-14.8-18.54-14.8s4.55-7.38,4.47-8.17
			c-0.08-0.79-14.69-8.87-18.07-4.68s-3.81,12.36-6.5,15.81c-2.69,3.45-38.64,20.13-46.64,21.8s-16.91,3.58-19.83,7.61
			c-2.36,3.25-2.83,15.67-2.48,22.88c0.12,2.41,1.94,4.41,4.37,4.8c12.29,1.99,52.98,6.98,122.1,0.01c2.55-0.26,4.5-2.31,4.58-4.83
			c0.19-6.49-0.25-19.69-5.25-36.31C152.27,869.62,156.6,861.86,147.81,860.75z"/>
		<path class="st2" d="M156.89,900.65c0,0-27.08,4.45-73.68,4.3c-42.23-0.14-56.84-3.37-56.84-3.37"/>
		<path class="st2" d="M115.52,850.7c0,0-10.16,12.84-16.57,16.68c-6.41,3.84-46.88,16.29-48.5,18.78
			c-1.06,1.62-5.04,17.56-5.04,17.56"/>
		<path class="st2" d="M92.03,856.09c0,0,6.11,8.71,8.85,15.89"/>
		<path class="st2" d="M76.25,864.44c0,0,3.81,5.97,7.1,12.93"/>
		<path class="st2" d="M61.23,871.33c0,0,3.32,4.32,6.54,10.82"/>
	</g>
	<g>
		<path class="st6" d="M117.89,317.7c0,0,4.11,12.16,5.7,23.1s4.36,39.45,14.12,59.73c9.76,20.28,28.69,26.14,33.17,10.58
			c4.48-15.56-0.67-74.25-1.44-86.47c-0.99-15.66-0.72-41.38-18.65-51.15"/>
		<path class="st6" d="M143.12,409.29c0,0-2.63,15.02,0.59,30.05c2.39,11.16,10.37,39.32,12.79,75
			c1.44,21.15,27.59,20.77,28.56-9.81c0.97-30.58,2.21-98.83-12.52-111.7"/>
		<g>
			<path class="st6" d="M152.29,521.18c0,0-5.35,6.04-7.96,10.4c-2.61,4.36-1.92,14.3-1.3,18.25c0.76,4.83,7.93,7.49,10.9,10.06
				c1.67,1.44,5.26,5.11,7.3,5.48c2.04,0.36,6-12.47-7.04-18.08"/>
			<g>
				<path class="st4" d="M196.65,562.59c1.48-1.01,5.89-6.24,5.71-8.28c0,0-0.73-10.12-2.59-16.47
					c-3.07-10.48-13.95-29.54-13.95-29.54s0.52-0.92-4.5-0.74c-7.65,0.28-13.63,3.23-13.63,3.23c-13.08,1.95-9.01,4.76-16.46,11.77
					l-1.54,14.21c0,0,0.9,7.02,1.2,11.91c0.3,4.83,0.09,7.25,0.75,9.78c0,0,0.27,2.14,1.89,4.16c2.11,2.63,6.91,7.26,8.04,8.22
					c2.33,1.99,6.98,0.59,8.65-2.5c0.17-0.31,0.2-0.7,0.16-1.13c1.61,1.62,2.48,2.62,3.21,3.19c1.73,1.36,7.28,1.59,8.54-3.54
					c0,0,2.21,2.64,6.62-0.28c2.24-1.48,2.59-2.6,2.59-2.6S195.16,563.6,196.65,562.59z"/>
				<path class="st7" d="M196.65,562.59c-0.09,0.06-1.78,0.72-1.88,0.77c1.48-2.42,4.58-8.26,4.48-10.65
					c-0.11-2.49-7.11-30.47-14.84-45.9c1.64,2.78,11.15,14.75,15.69,30.53c1.83,6.36,2.27,16.97,2.27,16.97
					C202.54,556.35,198.13,561.58,196.65,562.59z"/>
				<g>
					<path class="st2" d="M150.08,523.77c3.54-4.92,3.12-6.57,6.49-8.47"/>
					<path class="st2" d="M149.94,538.73c0,0,0.66,5.06,0.96,9.95c0.3,4.83,0.09,7.25,0.75,9.78c0,0,0.27,2.14,1.89,4.16
						c2.11,2.63,6.91,7.26,8.04,8.22c2.33,1.99,6.98,0.59,8.65-2.5c0.17-0.31,0.2-0.7,0.16-1.13c1.61,1.62,2.48,2.62,3.21,3.19
						c1.73,1.36,7.28,1.59,8.54-3.54c0,0,2.21,2.64,6.62-0.28c2.24-1.48,2.59-2.6,2.59-2.6s3.82-0.4,5.3-1.41
						c1.48-1.01,5.89-6.24,5.71-8.28c0,0,0.37-5.83-2.18-16.6c-4.01-16.88-15.22-29.74-15.22-29.74"/>
				</g>
				<path class="st2" d="M165.45,561.94c0,0,4.01,4.33,4.93,5.28"/>
				<path class="st2" d="M180.87,560.14c0,0,0.78,4.99,1.26,6.73"/>
				<path class="st2" d="M193.65,556.41c0,0-1.92,6.53-2.31,7.59"/>
				<path class="st2" d="M157.49,560.24c0,0,3.25-0.29,7.49-0.67c5.27-0.47,15.6-2,18.77-3.11"/>
				<path class="st2" d="M189.22,554.66c0,0,4.41-1.36,7.04-2.19"/>
			</g>
		</g>
	</g>
	<g>
		<g>
			
				<linearGradient id="SVGID_6_" gradientUnits="userSpaceOnUse" x1="55.1771" y1="-169.7506" x2="54.6409" y2="142.8782" gradientTransform="matrix(0.9097 -0.0457 0.0761 1.0017 82.4517 162.7041)">
				<stop  offset="0" style="stop-color:#2E1D10"/>
				<stop  offset="1" style="stop-color:#714F28"/>
			</linearGradient>
			<path class="st21" d="M96.37,63.65c0,0,45.26,67.07,29.19,217.35c-1.85,17.33-6.2,38.3-13.48,56.63c0,0,19.1-15.91,21.34-25.93
				c0,0-6.02,18.9-9.82,28.17c0,0,33.11-13.46,41.44-64.96c8.58-53.04,0.37-140.69-9.08-184.71"/>
		</g>
		<path class="st1" d="M158.94,105.92c0,0-23.59-0.17-31.45-30.1c0,0-0.29,22.8-12.77,30.41c1.52,9.97,6.79,22.66,8.09,36.91
			c1.48,0.53,11.53-0.42,14.52,9.85c0,0,6.68-22.83,26.72-13.1C162.72,127.15,160.23,115.74,158.94,105.92z"/>
		<g>
			<path class="st2" d="M96.37,63.35c0,0,47.56,71.89,27.67,227.52c-1.93,15.06-5.79,32.22-11.96,46.76c0,0,17.86-15.35,21.34-25.93
				c0,0-6.02,18.9-9.82,28.17c0,0,33.11-13.46,41.44-64.96c8.58-53.04,0.44-139.86-9.08-184.71"/>
		</g>
	</g>
</g>
</svg>
