<svg width="18" height="18" viewBox="0 0 18 18" fill="none" xmlns="http://www.w3.org/2000/svg">
<g id="Icon">
<path id="Vector" d="M8.38472 1.24764C8.51362 0.989832 8.7187 0.860926 8.99995 0.860926C9.2812 0.860926 9.48628 0.989832 9.61519 1.24764L11.6894 5.43124C11.748 5.53671 11.8212 5.62167 11.9091 5.68612C11.997 5.75057 12.0996 5.79452 12.2167 5.81796L16.8398 6.48593C17.121 6.5328 17.3056 6.69393 17.3935 6.96932C17.4814 7.24471 17.4257 7.48202 17.2265 7.68124L13.8691 10.9332C13.7988 11.0152 13.746 11.1119 13.7109 11.2232C13.6757 11.3346 13.664 11.443 13.6757 11.5484L14.4667 16.1539C14.5136 16.4351 14.4199 16.6607 14.1855 16.8307C13.9511 17.0006 13.7109 17.0211 13.4648 16.8922L9.31636 14.7125C9.22261 14.6656 9.11714 14.6422 8.99995 14.6422C8.88277 14.6422 8.7773 14.6656 8.68355 14.7125L4.53511 16.8922C4.28902 17.0211 4.04878 17.0006 3.81441 16.8307C3.58003 16.6607 3.48628 16.4351 3.53316 16.1539L4.32417 11.5484C4.33589 11.443 4.32417 11.3346 4.28902 11.2232C4.25386 11.1119 4.20112 11.0152 4.13081 10.9332L0.77339 7.68124C0.574171 7.48202 0.518507 7.24471 0.606398 6.96932C0.694289 6.69393 0.878859 6.5328 1.16011 6.48593L5.78316 5.81796C5.90034 5.79452 6.00288 5.75057 6.09077 5.68612C6.17866 5.62167 6.25191 5.53671 6.3105 5.43124L8.38472 1.24764Z" fill="#6C6F78"/>
</g>
</svg>
