<svg width="24" height="24" viewBox="0 0 24 24" fill="none" xmlns="http://www.w3.org/2000/svg">
<g id="ff48c0b0-67df-11ee-8010-efb062bae305.svg">
<path id="Vector" d="M2.55 11.8499C2.6288 11.909 2.71846 11.952 2.81387 11.9764C2.90927 12.0009 3.00857 12.0063 3.10607 11.9924C3.20357 11.9784 3.29737 11.9454 3.38212 11.8952C3.46687 11.845 3.54091 11.7787 3.6 11.6999C4.0541 11.0944 4.64291 10.6031 5.31983 10.2646C5.99675 9.9261 6.74318 9.74992 7.5 9.74992C8.25683 9.74992 9.00323 9.9261 9.68018 10.2646C10.3571 10.6031 10.9459 11.0944 11.4 11.6999C11.5195 11.8589 11.6972 11.9639 11.8941 11.9918C12.0911 12.0198 12.291 11.9684 12.45 11.849C12.5067 11.8068 12.5569 11.7565 12.599 11.6999C13.0532 11.0944 13.642 10.6031 14.3189 10.2646C14.9958 9.9261 15.7423 9.74992 16.4991 9.74992C17.2558 9.74992 18.0023 9.9261 18.6792 10.2646C19.3561 10.6031 19.945 11.0944 20.399 11.6999C20.5185 11.859 20.6963 11.9642 20.8933 11.9922C21.0903 12.0203 21.2904 11.9689 21.4496 11.8494C21.6086 11.7299 21.7139 11.5522 21.7418 11.3551C21.7699 11.1581 21.7185 10.9581 21.599 10.7989C20.9352 9.90892 20.0499 9.2082 19.0312 8.76645C19.5897 8.2566 19.981 7.58978 20.1537 6.85358C20.3264 6.11737 20.2725 5.34613 19.9991 4.6411C19.7257 3.93607 19.2454 3.33017 18.6215 2.90293C17.9975 2.47569 17.259 2.24707 16.5028 2.24707C15.7466 2.24707 15.0081 2.47569 14.3841 2.90293C13.7602 3.33017 13.28 3.93607 13.0066 4.6411C12.7331 5.34613 12.6792 6.11737 12.8519 6.85358C13.0247 7.58978 13.4159 8.2566 13.9744 8.76645C13.2389 9.08452 12.5707 9.53985 12.0056 10.108C11.4406 9.53985 10.7724 9.08452 10.0369 8.76645C10.5953 8.2566 10.9866 7.58978 11.1593 6.85358C11.3321 6.11737 11.2781 5.34613 11.0047 4.6411C10.7313 3.93607 10.2511 3.33017 9.62715 2.90293C9.00315 2.47569 8.26463 2.24707 7.5084 2.24707C6.75224 2.24707 6.0137 2.47569 5.38976 2.90293C4.76582 3.33017 4.28561 3.93607 4.01218 4.6411C3.73874 5.34613 3.68485 6.11737 3.85757 6.85358C4.03028 7.58978 4.42154 8.2566 4.98 8.76645C3.95686 9.20677 3.06722 9.90795 2.4 10.7999C2.34091 10.8787 2.29791 10.9684 2.27347 11.0638C2.24902 11.1592 2.24361 11.2585 2.25754 11.356C2.27147 11.4535 2.30447 11.5473 2.35465 11.6321C2.40482 11.7168 2.47121 11.7908 2.55 11.8499ZM16.5 3.74989C16.945 3.74989 17.3801 3.88186 17.75 4.12909C18.1201 4.37632 18.4085 4.72772 18.5787 5.13886C18.749 5.54999 18.7936 6.00239 18.7068 6.43885C18.6199 6.8753 18.4057 7.27621 18.091 7.5909C17.7764 7.90552 17.3754 8.11987 16.939 8.20665C16.5025 8.2935 16.0501 8.24895 15.6389 8.07862C15.2278 7.9083 14.8764 7.61992 14.6292 7.24993C14.3819 6.87991 14.25 6.4449 14.25 5.99989C14.25 5.40316 14.4871 4.83086 14.909 4.40891C15.331 3.98695 15.9033 3.74989 16.5 3.74989ZM7.5 3.74989C7.94498 3.74989 8.38005 3.88186 8.75003 4.12909C9.12008 4.37632 9.40845 4.72772 9.5787 5.13886C9.74903 5.54999 9.79358 6.00239 9.7068 6.43885C9.61995 6.8753 9.40568 7.27621 9.09098 7.5909C8.77635 7.90552 8.3754 8.11987 7.93898 8.20665C7.50248 8.2935 7.0501 8.24895 6.63896 8.07862C6.22783 7.9083 5.87643 7.61992 5.62919 7.24993C5.38196 6.87991 5.25 6.4449 5.25 5.99989C5.25 5.40316 5.48705 4.83086 5.90901 4.40891C6.33097 3.98695 6.90326 3.74989 7.5 3.74989ZM19.0312 18.5164C19.5897 18.0066 19.981 17.3398 20.1537 16.6036C20.3264 15.8674 20.2725 15.0962 19.9991 14.3911C19.7257 13.6861 19.2454 13.0801 18.6215 12.6529C17.9975 12.2257 17.259 11.9971 16.5028 11.9971C15.7466 11.9971 15.0081 12.2257 14.3841 12.6529C13.7602 13.0801 13.28 13.6861 13.0066 14.3911C12.7331 15.0962 12.6792 15.8674 12.8519 16.6036C13.0247 17.3398 13.4159 18.0066 13.9744 18.5164C13.2389 18.8345 12.5707 19.2898 12.0056 19.8581C11.4406 19.2898 10.7724 18.8345 10.0369 18.5164C10.5953 18.0066 10.9866 17.3398 11.1593 16.6036C11.3321 15.8674 11.2781 15.0962 11.0047 14.3911C10.7313 13.6861 10.2511 13.0801 9.62715 12.6529C9.00315 12.2257 8.26463 11.9971 7.5084 11.9971C6.75224 11.9971 6.0137 12.2257 5.38976 12.6529C4.76582 13.0801 4.28561 13.6861 4.01218 14.3911C3.73874 15.0962 3.68485 15.8674 3.85757 16.6036C4.03028 17.3398 4.42154 18.0066 4.98 18.5164C3.95686 18.9568 3.06722 19.658 2.4 20.5499C2.34091 20.6287 2.29791 20.7184 2.27347 20.8138C2.24902 20.9092 2.24361 21.0085 2.25754 21.106C2.27147 21.2035 2.30447 21.2973 2.35465 21.3821C2.40482 21.4668 2.47121 21.5408 2.55 21.5999C2.6288 21.659 2.71846 21.702 2.81387 21.7264C2.90927 21.7509 3.00857 21.7563 3.10607 21.7423C3.20357 21.7284 3.29737 21.6954 3.38212 21.6452C3.46687 21.595 3.54091 21.5287 3.6 21.4499C4.0541 20.8444 4.64291 20.353 5.31983 20.0146C5.99675 19.6761 6.74318 19.4999 7.5 19.4999C8.25683 19.4999 9.00323 19.6761 9.68018 20.0146C10.3571 20.353 10.9459 20.8444 11.4 21.4499C11.5195 21.6088 11.6972 21.7139 11.8941 21.7418C12.0911 21.7698 12.291 21.7184 12.45 21.599C12.5067 21.5568 12.5569 21.5065 12.599 21.4499C13.0532 20.8444 13.642 20.353 14.3189 20.0146C14.9958 19.6761 15.7423 19.4999 16.4991 19.4999C17.2558 19.4999 18.0023 19.6761 18.6792 20.0146C19.3561 20.353 19.945 20.8444 20.399 21.4499C20.5185 21.609 20.6963 21.7141 20.8933 21.7422C21.0903 21.7702 21.2904 21.7189 21.4496 21.5994C21.6086 21.4799 21.7139 21.3022 21.7418 21.1051C21.7699 20.9081 21.7185 20.7081 21.599 20.5489C20.9352 19.6589 20.0499 18.9582 19.0312 18.5164ZM7.5 13.4999C7.94498 13.4999 8.38005 13.6319 8.75003 13.8791C9.12008 14.1263 9.40845 14.4777 9.5787 14.8889C9.74903 15.3 9.79358 15.7524 9.7068 16.1888C9.61995 16.6253 9.40568 17.0262 9.09098 17.3409C8.77635 17.6555 8.3754 17.8699 7.93898 17.9566C7.50248 18.0435 7.0501 17.999 6.63896 17.8286C6.22783 17.6583 5.87643 17.3699 5.62919 16.9999C5.38196 16.6299 5.25 16.1949 5.25 15.7499C5.25 15.1532 5.48705 14.5808 5.90901 14.1589C6.33097 13.7369 6.90326 13.4999 7.5 13.4999ZM16.5 13.4999C16.945 13.4999 17.3801 13.6319 17.75 13.8791C18.1201 14.1263 18.4085 14.4777 18.5787 14.8889C18.749 15.3 18.7936 15.7524 18.7068 16.1888C18.6199 16.6253 18.4057 17.0262 18.091 17.3409C17.7764 17.6555 17.3754 17.8699 16.939 17.9566C16.5025 18.0435 16.0501 17.999 15.6389 17.8286C15.2278 17.6583 14.8764 17.3699 14.6292 16.9999C14.3819 16.6299 14.25 16.1949 14.25 15.7499C14.25 15.1532 14.4871 14.5808 14.909 14.1589C15.331 13.7369 15.9033 13.4999 16.5 13.4999Z" fill="#343330"/>
</g>
</svg>
