<svg width="18" height="18" viewBox="0 0 18 18" fill="none" xmlns="http://www.w3.org/2000/svg">
<g id="Icon">
<path id="Vector" d="M5.55469 8.40234C5.05078 8.41406 4.59082 8.51953 4.1748 8.71875C3.75879 8.91797 3.39258 9.21094 3.07617 9.59766H1.81055C1.56445 9.59766 1.33301 9.56543 1.11621 9.50098C0.899414 9.43652 0.703125 9.3457 0.527344 9.22852C0.351562 9.09961 0.219727 8.94141 0.131836 8.75391C0.0439453 8.56641 0 8.34961 0 8.10352C0 7.00195 0.0966797 6.17578 0.290039 5.625C0.483398 5.07422 0.773438 4.79883 1.16016 4.79883C1.18359 4.79883 1.22754 4.81641 1.29199 4.85156C1.35645 4.88672 1.44727 4.93359 1.56445 4.99219C1.68164 5.0625 1.81641 5.12988 1.96875 5.19434C2.12109 5.25879 2.29102 5.32617 2.47852 5.39648C2.66602 5.4668 2.85352 5.5166 3.04102 5.5459C3.22852 5.5752 3.41602 5.58984 3.60352 5.58984C3.81445 5.58984 4.02246 5.57227 4.22754 5.53711C4.43262 5.50195 4.64062 5.44922 4.85156 5.37891C4.82812 5.49609 4.81348 5.60742 4.80762 5.71289C4.80176 5.81836 4.79883 5.91211 4.79883 5.99414C4.79883 6.42773 4.86328 6.84668 4.99219 7.25098C5.12109 7.65527 5.30859 8.03906 5.55469 8.40234ZM15.5918 14.3789C15.5918 14.7539 15.5361 15.0879 15.4248 15.3809C15.3135 15.6738 15.1465 15.9316 14.9238 16.1543C14.6895 16.3652 14.4199 16.5264 14.1152 16.6377C13.8105 16.749 13.4707 16.8047 13.0957 16.8047H4.9043C4.5293 16.8047 4.18945 16.749 3.88477 16.6377C3.58008 16.5264 3.31055 16.3652 3.07617 16.1543C2.85352 15.9316 2.68652 15.6738 2.5752 15.3809C2.46387 15.0879 2.4082 14.7539 2.4082 14.3789C2.4082 14.2031 2.4082 14.0361 2.4082 13.8779C2.4082 13.7197 2.41406 13.5586 2.42578 13.3945C2.4375 13.2422 2.45508 13.0811 2.47852 12.9111C2.50195 12.7412 2.53125 12.5625 2.56641 12.375C2.60156 12.1992 2.63965 12.0264 2.68066 11.8564C2.72168 11.6865 2.76562 11.5195 2.8125 11.3555C2.85938 11.2031 2.91797 11.0508 2.98828 10.8984C3.05859 10.7461 3.13477 10.5938 3.2168 10.4414C3.29883 10.3008 3.38965 10.166 3.48926 10.0371C3.58887 9.9082 3.69141 9.79102 3.79688 9.68555C3.90234 9.58008 4.02246 9.48633 4.15723 9.4043C4.29199 9.32227 4.44141 9.25195 4.60547 9.19336C4.75781 9.12305 4.92188 9.07324 5.09766 9.04395C5.27344 9.01465 5.45508 9 5.64258 9C5.67773 9 5.72754 9.01758 5.79199 9.05273C5.85645 9.08789 5.94141 9.13477 6.04688 9.19336C6.15234 9.26367 6.26074 9.33691 6.37207 9.41309C6.4834 9.48926 6.60352 9.56836 6.73242 9.65039C6.86133 9.73242 7.00781 9.81152 7.17188 9.8877C7.33594 9.96387 7.52344 10.0371 7.73438 10.1074C7.94531 10.166 8.15625 10.2129 8.36719 10.248C8.57812 10.2832 8.78906 10.3008 9 10.3008C9.21094 10.3008 9.42188 10.2832 9.63281 10.248C9.84375 10.2129 10.0547 10.166 10.2656 10.1074C10.4766 10.0371 10.6641 9.96387 10.8281 9.8877C10.9922 9.81152 11.1387 9.73242 11.2676 9.65039C11.3965 9.56836 11.5166 9.48926 11.6279 9.41309C11.7393 9.33691 11.8477 9.26367 11.9531 9.19336C12.0586 9.13477 12.1436 9.08789 12.208 9.05273C12.2725 9.01758 12.3223 9 12.3574 9C12.5449 9 12.7266 9.01465 12.9023 9.04395C13.0781 9.07324 13.2422 9.12305 13.3945 9.19336C13.5586 9.25195 13.708 9.32227 13.8428 9.4043C13.9775 9.48633 14.0977 9.58008 14.2031 9.68555C14.3086 9.79102 14.4111 9.9082 14.5107 10.0371C14.6104 10.166 14.7012 10.3008 14.7832 10.4414C14.8652 10.5938 14.9414 10.7461 15.0117 10.8984C15.082 11.0508 15.1406 11.2031 15.1875 11.3555C15.2344 11.5195 15.2783 11.6865 15.3193 11.8564C15.3604 12.0264 15.3984 12.1992 15.4336 12.375C15.4688 12.5625 15.498 12.7412 15.5215 12.9111C15.5449 13.0811 15.5625 13.2422 15.5742 13.3945C15.5859 13.5586 15.5918 13.7197 15.5918 13.8779C15.5918 14.0361 15.5918 14.2031 15.5918 14.3789ZM5.99414 2.4082C5.99414 2.73633 5.93555 3.04102 5.81836 3.32227C5.70117 3.60352 5.52539 3.86133 5.29102 4.0957C5.05664 4.33008 4.79883 4.50586 4.51758 4.62305C4.23633 4.74023 3.93164 4.79883 3.60352 4.79883C3.27539 4.79883 2.96777 4.74023 2.68066 4.62305C2.39355 4.50586 2.13281 4.33008 1.89844 4.0957C1.66406 3.86133 1.48828 3.60352 1.37109 3.32227C1.25391 3.04102 1.19531 2.73633 1.19531 2.4082C1.19531 2.06836 1.25391 1.75781 1.37109 1.47656C1.48828 1.19531 1.66406 0.9375 1.89844 0.703125C2.13281 0.46875 2.39355 0.292969 2.68066 0.175781C2.96777 0.0585938 3.27539 0 3.60352 0C3.93164 0 4.23633 0.0585938 4.51758 0.175781C4.79883 0.292969 5.05664 0.46875 5.29102 0.703125C5.52539 0.9375 5.70117 1.19531 5.81836 1.47656C5.93555 1.75781 5.99414 2.06836 5.99414 2.4082ZM12.6035 5.99414C12.6035 6.49805 12.5156 6.96094 12.3398 7.38281C12.1641 7.80469 11.9004 8.19141 11.5488 8.54297C11.1973 8.89453 10.8076 9.1582 10.3799 9.33398C9.95215 9.50977 9.49219 9.59766 9 9.59766C8.50781 9.59766 8.04785 9.50977 7.62012 9.33398C7.19238 9.1582 6.80273 8.89453 6.45117 8.54297C6.09961 8.19141 5.83594 7.80469 5.66016 7.38281C5.48438 6.96094 5.39648 6.49805 5.39648 5.99414C5.39648 5.50195 5.48438 5.04492 5.66016 4.62305C5.83594 4.20117 6.09961 3.81445 6.45117 3.46289C6.80273 3.11133 7.19238 2.84766 7.62012 2.67188C8.04785 2.49609 8.50781 2.4082 9 2.4082C9.49219 2.4082 9.95215 2.49609 10.3799 2.67188C10.8076 2.84766 11.1973 3.11133 11.5488 3.46289C11.9004 3.81445 12.1641 4.20117 12.3398 4.62305C12.5156 5.04492 12.6035 5.50195 12.6035 5.99414ZM18 8.10352C18 8.34961 17.9561 8.56641 17.8682 8.75391C17.7803 8.94141 17.6484 9.09961 17.4727 9.22852C17.2969 9.3457 17.1006 9.43652 16.8838 9.50098C16.667 9.56543 16.4355 9.59766 16.1895 9.59766H14.9238C14.6074 9.21094 14.2412 8.91797 13.8252 8.71875C13.4092 8.51953 12.9492 8.41406 12.4453 8.40234C12.6914 8.03906 12.8789 7.65527 13.0078 7.25098C13.1367 6.84668 13.2012 6.42773 13.2012 5.99414C13.2012 5.91211 13.1982 5.81836 13.1924 5.71289C13.1865 5.60742 13.1719 5.49609 13.1484 5.37891C13.3594 5.44922 13.5674 5.50195 13.7725 5.53711C13.9775 5.57227 14.1855 5.58984 14.3965 5.58984C14.584 5.58984 14.7715 5.5752 14.959 5.5459C15.1465 5.5166 15.334 5.4668 15.5215 5.39648C15.709 5.32617 15.8789 5.25879 16.0312 5.19434C16.1836 5.12988 16.3184 5.0625 16.4355 4.99219C16.5527 4.93359 16.6436 4.88672 16.708 4.85156C16.7725 4.81641 16.8164 4.79883 16.8398 4.79883C17.2266 4.79883 17.5166 5.07422 17.71 5.625C17.9033 6.17578 18 7.00195 18 8.10352ZM16.8047 2.4082C16.8047 2.73633 16.7461 3.04102 16.6289 3.32227C16.5117 3.60352 16.3359 3.86133 16.1016 4.0957C15.8672 4.33008 15.6064 4.50586 15.3193 4.62305C15.0322 4.74023 14.7246 4.79883 14.3965 4.79883C14.0684 4.79883 13.7637 4.74023 13.4824 4.62305C13.2012 4.50586 12.9434 4.33008 12.709 4.0957C12.4746 3.86133 12.2988 3.60352 12.1816 3.32227C12.0645 3.04102 12.0059 2.73633 12.0059 2.4082C12.0059 2.06836 12.0645 1.75781 12.1816 1.47656C12.2988 1.19531 12.4746 0.9375 12.709 0.703125C12.9434 0.46875 13.2012 0.292969 13.4824 0.175781C13.7637 0.0585938 14.0684 0 14.3965 0C14.7246 0 15.0322 0.0585938 15.3193 0.175781C15.6064 0.292969 15.8672 0.46875 16.1016 0.703125C16.3359 0.9375 16.5117 1.19531 16.6289 1.47656C16.7461 1.75781 16.8047 2.06836 16.8047 2.4082Z" fill="#6C6F78"/>
</g>
</svg>
