<svg xmlns="http://www.w3.org/2000/svg" width="16" height="17" viewBox="0 0 16 17" fill="none">
    <g clip-path="url(#clip0_1_41)">
        <path d="M8.71875 1.04251C8.61458 1.04251 8.51823 1.06334 8.42969 1.10501C8.34115 1.14668 8.27083 1.20397 8.21875 1.27689L0.9375 10.0113C0.895833 10.0633 0.859375 10.1258 0.828125 10.1988C0.796875 10.2717 0.78125 10.3498 0.78125 10.4331C0.78125 10.6206 0.846354 10.7795 0.976562 10.9097C1.10677 11.0399 1.26562 11.105 1.45312 11.105H7.25L6.60938 16.1675C6.60938 16.1883 6.60938 16.204 6.60938 16.2144C6.60938 16.2248 6.60938 16.2404 6.60938 16.2613C6.60938 16.4383 6.67448 16.592 6.80469 16.7222C6.9349 16.8524 7.08854 16.9175 7.26562 16.9175C7.36979 16.9175 7.46615 16.8967 7.55469 16.855C7.64323 16.8133 7.71875 16.7561 7.78125 16.6831L15.0625 7.94876C15.1042 7.89668 15.1406 7.83418 15.1719 7.76126C15.2031 7.68834 15.2188 7.61022 15.2188 7.52689C15.2188 7.33939 15.1536 7.18053 15.0234 7.05032C14.8932 6.92012 14.7344 6.85501 14.5469 6.85501H8.75L9.39062 1.79251C9.39062 1.78209 9.39062 1.76907 9.39062 1.75345C9.39062 1.73782 9.39062 1.7248 9.39062 1.71439C9.39062 1.52689 9.32552 1.36803 9.19531 1.23782C9.0651 1.10762 8.90625 1.04251 8.71875 1.04251ZM7.78125 3.88626L7.34375 7.44876C7.33333 7.45918 7.32812 7.4722 7.32812 7.48782C7.32812 7.50345 7.32812 7.51647 7.32812 7.52689C7.32812 7.71439 7.39323 7.87324 7.52344 8.00345C7.65365 8.13366 7.8125 8.19876 8 8.19876H13.125L8.21875 14.0894L8.65625 10.5269C8.65625 10.5061 8.65885 10.4904 8.66406 10.48C8.66927 10.4696 8.67188 10.454 8.67188 10.4331C8.67188 10.2456 8.60677 10.0894 8.47656 9.96439C8.34635 9.83939 8.1875 9.77689 8 9.77689H2.875L7.78125 3.88626Z" fill="#303033" />
    </g>
    <defs>
        <clipPath id="clip0_1_41">
            <rect width="16" height="16" fill="white" transform="matrix(1 0 0 -1 0 16.98)" />
        </clipPath>
    </defs>
</svg>