<svg width="20" height="17" viewBox="0 0 20 17" fill="none" xmlns="http://www.w3.org/2000/svg">
<g id="Link" clip-path="url(#clip0_10_1110)">
<path id="Vector" d="M19.14 2.60832C18.8067 2.76456 18.4604 2.89215 18.101 2.9911C17.7417 3.09006 17.3693 3.16036 16.9839 3.20203C17.3797 2.97288 17.7182 2.67863 17.9995 2.31928C18.2807 1.95992 18.4942 1.56151 18.64 1.12404C18.2651 1.34278 17.8797 1.52766 17.4839 1.67869C17.0881 1.82973 16.6766 1.94691 16.2496 2.03023C15.9683 1.72817 15.6454 1.48079 15.2809 1.2881C14.9163 1.0954 14.5309 0.967805 14.1247 0.90531C13.7185 0.832397 13.3123 0.829794 12.9061 0.897497C12.4998 0.965201 12.1144 1.098 11.7499 1.29591C11.3853 1.49381 11.0624 1.74379 10.7812 2.04586C10.5 2.34792 10.2708 2.68644 10.0937 3.06141C9.92709 3.43639 9.82293 3.82959 9.78127 4.24102C9.7396 4.65245 9.76564 5.05607 9.85939 5.45187C9.11985 5.42063 8.38813 5.30865 7.66422 5.11596C6.94031 4.92326 6.24505 4.66026 5.57843 4.32695C4.91181 3.98322 4.28945 3.577 3.71137 3.10828C3.13328 2.63957 2.60467 2.11877 2.12554 1.54589C1.9693 1.81671 1.84691 2.11096 1.75838 2.42864C1.66984 2.74633 1.62557 3.07704 1.62557 3.42076C1.62557 3.73324 1.66203 4.03791 1.73494 4.33476C1.80785 4.63162 1.91722 4.92066 2.06304 5.20189C2.20887 5.47271 2.38594 5.72269 2.59426 5.95184C2.80258 6.18099 3.03694 6.37889 3.29733 6.54555C2.99527 6.53513 2.70102 6.49086 2.41458 6.41275C2.12814 6.33463 1.85472 6.22265 1.59433 6.07683V6.1237C1.59433 6.56117 1.66724 6.98302 1.81306 7.38924C1.95888 7.79546 2.1672 8.16523 2.43802 8.49854C2.71925 8.83185 3.04475 9.11048 3.41451 9.33442C3.78428 9.55836 4.18269 9.71721 4.60974 9.81095C4.32851 9.88386 4.04468 9.92553 3.75824 9.93594C3.4718 9.94636 3.18797 9.92553 2.90674 9.87345C3.03173 10.238 3.20619 10.5817 3.43014 10.9046C3.65408 11.2275 3.9275 11.5035 4.25039 11.7327C4.56287 11.9618 4.904 12.1415 5.27376 12.2717C5.64353 12.4019 6.02111 12.467 6.4065 12.467C6.0836 12.7274 5.73467 12.9618 5.35969 13.1701C4.99513 13.368 4.61495 13.5347 4.21915 13.6701C3.82334 13.8055 3.42233 13.9044 3.0161 13.9669C2.59947 14.0398 2.17762 14.0763 1.75056 14.0763C1.60474 14.0763 1.45631 14.0711 1.30528 14.0607C1.15425 14.0502 1.00582 14.0398 0.860001 14.0294C1.28705 14.3002 1.72973 14.5398 2.18803 14.7481C2.65675 14.9668 3.13328 15.1465 3.61762 15.2871C4.10197 15.4278 4.59412 15.5345 5.09409 15.6074C5.59405 15.6803 6.09923 15.7168 6.60961 15.7168C8.33866 15.7168 9.86459 15.3887 11.1874 14.7325C12.5102 14.0867 13.6248 13.2534 14.5309 12.2327C15.4371 11.2119 16.1194 10.0661 16.5777 8.79539C17.0464 7.53506 17.2808 6.28515 17.2808 5.04565C17.2808 4.96232 17.2808 4.879 17.2808 4.79567C17.2808 4.71234 17.2755 4.63422 17.2651 4.56131C17.6297 4.29049 17.9708 3.99364 18.2885 3.67075C18.6062 3.34785 18.89 2.99371 19.14 2.60832Z" fill="#303033"/>
</g>
<defs>
<clipPath id="clip0_10_1110">
<rect width="18.28" height="16" fill="white" transform="matrix(1 0 0 -1 0.860001 16.2798)"/>
</clipPath>
</defs>
</svg>
