<svg xmlns="http://www.w3.org/2000/svg" width="18" height="19" viewBox="0 0 18 19" fill="none">
  <path d="M2.72461 10.8867L9.47461 17.6367C9.49805 17.6602 9.52441 17.6807 9.55371 17.6982C9.58301 17.7158 9.61523 17.7363 9.65039 17.7598C9.68555 17.7715 9.7207 17.7803 9.75586 17.7861C9.79102 17.792 9.82617 17.7949 9.86133 17.7949C9.89648 17.7949 9.93457 17.792 9.97559 17.7861C10.0166 17.7803 10.0547 17.7715 10.0898 17.7598C10.1133 17.7363 10.1426 17.7158 10.1777 17.6982C10.2129 17.6807 10.2422 17.6602 10.2656 17.6367L17.0156 10.8867C17.0508 10.8398 17.083 10.793 17.1123 10.7461C17.1416 10.6992 17.1621 10.6465 17.1738 10.5879C17.1855 10.541 17.1885 10.4883 17.1826 10.4297C17.1768 10.3711 17.1621 10.3184 17.1387 10.2715C17.1152 10.2129 17.0859 10.1631 17.0508 10.1221C17.0156 10.0811 16.9746 10.043 16.9277 10.0078C16.8809 9.98437 16.8311 9.96387 16.7783 9.94629C16.7256 9.92871 16.6699 9.91992 16.6113 9.91992H13.7988V4.29492C13.7988 4.14258 13.7725 3.99902 13.7197 3.86426C13.667 3.72949 13.5879 3.60938 13.4824 3.50391C13.377 3.39844 13.2539 3.31641 13.1133 3.25781C12.9727 3.19922 12.8262 3.16992 12.6738 3.16992H7.04883C6.9082 3.16992 6.76758 3.19922 6.62695 3.25781C6.48633 3.31641 6.36328 3.39844 6.25781 3.50391C6.15234 3.60938 6.07031 3.72949 6.01172 3.86426C5.95313 3.99902 5.92383 4.14258 5.92383 4.29492V9.91992H3.11133C3.06445 9.91992 3.01172 9.92871 2.95312 9.94629C2.89453 9.96387 2.8418 9.98437 2.79492 10.0078C2.75977 10.043 2.72461 10.0811 2.68945 10.1221C2.6543 10.1631 2.625 10.2129 2.60156 10.2715C2.57813 10.3184 2.56348 10.3711 2.55762 10.4297C2.55176 10.4883 2.55469 10.541 2.56641 10.5879C2.57813 10.6465 2.5957 10.6992 2.61914 10.7461C2.64258 10.793 2.67773 10.8398 2.72461 10.8867ZM6.48633 11.0449C6.56836 11.0449 6.6416 11.0303 6.70605 11.001C6.77051 10.9717 6.83203 10.9336 6.89063 10.8867C6.9375 10.8281 6.97559 10.7637 7.00488 10.6934C7.03418 10.623 7.04883 10.5527 7.04883 10.4824V4.29492H12.6738V10.4824C12.6738 10.5527 12.6885 10.623 12.7178 10.6934C12.7471 10.7637 12.791 10.8281 12.8496 10.8867C12.8965 10.9336 12.9551 10.9717 13.0254 11.001C13.0957 11.0303 13.166 11.0449 13.2363 11.0449H15.2578L9.86133 16.4414L4.48242 11.0449H6.48633Z" fill="#303033"/>
</svg>