<svg xmlns="http://www.w3.org/2000/svg" width="18" height="19" viewBox="0 0 18 19" fill="none">
  <path d="M16.6113 8.95312L9.86133 2.20312C9.83789 2.17969 9.80859 2.15918 9.77344 2.1416C9.73828 2.12402 9.70898 2.10352 9.68555 2.08008C9.65039 2.06836 9.6123 2.05957 9.57129 2.05371C9.53027 2.04785 9.49219 2.04492 9.45703 2.04492C9.42187 2.04492 9.38672 2.04785 9.35156 2.05371C9.31641 2.05957 9.28125 2.06836 9.24609 2.08008C9.21094 2.10352 9.17871 2.12402 9.14941 2.1416C9.12012 2.15918 9.09375 2.17969 9.07031 2.20312L2.32031 8.95312C2.27344 9 2.23828 9.04687 2.21484 9.09375C2.19141 9.14063 2.17383 9.19336 2.16211 9.25195C2.15039 9.29883 2.14746 9.35156 2.15332 9.41016C2.15918 9.46875 2.17383 9.52148 2.19727 9.56836C2.20898 9.62695 2.23535 9.67676 2.27637 9.71777C2.31738 9.75879 2.35547 9.79688 2.39063 9.83203C2.4375 9.85547 2.4873 9.87598 2.54004 9.89355C2.59277 9.91113 2.64844 9.91992 2.70703 9.91992H5.51953V15.5449C5.51953 15.6973 5.54883 15.8408 5.60742 15.9756C5.66602 16.1104 5.74805 16.2305 5.85352 16.3359C5.95898 16.4414 6.08203 16.5234 6.22266 16.582C6.36328 16.6406 6.50391 16.6699 6.64453 16.6699H12.2695C12.4219 16.6699 12.5654 16.6406 12.7002 16.582C12.835 16.5234 12.9609 16.4414 13.0781 16.3359C13.1836 16.2305 13.2627 16.1104 13.3154 15.9756C13.3682 15.8408 13.3945 15.6973 13.3945 15.5449V9.91992H16.207C16.2656 9.91992 16.3213 9.91113 16.374 9.89355C16.4268 9.87598 16.4766 9.85547 16.5234 9.83203C16.5703 9.79688 16.6113 9.75879 16.6465 9.71777C16.6816 9.67676 16.7109 9.62695 16.7344 9.56836C16.7578 9.52148 16.7725 9.46875 16.7783 9.41016C16.7842 9.35156 16.7813 9.29883 16.7695 9.25195C16.7578 9.19336 16.7373 9.14063 16.708 9.09375C16.6787 9.04687 16.6465 9 16.6113 8.95312ZM12.832 8.79492C12.7617 8.79492 12.6914 8.80957 12.6211 8.83887C12.5508 8.86816 12.4922 8.90625 12.4453 8.95312C12.3867 9.01172 12.3428 9.07617 12.3135 9.14648C12.2842 9.2168 12.2695 9.28711 12.2695 9.35742V15.5449H6.64453V9.35742C6.64453 9.28711 6.62988 9.2168 6.60059 9.14648C6.57129 9.07617 6.5332 9.01172 6.48633 8.95312C6.42773 8.90625 6.36621 8.86816 6.30176 8.83887C6.2373 8.80957 6.16406 8.79492 6.08203 8.79492H4.06055L9.45703 3.39844L14.8535 8.79492H12.832Z" fill="#303033"/>
</svg>