<svg width="18" height="18" viewBox="0 0 18 18" fill="none" xmlns="http://www.w3.org/2000/svg">
<g id="Icon" clip-path="url(#clip0_12_93)">
<path id="Vector" d="M9 0C8.37891 0 7.79883 0.146484 7.25977 0.439453C6.70898 0.732422 6.22852 1.13379 5.81836 1.64355C5.4082 2.15332 5.08594 2.74805 4.85156 3.42773C4.61719 4.11914 4.5 4.85156 4.5 5.625C4.5 6.39844 4.61719 7.13086 4.85156 7.82227C5.08594 8.50195 5.4082 9.09668 5.81836 9.60645C6.22852 10.1162 6.70898 10.5176 7.25977 10.8105C7.79883 11.1035 8.37891 11.25 9 11.25C9.62109 11.25 10.2012 11.1035 10.7402 10.8105C11.291 10.5176 11.7715 10.1162 12.1816 9.60645C12.5918 9.09668 12.9141 8.50195 13.1484 7.82227C13.3828 7.13086 13.5 6.39844 13.5 5.625C13.5 4.85156 13.3828 4.11914 13.1484 3.42773C12.9141 2.74805 12.5918 2.15332 12.1816 1.64355C11.7715 1.13379 11.291 0.732422 10.7402 0.439453C10.2012 0.146484 9.62109 0 9 0ZM4.28906 11.25C3.70312 11.2734 3.14648 11.4082 2.61914 11.6543C2.0918 11.9004 1.63477 12.2256 1.24805 12.6299C0.861328 13.0342 0.556641 13.5059 0.333984 14.0449C0.111328 14.5723 0 15.1406 0 15.75V18H18V15.75C18 15.1406 17.8887 14.5723 17.666 14.0449C17.4434 13.5059 17.1387 13.0342 16.752 12.6299C16.3652 12.2256 15.9141 11.9004 15.3984 11.6543C14.8711 11.4082 14.3086 11.2734 13.7109 11.25C13.1016 11.9414 12.3926 12.4893 11.584 12.8936C10.7754 13.2979 9.91406 13.5 9 13.5C8.08594 13.5 7.22461 13.2979 6.41602 12.8936C5.60742 12.4893 4.89844 11.9414 4.28906 11.25Z" fill="#6C6F78"/>
</g>
<defs>
<clipPath id="clip0_12_93">
<rect width="18" height="18" fill="white" transform="matrix(1 0 0 -1 0 18)"/>
</clipPath>
</defs>
</svg>
