<svg width="16" height="17" viewBox="0 0 16 17" fill="none" xmlns="http://www.w3.org/2000/svg">
<g id="Link">
<path id="Vector" d="M15.6719 4.42041C15.6198 4.25374 15.5495 4.09489 15.4609 3.94385C15.3724 3.79281 15.2656 3.65479 15.1406 3.52979C15.026 3.40479 14.8906 3.29801 14.7344 3.20947C14.5781 3.12093 14.4167 3.05583 14.25 3.01416C13.9375 2.93083 13.4375 2.86312 12.75 2.81104C12.0625 2.76937 11.3672 2.73812 10.6641 2.71729C9.96094 2.69645 9.33854 2.68083 8.79688 2.67041C8.26562 2.67041 8 2.67041 8 2.67041C8 2.67041 7.73438 2.67041 7.20312 2.67041C6.66146 2.68083 6.03906 2.69645 5.33594 2.71729C4.63281 2.73812 3.9375 2.76937 3.25 2.81104C2.5625 2.86312 2.0625 2.93083 1.75 3.01416C1.58333 3.05583 1.42188 3.12093 1.26562 3.20947C1.10938 3.29801 0.96875 3.40479 0.84375 3.52979C0.729167 3.65479 0.627604 3.79281 0.539062 3.94385C0.450521 4.09489 0.380208 4.25374 0.328125 4.42041C0.244792 4.73291 0.182292 5.10791 0.140625 5.54541C0.0989583 5.99333 0.0677083 6.41781 0.046875 6.81885C0.0260417 7.21989 0.0104167 7.56624 0 7.85791C0 8.13916 0 8.27979 0 8.27979C0 8.27979 0 8.42041 0 8.70166C0.0104167 8.99333 0.0260417 9.33968 0.046875 9.74072C0.0677083 10.1418 0.0989583 10.561 0.140625 10.9985C0.182292 11.4465 0.244792 11.8267 0.328125 12.1392C0.421875 12.4829 0.596354 12.7824 0.851562 13.0376C1.10677 13.2928 1.40625 13.4621 1.75 13.5454C2.0625 13.6287 2.5625 13.6965 3.25 13.7485C3.9375 13.7902 4.63281 13.8215 5.33594 13.8423C6.03906 13.8631 6.66146 13.8787 7.20312 13.8892C7.73438 13.8892 8 13.8892 8 13.8892C8 13.8892 8.26562 13.8892 8.79688 13.8892C9.33854 13.8787 9.96094 13.8631 10.6641 13.8423C11.3672 13.8215 12.0625 13.7902 12.75 13.7485C13.4375 13.6965 13.9375 13.6287 14.25 13.5454C14.5938 13.4621 14.8932 13.2928 15.1484 13.0376C15.4036 12.7824 15.5781 12.4829 15.6719 12.1392C15.7552 11.8267 15.8177 11.4465 15.8594 10.9985C15.901 10.561 15.9323 10.1418 15.9531 9.74072C15.974 9.33968 15.9896 8.99333 16 8.70166C16 8.42041 16 8.27979 16 8.27979C16 8.27979 16 8.13916 16 7.85791C15.9896 7.56624 15.974 7.21989 15.9531 6.81885C15.9323 6.41781 15.901 5.99854 15.8594 5.56104C15.8177 5.11312 15.7552 4.73291 15.6719 4.42041ZM6.40625 10.6704V5.88916L10.5469 8.26416L6.40625 10.6704Z" fill="#303033"/>
</g>
</svg>
